{
.appVersion = "3322";
.formatVersion = 3;
axes = (
{
name = Weight;
tag = wght;
}
);
customParameters = (
{
name = fsType;
value = (
);
},
{
name = unicodeRanges;
value = (
0,
1,
2,
3,
5,
13,
31,
33,
35,
45,
60,
63,
67
);
}
);
date = "2024-03-05 07:21:34 +0000";
familyName = Gharbi;
featurePrefixes = (
{
automatic = 1;
code = "languagesystem DFLT dflt;

languagesystem arab dflt;

languagesystem latn dflt;
";
name = Languagesystems;
}
);
features = (
{
automatic = 1;
code = "feature ordn;
feature init;
feature medi;
feature fina;
feature ss01;
feature ss02;
feature ss03;
";
tag = aalt;
},
{
automatic = 1;
code = "lookup ccmp_arab_1 {
	lookupflag 0;
	sub hamzaabove-ar damma-ar by hamzaaboveDamma-ar;
	sub damma-ar hamzaabove-ar by hamzaaboveDamma-ar;
	sub hamzaabove-ar dammatan-ar by hamzaaboveDammatan-ar;
	sub dammatan-ar hamzaabove-ar by hamzaaboveDammatan-ar;
	sub hamzaabove-ar fatha-ar by hamzaaboveFatha-ar;
	sub fatha-ar hamzaabove-ar by hamzaaboveFatha-ar;
	sub hamzaabove-ar fathatan-ar by hamzaaboveFathatan-ar;
	sub fathatan-ar hamzaabove-ar by hamzaaboveFathatan-ar;
	sub hamzaabove-ar sukun-ar by hamzaaboveSukun-ar;
	sub sukun-ar hamzaabove-ar by hamzaaboveSukun-ar;
	sub hamzabelow-ar kasra-ar by hamzabelowKasra-ar;
	sub kasra-ar hamzabelow-ar by hamzabelowKasra-ar;
	sub hamzabelow-ar kasratan-ar by hamzabelowKasratan-ar;
	sub kasratan-ar hamzabelow-ar by hamzabelowKasratan-ar;
	sub shadda-ar alefabove-ar by shaddaAlefabove-ar;
	sub alefabove-ar shadda-ar by shaddaAlefabove-ar;
	sub shadda-ar damma-ar by shaddaDamma-ar;
	sub damma-ar shadda-ar by shaddaDamma-ar;
	sub shadda-ar dammatan-ar by shaddaDammatan-ar;
	sub dammatan-ar shadda-ar by shaddaDammatan-ar;
	sub shadda-ar fatha-ar by shaddaFatha-ar;
	sub fatha-ar shadda-ar by shaddaFatha-ar;
	sub shadda-ar fathatan-ar by shaddaFathatan-ar;
	sub fathatan-ar shadda-ar by shaddaFathatan-ar;
	sub shadda-ar kasra-ar by shaddaKasra-ar;
	sub kasra-ar shadda-ar by shaddaKasra-ar;

glyphs = (
{
glyphname = A;
kernLeft = A;
kernRight = A;
lastChange = "2024-05-16 19:04:49 +0000";
layers = (
{
layerId = m01;
shapes = (
{
closed = 1;
nodes = (
(1146,0,l),
(621,1404,l),
(557,1404,l),
(32,0,l),
(89,0,l),
(245,419,l),
(932,419,l),
(1089,0,l)
);
},
{
closed = 1;
nodes = (
(913,471,l),
(264,471,l),
(589,1341,l)
);
}
);
userData = {
assembly = "SVTCA[0]	/* SetFreedomAndProjectionVectorToAxis */
PUSHB[ ]	/* 1 value pushed */
0
RCVT[ ]	/* ReadCVT */
IF[ ]	/* If */
PUSHB[ ]	/* 1 value pushed */
4
MDAP[1]	/* MoveDirectAbsPt */
ELSE[ ]	/* Else */
PUSHB[ ]	/* 2 values pushed */
4 31
MIAP[0]	/* MoveIndirectAbsPt */
EIF[ ]	/* EndIf */
PUSHB[ ]	/* 1 value pushed */
0
RCVT[ ]	/* ReadCVT */
IF[ ]	/* If */
PUSHB[ ]	/* 1 value pushed */
2
MDAP[1]	/* MoveDirectAbsPt */
ELSE[ ]	/* Else */
PUSHB[ ]	/* 2 values pushed */
2 15
MIAP[0]	/* MoveIndirectAbsPt */
EIF[ ]	/* EndIf */
PUSHB[ ]	/* 1 value pushed */
0
RCVT[ ]	/* ReadCVT */
IF[ ]	/* If */
PUSHB[ ]	/* 1 value pushed */
6
MDAP[1]	/* MoveDirectAbsPt */
ELSE[ ]	/* Else */
PUSHB[ ]	/* 2 values pushed */
6 15
MIAP[0]	/* MoveIndirectAbsPt */
EIF[ ]	/* EndIf */
PUSHB[ ]	/* 3 values pushed */
9 4 2
SRP1[ ]	/* SetRefPoint1 */
SRP2[ ]	/* SetRefPoint2 */
IP[ ]	/* InterpolatePts */
PUSHB[ ]	/* 1 value pushed */
9
MDAP[1]	/* MoveDirectAbsPt */
PUSHB[ ]	/* 3 values pushed */
79 9 1
DELTAP1[ ]	/* DeltaExceptionP1 */
PUSHB[ ]	/* 2 values pushed */
0 1
PUSHB[ ]	/* 1 value pushed */
10
CALL[ ]	/* CallFunction */
IF[ ]	/* If */
POP[ ]	/* PopTopStack */
MDRP[11000]	/* MoveDirectRelPt */
ELSE[ ]	/* Else */
MIRP[10100]	/* MoveIndirectRelPt */
EIF[ ]	/* EndIf */
PUSHB[ ]	/* 3 values pushed */
10 4 2
SRP1[ ]	/* SetRefPoint1 */
SRP2[ ]	/* SetRefPoint2 */
IP[ ]	/* InterpolatePts */
IUP[0]	/* InterpolateUntPts */
IUP[1]	/* InterpolateUntPts */";
};
width = 1179;
},
{
layerId = m002;
shapes = (
{
closed = 1;
nodes = (
(1346,0,l),
(828,1404,l),
(510,1404,l),
(-3,0,l),
(357,0,l),
(438,262,l),
(900,262,l),
(983,0,l)
);
},
{
closed = 1;
nodes = (
(821,523,l),
(519,523,l),
(670,1010,l)
);
}
);
userData = {
assembly = "SVTCA[0]	/* SetFreedomAndProjectionVectorToAxis */
PUSHB[ ]	/* 1 value pushed */
0
RCVT[ ]	/* ReadCVT */
IF[ ]	/* If */
PUSHB[ ]	/* 1 value pushed */
4
MDAP[1]	/* MoveDirectAbsPt */
ELSE[ ]	/* Else */
PUSHB[ ]	/* 2 values pushed */
4 31
MIAP[0]	/* MoveIndirectAbsPt */
EIF[ ]	/* EndIf */
PUSHB[ ]	/* 1 value pushed */
0
RCVT[ ]	/* ReadCVT */
IF[ ]	/* If */
PUSHB[ ]	/* 1 value pushed */
2
MDAP[1]	/* MoveDirectAbsPt */
ELSE[ ]	/* Else */
PUSHB[ ]	/* 2 values pushed */
2 15
MIAP[0]	/* MoveIndirectAbsPt */
EIF[ ]	/* EndIf */
PUSHB[ ]	/* 1 value pushed */
0
RCVT[ ]	/* ReadCVT */
IF[ ]	/* If */
PUSHB[ ]	/* 1 value pushed */
6
MDAP[1]	/* MoveDirectAbsPt */
ELSE[ ]	/* Else */
PUSHB[ ]	/* 2 values pushed */
6 15
MIAP[0]	/* MoveIndirectAbsPt */
EIF[ ]	/* EndIf */
PUSHB[ ]	/* 3 values pushed */
9 4 2
SRP1[ ]	/* SetRefPoint1 */
SRP2[ ]	/* SetRefPoint2 */
IP[ ]	/* InterpolatePts */
PUSHB[ ]	/* 1 value pushed */
9
MDAP[1]	/* MoveDirectAbsPt */
PUSHB[ ]	/* 3 values pushed */
79 9 1
DELTAP1[ ]	/* DeltaExceptionP1 */
PUSHB[ ]	/* 2 values pushed */
0 1
PUSHB[ ]	/* 1 value pushed */
10
CALL[ ]	/* CallFunction */
IF[ ]	/* If */
POP[ ]	/* PopTopStack */
MDRP[11000]	/* MoveDirectRelPt */
ELSE[ ]	/* Else */
MIRP[10100]	/* MoveIndirectRelPt */
EIF[ ]	/* EndIf */
PUSHB[ ]	/* 3 values pushed */
10 4 2
SRP1[ ]	/* SetRefPoint1 */
SRP2[ ]	/* SetRefPoint2 */
IP[ ]	/* InterpolatePts */
IUP[0]	/* InterpolateUntPts */
IUP[1]	/* InterpolateUntPts */";
};
width = 1342;
}
);
note = uni0041;
unicode = 65;
},
{
glyphname = Aacute;
kernLeft = A;
kernRight = A;
lastChange = "2024-05-16 19:04:49 +0000";
layers = (
{
layerId = m01;
shapes = (
{
closed = 1;
nodes = (
(1146,0,l),
(621,1404,l),
(557,1404,l),
(32,0,l),
(89,0,l),
(245,419,l),
(932,419,l),
(1089,0,l)
);
},
{
closed = 1;
nodes = (
(913,471,l),
(264,471,l),
(589,1341,l)
);
},
{
closed = 1;
nodes = (
(613,1543,l),
(800,1800,l),
(737,1800,l),
(555,1543,l)
);
}
);
width = 1179;
},
{
layerId = m002;
shapes = (
{
closed = 1;
nodes = (
(1346,0,l),
(828,1404,l),
(510,1404,l),
(-3,0,l),
(357,0,l),
(438,262,l),
(900,262,l),
(983,0,l)
);
},
{
closed = 1;
nodes = (
(821,523,l),
(519,523,l),
(670,1010,l)
);
},
{
closed = 1;
nodes = (
(790,1475,l),
(1058,1778,l),
(713,1778,l),
(524,1475,l)
);
}
);
width = 1342;
}
);
note = uni00C1;
unicode = 193;
},
{
glyphname = Acircumflex;
kernLeft = A;
kernRight = A;
lastChange = "2024-05-16 19:04:49 +0000";
layers = (
{
layerId = m01;
shapes = (
{
closed = 1;
nodes = (
(1146,0,l),
(621,1404,l),
(557,1404,l),
(32,0,l),
(89,0,l),
(245,419,l),
(932,419,l),
(1089,0,l)
);
},
{
closed = 1;
nodes = (
(913,471,l),
(264,471,l),
(589,1341,l)
);
},
{
closed = 1;
nodes = (
(571,1781,l),
(349,1551,l),
(349,1537,l),
(411,1537,l),
(589,1726,l),
(769,1537,l),
(835,1537,l),
(835,1547,l),
(609,1781,l)
);
}
);
width = 1179;
},
{
layerId = m002;
shapes = (
{
closed = 1;
nodes = (
(1346,0,l),
(828,1404,l),
(510,1404,l),
(-3,0,l),
(357,0,l),
(438,262,l),
(900,262,l),
(983,0,l)
);
},
{
closed = 1;
nodes = (
(821,523,l),
(519,523,l),
(670,1010,l)
);
},
{
closed = 1;
nodes = (
(580,1778,l),
(269,1511,l),
(269,1494,l),
(519,1494,l),
(672,1625,l),
(826,1494,l),
(1082,1494,l),
(1082,1507,l),
(767,1778,l)
);
}
);
width = 1342;
}
);
note = uni00C2;
unicode = 194;
},
{
glyphname = Adieresis;
kernLeft = A;
kernRight = A;
lastChange = "2024-05-16 19:04:49 +0000";
layers = (
{
layerId = m01;
shapes = (
{
closed = 1;
nodes = (
(1146,0,l),
(621,1404,l),
(557,1404,l),
(32,0,l),
(89,0,l),
(245,419,l),
(932,419,l),
(1089,0,l)
);
},
{
closed = 1;
nodes = (
(913,471,l),
(264,471,l),
(589,1341,l)
);
},
{
closed = 1;
nodes = (
(324,1659,o),
(348,1636,o),
(377,1636,cs),
(407,1636,o),
(431,1659,o),
(431,1689,cs),
(431,1718,o),
(407,1743,o),
(377,1743,cs),
(348,1743,o),
(324,1718,o),
(324,1689,cs)
);
},
{
closed = 1;
nodes = (
(753,1659,o),
(776,1636,o),
(806,1636,cs),
(836,1636,o),
(860,1659,o),
(860,1689,cs),
(860,1718,o),
(836,1743,o),
(806,1743,cs),
(776,1743,o),
(753,1718,o),
(753,1689,cs)
);
}
);
width = 1179;
},
{
layerId = m002;
shapes = (
{
closed = 1;
nodes = (
(1346,0,l),
(828,1404,l),
(510,1404,l),
(-3,0,l),
(357,0,l),
(438,262,l),
(900,262,l),
(983,0,l)
);
},
{
closed = 1;
nodes = (
(821,523,l),
(519,523,l),
(670,1010,l)
);
},
{
closed = 1;
nodes = (
(276,1544,o),
(339,1485,o),
(421,1485,cs),
(504,1485,o),
(566,1543,o),
(566,1614,cs),
(566,1685,o),
(504,1739,o),
(421,1739,cs),
(339,1739,o),
(276,1685,o),
(276,1613,cs)
);
},
{
closed = 1;
nodes = (
(777,1544,o),
(839,1485,o),
(922,1485,cs),
(1004,1485,o),
(1067,1543,o),
(1067,1614,cs),
(1067,1685,o),
(1004,1739,o),
(922,1739,cs),
(839,1739,o),
(777,1685,o),
(777,1613,cs)
);
}
);
width = 1342;
}
);
note = uni00C4;
unicode = 196;
},
{
glyphname = Agrave;
kernLeft = A;
kernRight = A;
lastChange = "2024-05-16 19:04:49 +0000";
layers = (
{
layerId = m01;
shapes = (
{
closed = 1;
nodes = (
(1146,0,l),
(621,1404,l),
(557,1404,l),
(32,0,l),
(89,0,l),
(245,419,l),
(932,419,l),
(1089,0,l)
);
},
{
closed = 1;
nodes = (
(913,471,l),
(264,471,l),
(589,1341,l)
);
},
{
closed = 1;
nodes = (
(383,1800,l),
(571,1543,l),
(628,1543,l),
(447,1800,l)
);
}
);
width = 1179;
},
{
layerId = m002;
shapes = (
{
closed = 1;
nodes = (
(1346,0,l),
(828,1404,l),
(510,1404,l),
(-3,0,l),
(357,0,l),
(438,262,l),
(900,262,l),
(983,0,l)
);
},
{
closed = 1;
nodes = (
(821,523,l),
(519,523,l),
(670,1010,l)
);
},
{
closed = 1;
nodes = (
(291,1778,l),
(562,1475,l),
(826,1475,l),
(637,1778,l)
);
}
);
width = 1342;
}
);
note = uni00C0;
unicode = 192;
},
{
glyphname = Aring;
kernLeft = A;
kernRight = A;
lastChange = "2024-05-16 19:04:49 +0000";
layers = (
{
layerId = m01;
shapes = (
{
closed = 1;
nodes = (
(1146,0,l),
(621,1404,l),
(557,1404,l),
(32,0,l),
(89,0,l),
(245,419,l),
(932,419,l),
(1089,0,l)
);
},
{
closed = 1;
nodes = (
(913,471,l),
(264,471,l),
(589,1341,l)
);
},
{
closed = 1;
nodes = (
(427,1555,o),
(504,1487,o),
(592,1487,cs),
(685,1487,o),
(757,1559,o),
(757,1651,cs),
(757,1744,o),
(685,1819,o),
(592,1819,cs),
(502,1819,o),
(427,1748,o),
(427,1651,cs)
);
},
{
closed = 1;
nodes = (
(440,1539,o),
(443,1767,o),
(592,1767,cs),
(742,1767,o),
(744,1539,o),
(592,1539,cs)
);
}
);
width = 1179;
},
{
layerId = m002;
shapes = (
{
closed = 1;
nodes = (
(1346,0,l),
(828,1404,l),
(510,1404,l),
(-3,0,l),
(357,0,l),
(438,262,l),
(900,262,l),
(983,0,l)
);
},
{
closed = 1;
nodes = (
(821,523,l),
(519,523,l),
(670,1010,l)
);
},
{
closed = 1;
nodes = (
(459,1553,o),
(551,1473,o),
(676,1473,cs),
(797,1473,o),
(891,1553,o),
(891,1664,cs),
(891,1777,o),
(794,1859,o),
(676,1859,cs),
(553,1859,o),
(459,1777,o),
(459,1664,cs)
);
},
{
closed = 1;
nodes = (
(541,1563,o),
(540,1769,o),
(676,1769,cs),
(805,1769,o),
(807,1563,o),
(676,1563,cs)
);
}
);
width = 1342;
}
);
note = uni00C5;
unicode = 197;
},
{
glyphname = Atilde;
kernLeft = A;
kernRight = A;
lastChange = "2024-05-16 19:04:50 +0000";
layers = (
{
layerId = m01;
shapes = (
{
closed = 1;
nodes = (
(1146,0,l),
(621,1404,l),
(557,1404,l),
(32,0,l),
(89,0,l),
(245,419,l),
(932,419,l),
(1089,0,l)
);
},
{
closed = 1;
nodes = (
(913,471,l),
(264,471,l),
(589,1341,l)
);
},
{
closed = 1;
nodes = (
(853,1677,o),
(806,1627,o),
(737,1627,cs),
(633,1627,o),
(588,1746,o),
(460,1746,cs),
(362,1746,o),
(290,1677,o),
(290,1574,c),
(343,1574,l),
(343,1647,o),
(388,1694,o),
(460,1694,cs),
(500,1694,o),
(685,1574,o),
(737,1574,cs),
(833,1574,o),
(906,1648,o),
(906,1753,c),
(853,1753,l)
);
}
);
width = 1179;
},
{
layerId = m002;
shapes = (
{
closed = 1;
nodes = (
(1346,0,l),
(828,1404,l),
(510,1404,l),
(-3,0,l),
(357,0,l),
(438,262,l),
(900,262,l),
(983,0,l)
);
},
{
closed = 1;
nodes = (
(821,523,l),
(519,523,l),
(670,1010,l)
);
},
{
closed = 1;
nodes = (
(866,1719,o),
(832,1694,o),
(790,1694,cs),
(689,1694,o),
(624,1773,o),
(521,1773,cs),
(398,1773,o),
(298,1653,o),
(298,1509,c),
(478,1500,l),
(478,1561,o),
(514,1586,o),
(553,1586,cs),
(620,1586,o),
(750,1505,o),
(824,1505,cs),
(946,1505,o),
(1044,1620,o),
(1044,1771,c),
(866,1780,l)
);
}
);
width = 1342;
}
);
note = uni00C3;
unicode = 195;
},
{
glyphname = AE;
lastChange = "2024-05-16 19:04:50 +0000";
layers = (
{
layerId = m01;
shapes = (
{
closed = 1;
nodes = (
(1028,52,l),
(1001,706,l),
(1566,706,l),
(1566,758,l),
(999,758,l),
(974,1352,l),
(1645,1352,l),
(1645,1404,l),
(897,1404,l),
(48,0,l),
(111,0,l),
(357,410,l),
(962,410,l),
(979,0,l),
(1704,0,l),
(1704,52,l)
);
},
{
closed = 1;
nodes = (
(960,461,l),
(388,461,l),
(922,1348,l)
);
}
);
userData = {
assembly = "SVTCA[0]	/* SetFreedomAndProjectionVectorToAxis */
PUSHB[ ]	/* 1 value pushed */
0
RCVT[ ]	/* ReadCVT */
IF[ ]	/* If */
PUSHB[ ]	/* 1 value pushed */
6
MDAP[1]	/* MoveDirectAbsPt */
ELSE[ ]	/* Else */
PUSHB[ ]	/* 2 values pushed */
6 31
MIAP[0]	/* MoveIndirectAbsPt */
EIF[ ]	/* EndIf */
PUSHB[ ]	/* 1 value pushed */
0
RCVT[ ]	/* ReadCVT */
IF[ ]	/* If */
PUSHB[ ]	/* 1 value pushed */
0
MDAP[1]	/* MoveDirectAbsPt */
ELSE[ ]	/* Else */
PUSHB[ ]	/* 2 values pushed */
0 15
MIAP[0]	/* MoveIndirectAbsPt */
EIF[ ]	/* EndIf */
PUSHB[ ]	/* 1 value pushed */
0
RCVT[ ]	/* ReadCVT */
IF[ ]	/* If */
PUSHB[ ]	/* 1 value pushed */
4
MDAP[1]	/* MoveDirectAbsPt */
ELSE[ ]	/* Else */
PUSHB[ ]	/* 2 values pushed */
4 15
MIAP[0]	/* MoveIndirectAbsPt */
EIF[ ]	/* EndIf */
PUSHB[ ]	/* 3 values pushed */
17 6 0
SRP1[ ]	/* SetRefPoint1 */
SRP2[ ]	/* SetRefPoint2 */
IP[ ]	/* InterpolatePts */
PUSHB[ ]	/* 1 value pushed */
17
MDAP[1]	/* MoveDirectAbsPt */
PUSHB[ ]	/* 2 values pushed */
2 1
PUSHB[ ]	/* 1 value pushed */
10
CALL[ ]	/* CallFunction */
IF[ ]	/* If */
POP[ ]	/* PopTopStack */
MDRP[11000]	/* MoveDirectRelPt */
ELSE[ ]	/* Else */
MIRP[10100]	/* MoveIndirectRelPt */
EIF[ ]	/* EndIf */
PUSHB[ ]	/* 1 value pushed */
6
SRP0[ ]	/* SetRefPoint0 */
PUSHB[ ]	/* 2 values pushed */
8 1
PUSHB[ ]	/* 1 value pushed */
10
CALL[ ]	/* CallFunction */
IF[ ]	/* If */
POP[ ]	/* PopTopStack */
MDRP[11000]	/* MoveDirectRelPt */
ELSE[ ]	/* Else */
MIRP[10100]	/* MoveIndirectRelPt */
EIF[ ]	/* EndIf */
PUSHB[ ]	/* 3 values pushed */
11 0 6
SRP1[ ]	/* SetRefPoint1 */
SRP2[ ]	/* SetRefPoint2 */
IP[ ]	/* InterpolatePts */
PUSHB[ ]	/* 1 value pushed */
11
MDAP[1]	/* MoveDirectAbsPt */
PUSHB[ ]	/* 3 values pushed */
191 11 1
DELTAP1[ ]	/* DeltaExceptionP1 */
PUSHB[ ]	/* 2 values pushed */
12 1
PUSHB[ ]	/* 1 value pushed */
10
CALL[ ]	/* CallFunction */
IF[ ]	/* If */
POP[ ]	/* PopTopStack */
MDRP[11000]	/* MoveDirectRelPt */
ELSE[ ]	/* Else */
MIRP[10100]	/* MoveIndirectRelPt */
EIF[ ]	/* EndIf */
PUSHB[ ]	/* 1 value pushed */
0
SRP0[ ]	/* SetRefPoint0 */
PUSHB[ ]	/* 2 values pushed */
14 1
PUSHB[ ]	/* 1 value pushed */
10
CALL[ ]	/* CallFunction */
IF[ ]	/* If */
POP[ ]	/* PopTopStack */
MDRP[11000]	/* MoveDirectRelPt */
ELSE[ ]	/* Else */
MIRP[10100]	/* MoveIndirectRelPt */
EIF[ ]	/* EndIf */
PUSHB[ ]	/* 3 values pushed */
18 6 0
SRP1[ ]	/* SetRefPoint1 */
SRP2[ ]	/* SetRefPoint2 */
IP[ ]	/* InterpolatePts */
IUP[0]	/* InterpolateUntPts */
IUP[1]	/* InterpolateUntPts */";
};
width = 1750;
},
{
layerId = m002;
shapes = (
{
closed = 1;
nodes = (
(1231,254,l),
(1218,591,l),
(1646,591,l),
(1646,845,l),
(1206,845,l),
(1195,1148,l),
(1724,1148,l),
(1724,1404,l),
(722,1404,l),
(15,0,l),
(389,0,l),
(535,316,l),
(905,316,l),
(918,0,l),
(1783,0,l),
(1783,254,l)
);
},
{
closed = 1;
nodes = (
(894,576,l),
(657,576,l),
(873,1045,l)
);
}
);
userData = {
assembly = "SVTCA[0]	/* SetFreedomAndProjectionVectorToAxis */
PUSHB[ ]	/* 1 value pushed */
0
RCVT[ ]	/* ReadCVT */
IF[ ]	/* If */
PUSHB[ ]	/* 1 value pushed */
6
MDAP[1]	/* MoveDirectAbsPt */
ELSE[ ]	/* Else */
PUSHB[ ]	/* 2 values pushed */
6 31
MIAP[0]	/* MoveIndirectAbsPt */
EIF[ ]	/* EndIf */
PUSHB[ ]	/* 1 value pushed */
0
RCVT[ ]	/* ReadCVT */
IF[ ]	/* If */
PUSHB[ ]	/* 1 value pushed */
0
MDAP[1]	/* MoveDirectAbsPt */
ELSE[ ]	/* Else */
PUSHB[ ]	/* 2 values pushed */
0 15
MIAP[0]	/* MoveIndirectAbsPt */
EIF[ ]	/* EndIf */
PUSHB[ ]	/* 1 value pushed */
0
RCVT[ ]	/* ReadCVT */
IF[ ]	/* If */
PUSHB[ ]	/* 1 value pushed */
4
MDAP[1]	/* MoveDirectAbsPt */
ELSE[ ]	/* Else */
PUSHB[ ]	/* 2 values pushed */
4 15
MIAP[0]	/* MoveIndirectAbsPt */
EIF[ ]	/* EndIf */
PUSHB[ ]	/* 3 values pushed */
17 6 0
SRP1[ ]	/* SetRefPoint1 */
SRP2[ ]	/* SetRefPoint2 */
IP[ ]	/* InterpolatePts */
PUSHB[ ]	/* 1 value pushed */
17
MDAP[1]	/* MoveDirectAbsPt */
PUSHB[ ]	/* 2 values pushed */
2 1
PUSHB[ ]	/* 1 value pushed */
10
CALL[ ]	/* CallFunction */
IF[ ]	/* If */
POP[ ]	/* PopTopStack */
MDRP[11000]	/* MoveDirectRelPt */
ELSE[ ]	/* Else */
MIRP[10100]	/* MoveIndirectRelPt */
EIF[ ]	/* EndIf */
PUSHB[ ]	/* 1 value pushed */
6
SRP0[ ]	/* SetRefPoint0 */
PUSHB[ ]	/* 2 values pushed */
8 1
PUSHB[ ]	/* 1 value pushed */
10
CALL[ ]	/* CallFunction */
IF[ ]	/* If */
POP[ ]	/* PopTopStack */
MDRP[11000]	/* MoveDirectRelPt */
ELSE[ ]	/* Else */
MIRP[10100]	/* MoveIndirectRelPt */
EIF[ ]	/* EndIf */
PUSHB[ ]	/* 3 values pushed */
11 0 6
SRP1[ ]	/* SetRefPoint1 */
SRP2[ ]	/* SetRefPoint2 */
IP[ ]	/* InterpolatePts */
PUSHB[ ]	/* 1 value pushed */
11
MDAP[1]	/* MoveDirectAbsPt */
PUSHB[ ]	/* 3 values pushed */
191 11 1
DELTAP1[ ]	/* DeltaExceptionP1 */
PUSHB[ ]	/* 2 values pushed */
12 1
PUSHB[ ]	/* 1 value pushed */
10
CALL[ ]	/* CallFunction */
IF[ ]	/* If */
POP[ ]	/* PopTopStack */
MDRP[11000]	/* MoveDirectRelPt */
ELSE[ ]	/* Else */
MIRP[10100]	/* MoveIndirectRelPt */
EIF[ ]	/* EndIf */
PUSHB[ ]	/* 1 value pushed */
0
SRP0[ ]	/* SetRefPoint0 */
PUSHB[ ]	/* 2 values pushed */
14 1
PUSHB[ ]	/* 1 value pushed */
10
CALL[ ]	/* CallFunction */
IF[ ]	/* If */
POP[ ]	/* PopTopStack */
MDRP[11000]	/* MoveDirectRelPt */
ELSE[ ]	/* Else */
MIRP[10100]	/* MoveIndirectRelPt */
EIF[ ]	/* EndIf */
PUSHB[ ]	/* 3 values pushed */
18 6 0
SRP1[ ]	/* SetRefPoint1 */
SRP2[ ]	/* SetRefPoint2 */
IP[ ]	/* InterpolatePts */
IUP[0]	/* InterpolateUntPts */
IUP[1]	/* InterpolateUntPts */";
};
width = 1855;
}
);
note = uni00C6;
unicode = 198;
},
{
glyphname = B;
kernRight = B;
lastChange = "2024-05-16 19:04:50 +0000";
layers = (
{
layerId = m01;
shapes = (
{
closed = 1;
nodes = (
(921,0,o),
(1085,147,o),
(1085,387,cs),
(1085,555,o),
(952,703,o),
(774,726,c),
(931,757,o),
(1021,874,o),
(1021,1044,cs),
(1021,1278,o),
(864,1404,o),
(562,1404,cs),
(193,1404,l),
(193,0,l),
(645,0,ls)
);
},
{
closed = 1;
nodes = (
(891,689,o),
(1033,562,o),
(1033,385,cs),
(1033,176,o),
(889,52,o),
(651,52,cs),
(245,52,l),
(245,693,l),
(671,693,ls)
);
},
{
closed = 1;
nodes = (
(574,1352,ls),
(837,1348,o),
(968,1247,o),
(968,1048,cs),
(968,841,o),
(837,745,o),
(582,745,cs),
(245,745,l),
(245,1352,l)
);
}
);
userData = {
assembly = "PUSHB[ ]	/* 3 values pushed */
24 32 33
SRP1[ ]	/* SetRefPoint1 */
SRP2[ ]	/* SetRefPoint2 */
IP[ ]	/* InterpolatePts */
PUSHB[ ]	/* 1 value pushed */
24
SRP0[ ]	/* SetRefPoint0 */
PUSHB[ ]	/* 1 value pushed */
2
MDRP[10000]	/* MoveDirectRelPt */
PUSHB[ ]	/* 1 value pushed */
24
SRP0[ ]	/* SetRefPoint0 */
PUSHB[ ]	/* 1 value pushed */
17
MDRP[10000]	/* MoveDirectRelPt */
SVTCA[0]	/* SetFreedomAndProjectionVectorToAxis */
PUSHB[ ]	/* 1 value pushed */
0
RCVT[ ]	/* ReadCVT */
IF[ ]	/* If */
PUSHB[ ]	/* 1 value pushed */
1
MDAP[1]	/* MoveDirectAbsPt */
ELSE[ ]	/* Else */
PUSHB[ ]	/* 2 values pushed */
1 31
MIAP[0]	/* MoveIndirectAbsPt */
EIF[ ]	/* EndIf */
PUSHB[ ]	/* 1 value pushed */
0
RCVT[ ]	/* ReadCVT */
IF[ ]	/* If */
PUSHB[ ]	/* 1 value pushed */
0
MDAP[1]	/* MoveDirectAbsPt */
ELSE[ ]	/* Else */
PUSHB[ ]	/* 2 values pushed */
0 15
MIAP[0]	/* MoveIndirectAbsPt */
EIF[ ]	/* EndIf */
PUSHB[ ]	/* 3 values pushed */
23 0 1
SRP1[ ]	/* SetRefPoint1 */
SRP2[ ]	/* SetRefPoint2 */
IP[ ]	/* InterpolatePts */
PUSHB[ ]	/* 1 value pushed */
23
MDAP[1]	/* MoveDirectAbsPt */
PUSHB[ ]	/* 5 values pushed */
111 23 127 23 2
DELTAP1[ ]	/* DeltaExceptionP1 */
PUSHB[ ]	/* 5 values pushed */
79 23 95 23 2
DELTAP2[ ]	/* DeltaExceptionP2 */
PUSHB[ ]	/* 5 values pushed */
127 23 143 23 2
DELTAP2[ ]	/* DeltaExceptionP2 */
PUSHB[ ]	/* 5 values pushed */
223 23 239 23 2
DELTAP1[ ]	/* DeltaExceptionP1 */
PUSHB[ ]	/* 3 values pushed */
143 23 1
DELTAP3[ ]	/* DeltaExceptionP3 */
PUSHB[ ]	/* 3 values pushed */
188 23 1
DELTAP1[ ]	/* DeltaExceptionP1 */
PUSHB[ ]	/* 2 values pushed */
15 9
PUSHB[ ]	/* 1 value pushed */
10
CALL[ ]	/* CallFunction */
IF[ ]	/* If */
POP[ ]	/* PopTopStack */
MDRP[11000]	/* MoveDirectRelPt */
ELSE[ ]	/* Else */
MIRP[10100]	/* MoveIndirectRelPt */
EIF[ ]	/* EndIf */
PUSHB[ ]	/* 3 values pushed */
8 15 23
SRP1[ ]	/* SetRefPoint1 */
SRP2[ ]	/* SetRefPoint2 */
IP[ ]	/* InterpolatePts */
PUSHB[ ]	/* 1 value pushed */
0
SRP0[ ]	/* SetRefPoint0 */
PUSHB[ ]	/* 2 values pushed */
16 11
PUSHB[ ]	/* 1 value pushed */
10
CALL[ ]	/* CallFunction */
IF[ ]	/* If */
POP[ ]	/* PopTopStack */
MDRP[11000]	/* MoveDirectRelPt */
ELSE[ ]	/* Else */
MIRP[10100]	/* MoveIndirectRelPt */
EIF[ ]	/* EndIf */
PUSHB[ ]	/* 1 value pushed */
1
SRP0[ ]	/* SetRefPoint0 */
PUSHB[ ]	/* 2 values pushed */
30 11
PUSHB[ ]	/* 1 value pushed */
10
CALL[ ]	/* CallFunction */
IF[ ]	/* If */
POP[ ]	/* PopTopStack */
MDRP[11000]	/* MoveDirectRelPt */
ELSE[ ]	/* Else */
MIRP[10100]	/* MoveIndirectRelPt */
EIF[ ]	/* EndIf */
IUP[0]	/* InterpolateUntPts */
IUP[1]	/* InterpolateUntPts */";
};
width = 1191;
},
{
layerId = m002;
shapes = (
{
closed = 1;
nodes = (
(1019,3,o),
(1191,141,o),
(1191,415,cs),
(1191,568,o),
(1111,678,o),
(964,714,c),
(1096,766,o),
(1162,869,o),
(1162,1016,cs),
(1162,1265,o),
(968,1404,o),
(611,1404,cs),
(106,1404,l),
(106,0,l),
(673,0,l)
);
},
{
closed = 1;
nodes = (
(798,595,o),
(856,536,o),
(856,419,cs),
(856,320,o),
(788,260,o),
(664,260,cs),
(443,260,l),
(443,595,l),
(680,595,l)
);
},
{
closed = 1;
nodes = (
(611,1140,ls),
(760,1140,o),
(824,1092,o),
(824,976,cs),
(824,870,o),
(767,817,o),
(619,817,cs),
(443,817,l),
(443,1140,l)
);
}
);
userData = {
assembly = "PUSHB[ ]	/* 3 values pushed */
24 32 33
SRP1[ ]	/* SetRefPoint1 */
SRP2[ ]	/* SetRefPoint2 */
IP[ ]	/* InterpolatePts */
PUSHB[ ]	/* 1 value pushed */
24
SRP0[ ]	/* SetRefPoint0 */
PUSHB[ ]	/* 1 value pushed */
2
MDRP[10000]	/* MoveDirectRelPt */
PUSHB[ ]	/* 1 value pushed */
24
SRP0[ ]	/* SetRefPoint0 */
PUSHB[ ]	/* 1 value pushed */
17
MDRP[10000]	/* MoveDirectRelPt */
SVTCA[0]	/* SetFreedomAndProjectionVectorToAxis */
PUSHB[ ]	/* 1 value pushed */
0
RCVT[ ]	/* ReadCVT */
IF[ ]	/* If */
PUSHB[ ]	/* 1 value pushed */
1
MDAP[1]	/* MoveDirectAbsPt */
ELSE[ ]	/* Else */
PUSHB[ ]	/* 2 values pushed */
1 31
MIAP[0]	/* MoveIndirectAbsPt */
EIF[ ]	/* EndIf */
PUSHB[ ]	/* 1 value pushed */
0
RCVT[ ]	/* ReadCVT */
IF[ ]	/* If */
PUSHB[ ]	/* 1 value pushed */
0
MDAP[1]	/* MoveDirectAbsPt */
ELSE[ ]	/* Else */
PUSHB[ ]	/* 2 values pushed */
0 15
MIAP[0]	/* MoveIndirectAbsPt */
EIF[ ]	/* EndIf */
PUSHB[ ]	/* 3 values pushed */
23 0 1
SRP1[ ]	/* SetRefPoint1 */
SRP2[ ]	/* SetRefPoint2 */
IP[ ]	/* InterpolatePts */
PUSHB[ ]	/* 1 value pushed */
23
MDAP[1]	/* MoveDirectAbsPt */
PUSHB[ ]	/* 5 values pushed */
111 23 127 23 2
DELTAP1[ ]	/* DeltaExceptionP1 */
PUSHB[ ]	/* 5 values pushed */
79 23 95 23 2
DELTAP2[ ]	/* DeltaExceptionP2 */
PUSHB[ ]	/* 5 values pushed */
127 23 143 23 2
DELTAP2[ ]	/* DeltaExceptionP2 */
PUSHB[ ]	/* 5 values pushed */
223 23 239 23 2
DELTAP1[ ]	/* DeltaExceptionP1 */
PUSHB[ ]	/* 3 values pushed */
143 23 1
DELTAP3[ ]	/* DeltaExceptionP3 */
PUSHB[ ]	/* 3 values pushed */
188 23 1
DELTAP1[ ]	/* DeltaExceptionP1 */
PUSHB[ ]	/* 2 values pushed */
15 9
PUSHB[ ]	/* 1 value pushed */
10
CALL[ ]	/* CallFunction */
IF[ ]	/* If */
POP[ ]	/* PopTopStack */
MDRP[11000]	/* MoveDirectRelPt */
ELSE[ ]	/* Else */
MIRP[10100]	/* MoveIndirectRelPt */
EIF[ ]	/* EndIf */
PUSHB[ ]	/* 3 values pushed */
8 15 23
SRP1[ ]	/* SetRefPoint1 */
SRP2[ ]	/* SetRefPoint2 */
IP[ ]	/* InterpolatePts */
PUSHB[ ]	/* 1 value pushed */
0
SRP0[ ]	/* SetRefPoint0 */
PUSHB[ ]	/* 2 values pushed */
16 11
PUSHB[ ]	/* 1 value pushed */
10
CALL[ ]	/* CallFunction */
IF[ ]	/* If */
POP[ ]	/* PopTopStack */
MDRP[11000]	/* MoveDirectRelPt */
ELSE[ ]	/* Else */
MIRP[10100]	/* MoveIndirectRelPt */
EIF[ ]	/* EndIf */
PUSHB[ ]	/* 1 value pushed */
1
SRP0[ ]	/* SetRefPoint0 */
PUSHB[ ]	/* 2 values pushed */
30 11
PUSHB[ ]	/* 1 value pushed */
10
CALL[ ]	/* CallFunction */
IF[ ]	/* If */
POP[ ]	/* PopTopStack */
MDRP[11000]	/* MoveDirectRelPt */
ELSE[ ]	/* Else */
MIRP[10100]	/* MoveIndirectRelPt */
EIF[ ]	/* EndIf */
IUP[0]	/* InterpolateUntPts */
IUP[1]	/* InterpolateUntPts */";
};
width = 1271;
}
);
note = uni0042;
unicode = 66;
},
{
glyphname = C;
kernLeft = C;
kernRight = C;
lastChange = "2024-05-16 19:04:50 +0000";
layers = (
{
layerId = m01;
shapes = (
{
closed = 1;
nodes = (
(1068,165,o),
(915,33,o),
(647,33,cs),
(342,33,o),
(191,298,o),
(191,597,cs),
(191,803,ls),
(191,1149,o),
(374,1371,o),
(647,1371,cs),
(914,1371,o),
(1065,1234,o),
(1095,976,c),
(1147,976,l),
(1120,1263,o),
(940,1423,o),
(647,1423,cs),
(315,1423,o),
(139,1143,o),
(139,807,cs),
(139,590,ls),
(140,254,o),
(319,-19,o),
(647,-19,cs),
(942,-19,o),
(1120,141,o),
(1147,430,c),
(1095,430,l)
);
}
);
userData = {
assembly = "PUSHB[ ]	/* 3 values pushed */
12 30 31
SRP1[ ]	/* SetRefPoint1 */
SRP2[ ]	/* SetRefPoint2 */
IP[ ]	/* InterpolatePts */
SVTCA[0]	/* SetFreedomAndProjectionVectorToAxis */
PUSHB[ ]	/* 1 value pushed */
0
RCVT[ ]	/* ReadCVT */
IF[ ]	/* If */
PUSHB[ ]	/* 1 value pushed */
12
MDAP[1]	/* MoveDirectAbsPt */
ELSE[ ]	/* Else */
PUSHB[ ]	/* 2 values pushed */
12 31
MIAP[0]	/* MoveIndirectAbsPt */
EIF[ ]	/* EndIf */
PUSHB[ ]	/* 1 value pushed */
0
RCVT[ ]	/* ReadCVT */
IF[ ]	/* If */
PUSHB[ ]	/* 1 value pushed */
4
MDAP[1]	/* MoveDirectAbsPt */
ELSE[ ]	/* Else */
PUSHB[ ]	/* 2 values pushed */
4 15
MIAP[0]	/* MoveIndirectAbsPt */
EIF[ ]	/* EndIf */
PUSHB[ ]	/* 3 values pushed */
16 12 4
SRP1[ ]	/* SetRefPoint1 */
SRP2[ ]	/* SetRefPoint2 */
IP[ ]	/* InterpolatePts */
PUSHB[ ]	/* 1 value pushed */
12
SRP0[ ]	/* SetRefPoint0 */
PUSHB[ ]	/* 2 values pushed */
19 11
PUSHB[ ]	/* 1 value pushed */
10
CALL[ ]	/* CallFunction */
IF[ ]	/* If */
POP[ ]	/* PopTopStack */
MDRP[11000]	/* MoveDirectRelPt */
ELSE[ ]	/* Else */
MIRP[10100]	/* MoveIndirectRelPt */
EIF[ ]	/* EndIf */
PUSHB[ ]	/* 1 value pushed */
4
SRP0[ ]	/* SetRefPoint0 */
PUSHB[ ]	/* 2 values pushed */
26 11
PUSHB[ ]	/* 1 value pushed */
10
CALL[ ]	/* CallFunction */
IF[ ]	/* If */
POP[ ]	/* PopTopStack */
MDRP[11000]	/* MoveDirectRelPt */
ELSE[ ]	/* Else */
MIRP[10100]	/* MoveIndirectRelPt */
EIF[ ]	/* EndIf */
PUSHB[ ]	/* 3 values pushed */
29 4 12
SRP1[ ]	/* SetRefPoint1 */
SRP2[ ]	/* SetRefPoint2 */
IP[ ]	/* InterpolatePts */
IUP[0]	/* InterpolateUntPts */
IUP[1]	/* InterpolateUntPts */";
};
width = 1279;
},
{
layerId = m002;
shapes = (
{
closed = 1;
nodes = (
(898,289,o),
(818,221,o),
(662,221,cs),
(478,221,o),
(411,338,o),
(411,638,cs),
(411,737,ls),
(411,1013,o),
(489,1131,o),
(656,1131,cs),
(822,1131,o),
(900,1064,o),
(907,892,c),
(1242,892,l),
(1215,1205,o),
(996,1397,o),
(656,1397,cs),
(294,1397,o),
(67,1131,o),
(67,712,cs),
(67,642,ls),
(67,207,o),
(292,-45,o),
(662,-45,cs),
(992,-45,o),
(1226,143,o),
(1240,449,c),
(905,449,l)
);
}
);
userData = {
assembly = "PUSHB[ ]	/* 3 values pushed */
12 30 31
SRP1[ ]	/* SetRefPoint1 */
SRP2[ ]	/* SetRefPoint2 */
IP[ ]	/* InterpolatePts */
SVTCA[0]	/* SetFreedomAndProjectionVectorToAxis */
PUSHB[ ]	/* 1 value pushed */
0
RCVT[ ]	/* ReadCVT */
IF[ ]	/* If */
PUSHB[ ]	/* 1 value pushed */
12
MDAP[1]	/* MoveDirectAbsPt */
ELSE[ ]	/* Else */
PUSHB[ ]	/* 2 values pushed */
12 31
MIAP[0]	/* MoveIndirectAbsPt */
EIF[ ]	/* EndIf */
PUSHB[ ]	/* 1 value pushed */
0
RCVT[ ]	/* ReadCVT */
IF[ ]	/* If */
PUSHB[ ]	/* 1 value pushed */
4
MDAP[1]	/* MoveDirectAbsPt */
ELSE[ ]	/* Else */
PUSHB[ ]	/* 2 values pushed */
4 15
MIAP[0]	/* MoveIndirectAbsPt */
EIF[ ]	/* EndIf */
PUSHB[ ]	/* 3 values pushed */
16 12 4
SRP1[ ]	/* SetRefPoint1 */
SRP2[ ]	/* SetRefPoint2 */
IP[ ]	/* InterpolatePts */
PUSHB[ ]	/* 1 value pushed */
12
SRP0[ ]	/* SetRefPoint0 */
PUSHB[ ]	/* 2 values pushed */
19 11
PUSHB[ ]	/* 1 value pushed */
10
CALL[ ]	/* CallFunction */
IF[ ]	/* If */
POP[ ]	/* PopTopStack */
MDRP[11000]	/* MoveDirectRelPt */
ELSE[ ]	/* Else */
MIRP[10100]	/* MoveIndirectRelPt */
EIF[ ]	/* EndIf */
PUSHB[ ]	/* 1 value pushed */
4
SRP0[ ]	/* SetRefPoint0 */
PUSHB[ ]	/* 2 values pushed */
26 11
PUSHB[ ]	/* 1 value pushed */
10
CALL[ ]	/* CallFunction */
IF[ ]	/* If */
POP[ ]	/* PopTopStack */
MDRP[11000]	/* MoveDirectRelPt */
ELSE[ ]	/* Else */
MIRP[10100]	/* MoveIndirectRelPt */
EIF[ ]	/* EndIf */
PUSHB[ ]	/* 3 values pushed */
29 4 12
SRP1[ ]	/* SetRefPoint1 */
SRP2[ ]	/* SetRefPoint2 */
IP[ ]	/* InterpolatePts */
IUP[0]	/* InterpolateUntPts */
IUP[1]	/* InterpolateUntPts */";
};
width = 1293;
}
);
note = uni0043;
unicode = 67;
},
{
glyphname = Ccedilla;
kernLeft = C;
kernRight = C;
lastChange = "2024-05-16 19:04:50 +0000";
layers = (
{
layerId = m01;
shapes = (
{
closed = 1;
nodes = (
(1068,165,o),
(915,33,o),
(647,33,cs),
(342,33,o),
(191,298,o),
(191,597,cs),
(191,803,ls),
(191,1149,o),
(374,1371,o),
(647,1371,cs),
(914,1371,o),
(1065,1234,o),
(1095,976,c),
(1147,976,l),
(1120,1263,o),
(940,1423,o),
(647,1423,cs),
(315,1423,o),
(139,1143,o),
(139,807,cs),
(139,590,ls),
(140,254,o),
(319,-19,o),
(647,-19,cs),
(942,-19,o),
(1120,141,o),
(1147,430,c),
(1095,430,l)
);
},
{
closed = 1;
nodes = (
(608,-126,l),
(752,-141,o),
(790,-173,o),
(790,-245,cs),
(790,-325,o),
(692,-381,o),
(562,-381,c),
(569,-428,l),
(740,-428,o),
(843,-354,o),
(843,-245,cs),
(843,-147,o),
(787,-93,o),
(673,-82,c),
(683,-9,l),
(632,-9,l)
);
}
);
width = 1279;
},
{
layerId = m002;
shapes = (
{
closed = 1;
nodes = (
(898,314,o),
(817,241,o),
(662,241,cs),
(479,241,o),
(411,361,o),
(411,660,cs),
(411,759,ls),
(411,1036,o),
(488,1154,o),
(656,1154,cs),
(821,1154,o),
(900,1086,o),
(907,917,c),
(1242,917,l),
(1215,1230,o),
(997,1419,o),
(656,1419,cs),
(292,1419,o),
(67,1154,o),
(67,737,cs),
(67,667,ls),
(67,228,o),
(292,-22,o),
(662,-22,cs),
(1004,-22,o),
(1227,176,o),
(1240,473,c),
(905,473,l)
);
},
{
closed = 1;
nodes = (
(512,-133,l),
(570,-138,o),
(641,-144,o),
(641,-202,cs),
(641,-252,o),
(612,-277,o),
(555,-277,c),
(562,-458,l),
(789,-458,o),
(922,-370,o),
(922,-219,cs),
(922,-126,o),
(875,-69,o),
(778,-52,c),
(787,7,l),
(542,7,l)
);
}
);
width = 1293;
}
);
note = uni00C7;
unicode = 199;
},
{
glyphname = D;
kernRight = D;
lastChange = "2024-05-16 19:04:50 +0000";
layers = (
{
layerId = m01;
shapes = (
{
closed = 1;
nodes = (
(803,1,o),
(989,112,o),
(1087,300,cs),
(1136,394,o),
(1161,499,o),
(1161,616,cs),
(1161,798,ls),
(1156,1147,o),
(916,1404,o),
(581,1404,cs),
(193,1404,l),
(193,0,l),
(586,0,ls)
);
},
{
closed = 1;
nodes = (
(886,1348,o),
(1109,1114,o),
(1109,790,cs),
(1109,610,ls),
(1107,287,o),
(883,52,o),
(581,52,cs),
(245,52,l),
(245,1352,l),
(589,1352,ls)
);
}
);
userData = {
assembly = "SVTCA[0]	/* SetFreedomAndProjectionVectorToAxis */
PUSHB[ ]	/* 1 value pushed */
0
RCVT[ ]	/* ReadCVT */
IF[ ]	/* If */
PUSHB[ ]	/* 1 value pushed */
1
MDAP[1]	/* MoveDirectAbsPt */
ELSE[ ]	/* Else */
PUSHB[ ]	/* 2 values pushed */
1 31
MIAP[0]	/* MoveIndirectAbsPt */
EIF[ ]	/* EndIf */
PUSHB[ ]	/* 1 value pushed */
0
RCVT[ ]	/* ReadCVT */
IF[ ]	/* If */
PUSHB[ ]	/* 1 value pushed */
0
MDAP[1]	/* MoveDirectAbsPt */
ELSE[ ]	/* Else */
PUSHB[ ]	/* 2 values pushed */
0 15
MIAP[0]	/* MoveIndirectAbsPt */
EIF[ ]	/* EndIf */
PUSHB[ ]	/* 1 value pushed */
1
SRP0[ ]	/* SetRefPoint0 */
PUSHB[ ]	/* 2 values pushed */
12 1
PUSHB[ ]	/* 1 value pushed */
10
CALL[ ]	/* CallFunction */
IF[ ]	/* If */
POP[ ]	/* PopTopStack */
MDRP[11000]	/* MoveDirectRelPt */
ELSE[ ]	/* Else */
MIRP[10100]	/* MoveIndirectRelPt */
EIF[ ]	/* EndIf */
PUSHB[ ]	/* 1 value pushed */
0
SRP0[ ]	/* SetRefPoint0 */
PUSHB[ ]	/* 2 values pushed */
13 1
PUSHB[ ]	/* 1 value pushed */
10
CALL[ ]	/* CallFunction */
IF[ ]	/* If */
POP[ ]	/* PopTopStack */
MDRP[11000]	/* MoveDirectRelPt */
ELSE[ ]	/* Else */
MIRP[10100]	/* MoveIndirectRelPt */
EIF[ ]	/* EndIf */
IUP[0]	/* InterpolateUntPts */
IUP[1]	/* InterpolateUntPts */";
};
width = 1292;
},
{
layerId = m002;
shapes = (
{
closed = 1;
nodes = (
(808,0,o),
(1018,123,o),
(1127,326,cs),
(1181,427,o),
(1207,542,o),
(1207,671,cs),
(1207,737,ls),
(1203,1115,o),
(947,1404,o),
(557,1404,cs),
(106,1404,l),
(106,0,l),
(568,0,l)
);
},
{
closed = 1;
nodes = (
(757,1140,o),
(863,1002,o),
(863,733,cs),
(863,671,ls),
(863,398,o),
(756,260,o),
(561,260,cs),
(444,260,l),
(444,1140,l),
(557,1140,l)
);
}
);
userData = {
assembly = "SVTCA[0]	/* SetFreedomAndProjectionVectorToAxis */
PUSHB[ ]	/* 1 value pushed */
0
RCVT[ ]	/* ReadCVT */
IF[ ]	/* If */
PUSHB[ ]	/* 1 value pushed */
1
MDAP[1]	/* MoveDirectAbsPt */
ELSE[ ]	/* Else */
PUSHB[ ]	/* 2 values pushed */
1 31
MIAP[0]	/* MoveIndirectAbsPt */
EIF[ ]	/* EndIf */
PUSHB[ ]	/* 1 value pushed */
0
RCVT[ ]	/* ReadCVT */
IF[ ]	/* If */
PUSHB[ ]	/* 1 value pushed */
0
MDAP[1]	/* MoveDirectAbsPt */
ELSE[ ]	/* Else */
PUSHB[ ]	/* 2 values pushed */
0 15
MIAP[0]	/* MoveIndirectAbsPt */
EIF[ ]	/* EndIf */
PUSHB[ ]	/* 1 value pushed */
1
SRP0[ ]	/* SetRefPoint0 */
PUSHB[ ]	/* 2 values pushed */
12 1
PUSHB[ ]	/* 1 value pushed */
10
CALL[ ]	/* CallFunction */
IF[ ]	/* If */
POP[ ]	/* PopTopStack */
MDRP[11000]	/* MoveDirectRelPt */
ELSE[ ]	/* Else */
MIRP[10100]	/* MoveIndirectRelPt */
EIF[ ]	/* EndIf */
PUSHB[ ]	/* 1 value pushed */
0
SRP0[ ]	/* SetRefPoint0 */
PUSHB[ ]	/* 2 values pushed */
13 1
PUSHB[ ]	/* 1 value pushed */
10
CALL[ ]	/* CallFunction */
IF[ ]	/* If */
POP[ ]	/* PopTopStack */
MDRP[11000]	/* MoveDirectRelPt */
ELSE[ ]	/* Else */
MIRP[10100]	/* MoveIndirectRelPt */
EIF[ ]	/* EndIf */
IUP[0]	/* InterpolateUntPts */
IUP[1]	/* InterpolateUntPts */";
};
width = 1274;
}
);
note = uni0044;
unicode = 68;
},
{
glyphname = Eth;
kernRight = D;
lastChange = "2024-05-16 19:04:50 +0000";
layers = (
{
layerId = m01;
shapes = (
{
closed = 1;
nodes = (
(833,1,o),
(1018,112,o),
(1116,300,cs),
(1166,394,o),
(1190,499,o),
(1190,616,cs),
(1190,798,ls),
(1187,1143,o),
(948,1404,o),
(611,1404,cs),
(222,1404,l),
(222,739,l),
(58,739,l),
(58,687,l),
(222,687,l),
(222,0,l),
(616,0,ls)
);
},
{
closed = 1;
nodes = (
(274,739,l),
(274,1352,l),
(619,1352,ls),
(916,1348,o),
(1138,1114,o),
(1138,790,cs),
(1138,624,ls),
(1138,288,o),
(919,52,o),
(601,52,cs),
(274,52,l),
(274,687,l),
(624,687,l),
(624,739,l)
);
}
);
userData = {
assembly = "SVTCA[0]	/* SetFreedomAndProjectionVectorToAxis */
PUSHB[ ]	/* 1 value pushed */
0
RCVT[ ]	/* ReadCVT */
IF[ ]	/* If */
PUSHB[ ]	/* 1 value pushed */
5
MDAP[1]	/* MoveDirectAbsPt */
ELSE[ ]	/* Else */
PUSHB[ ]	/* 2 values pushed */
5 31
MIAP[0]	/* MoveIndirectAbsPt */
EIF[ ]	/* EndIf */
PUSHB[ ]	/* 1 value pushed */
0
RCVT[ ]	/* ReadCVT */
IF[ ]	/* If */
PUSHB[ ]	/* 1 value pushed */
0
MDAP[1]	/* MoveDirectAbsPt */
ELSE[ ]	/* Else */
PUSHB[ ]	/* 2 values pushed */
0 15
MIAP[0]	/* MoveIndirectAbsPt */
EIF[ ]	/* EndIf */
PUSHB[ ]	/* 3 values pushed */
4 0 5
SRP1[ ]	/* SetRefPoint1 */
SRP2[ ]	/* SetRefPoint2 */
IP[ ]	/* InterpolatePts */
PUSHB[ ]	/* 1 value pushed */
4
MDAP[1]	/* MoveDirectAbsPt */
PUSHB[ ]	/* 5 values pushed */
15 4 31 4 2
DELTAP2[ ]	/* DeltaExceptionP2 */
PUSHB[ ]	/* 3 values pushed */
111 4 1
DELTAP2[ ]	/* DeltaExceptionP2 */
PUSHB[ ]	/* 3 values pushed */
15 4 1
DELTAP3[ ]	/* DeltaExceptionP3 */
PUSHB[ ]	/* 3 values pushed */
63 4 1
DELTAP2[ ]	/* DeltaExceptionP2 */
PUSHB[ ]	/* 3 values pushed */
159 4 1
DELTAP1[ ]	/* DeltaExceptionP1 */
PUSHB[ ]	/* 3 values pushed */
127 4 1
DELTAP3[ ]	/* DeltaExceptionP3 */
PUSHB[ ]	/* 2 values pushed */
1 12
PUSHB[ ]	/* 1 value pushed */
10
CALL[ ]	/* CallFunction */
IF[ ]	/* If */
POP[ ]	/* PopTopStack */
MDRP[11000]	/* MoveDirectRelPt */
ELSE[ ]	/* Else */
MIRP[10100]	/* MoveIndirectRelPt */
EIF[ ]	/* EndIf */
PUSHB[ ]	/* 1 value pushed */
17
MDRP[10000]	/* MoveDirectRelPt */
PUSHB[ ]	/* 1 value pushed */
0
SRP0[ ]	/* SetRefPoint0 */
PUSHB[ ]	/* 2 values pushed */
18 1
PUSHB[ ]	/* 1 value pushed */
10
CALL[ ]	/* CallFunction */
IF[ ]	/* If */
POP[ ]	/* PopTopStack */
MDRP[11000]	/* MoveDirectRelPt */
ELSE[ ]	/* Else */
MIRP[10100]	/* MoveIndirectRelPt */
EIF[ ]	/* EndIf */
PUSHB[ ]	/* 1 value pushed */
5
SRP0[ ]	/* SetRefPoint0 */
PUSHB[ ]	/* 2 values pushed */
27 1
PUSHB[ ]	/* 1 value pushed */
10
CALL[ ]	/* CallFunction */
IF[ ]	/* If */
POP[ ]	/* PopTopStack */
MDRP[11000]	/* MoveDirectRelPt */
ELSE[ ]	/* Else */
MIRP[10100]	/* MoveIndirectRelPt */
EIF[ ]	/* EndIf */
PUSHB[ ]	/* 1 value pushed */
4
SRP0[ ]	/* SetRefPoint0 */
PUSHB[ ]	/* 1 value pushed */
28
MDRP[10000]	/* MoveDirectRelPt */
IUP[0]	/* InterpolateUntPts */
IUP[1]	/* InterpolateUntPts */";
};
width = 1321;
},
{
layerId = m002;
shapes = (
{
closed = 1;
nodes = (
(838,0,o),
(1045,123,o),
(1155,326,cs),
(1210,427,o),
(1238,542,o),
(1238,671,cs),
(1238,737,ls),
(1233,1128,o),
(965,1404,o),
(586,1404,cs),
(135,1404,l),
(135,795,l),
(-29,795,l),
(-29,611,l),
(135,611,l),
(135,0,l),
(595,0,l)
);
},
{
closed = 1;
nodes = (
(474,795,l),
(474,1140,l),
(586,1140,ls),
(784,1140,o),
(891,1002,o),
(891,733,cs),
(891,671,ls),
(891,398,o),
(783,260,o),
(591,260,cs),
(474,260,l),
(474,611,l),
(674,611,l),
(674,795,l)
);
}
);
userData = {
assembly = "SVTCA[0]	/* SetFreedomAndProjectionVectorToAxis */
PUSHB[ ]	/* 1 value pushed */
0
RCVT[ ]	/* ReadCVT */
IF[ ]	/* If */
PUSHB[ ]	/* 1 value pushed */
5
MDAP[1]	/* MoveDirectAbsPt */
ELSE[ ]	/* Else */
PUSHB[ ]	/* 2 values pushed */
5 31
MIAP[0]	/* MoveIndirectAbsPt */
EIF[ ]	/* EndIf */
PUSHB[ ]	/* 1 value pushed */
0
RCVT[ ]	/* ReadCVT */
IF[ ]	/* If */
PUSHB[ ]	/* 1 value pushed */
0
MDAP[1]	/* MoveDirectAbsPt */
ELSE[ ]	/* Else */
PUSHB[ ]	/* 2 values pushed */
0 15
MIAP[0]	/* MoveIndirectAbsPt */
EIF[ ]	/* EndIf */
PUSHB[ ]	/* 3 values pushed */
4 0 5
SRP1[ ]	/* SetRefPoint1 */
SRP2[ ]	/* SetRefPoint2 */
IP[ ]	/* InterpolatePts */
PUSHB[ ]	/* 1 value pushed */
4
MDAP[1]	/* MoveDirectAbsPt */
PUSHB[ ]	/* 5 values pushed */
15 4 31 4 2
DELTAP2[ ]	/* DeltaExceptionP2 */
PUSHB[ ]	/* 3 values pushed */
111 4 1
DELTAP2[ ]	/* DeltaExceptionP2 */
PUSHB[ ]	/* 3 values pushed */
15 4 1
DELTAP3[ ]	/* DeltaExceptionP3 */
PUSHB[ ]	/* 3 values pushed */
63 4 1
DELTAP2[ ]	/* DeltaExceptionP2 */
PUSHB[ ]	/* 3 values pushed */
159 4 1
DELTAP1[ ]	/* DeltaExceptionP1 */
PUSHB[ ]	/* 3 values pushed */
127 4 1
DELTAP3[ ]	/* DeltaExceptionP3 */
PUSHB[ ]	/* 2 values pushed */
1 12
PUSHB[ ]	/* 1 value pushed */
10
CALL[ ]	/* CallFunction */
IF[ ]	/* If */
POP[ ]	/* PopTopStack */
MDRP[11000]	/* MoveDirectRelPt */
ELSE[ ]	/* Else */
MIRP[10100]	/* MoveIndirectRelPt */
EIF[ ]	/* EndIf */
PUSHB[ ]	/* 1 value pushed */
17
MDRP[10000]	/* MoveDirectRelPt */
PUSHB[ ]	/* 1 value pushed */
0
SRP0[ ]	/* SetRefPoint0 */
PUSHB[ ]	/* 2 values pushed */
18 1
PUSHB[ ]	/* 1 value pushed */
10
CALL[ ]	/* CallFunction */
IF[ ]	/* If */
POP[ ]	/* PopTopStack */
MDRP[11000]	/* MoveDirectRelPt */
ELSE[ ]	/* Else */
MIRP[10100]	/* MoveIndirectRelPt */
EIF[ ]	/* EndIf */
PUSHB[ ]	/* 1 value pushed */
5
SRP0[ ]	/* SetRefPoint0 */
PUSHB[ ]	/* 2 values pushed */
27 1
PUSHB[ ]	/* 1 value pushed */
10
CALL[ ]	/* CallFunction */
IF[ ]	/* If */
POP[ ]	/* PopTopStack */
MDRP[11000]	/* MoveDirectRelPt */
ELSE[ ]	/* Else */
MIRP[10100]	/* MoveIndirectRelPt */
EIF[ ]	/* EndIf */
PUSHB[ ]	/* 1 value pushed */
4
SRP0[ ]	/* SetRefPoint0 */
PUSHB[ ]	/* 1 value pushed */
28
MDRP[10000]	/* MoveDirectRelPt */
IUP[0]	/* InterpolateUntPts */
IUP[1]	/* InterpolateUntPts */";
};
width = 1305;
}
);
note = uni00D0;
unicode = 208;
},
{
glyphname = E;
kernRight = E;
lastChange = "2024-05-16 19:04:50 +0000";
layers = (
{
layerId = m01;
shapes = (
{
closed = 1;
nodes = (
(245,748,l),
(245,1352,l),
(1047,1352,l),
(1047,1404,l),
(193,1404,l),
(193,0,l),
(1047,0,l),
(1047,52,l),
(245,52,l),
(245,696,l),
(949,696,l),
(949,748,l)
);
}
);
userData = {
assembly = "SVTCA[0]	/* SetFreedomAndProjectionVectorToAxis */
PUSHB[ ]	/* 1 value pushed */
0
RCVT[ ]	/* ReadCVT */
IF[ ]	/* If */
PUSHB[ ]	/* 1 value pushed */
6
MDAP[1]	/* MoveDirectAbsPt */
ELSE[ ]	/* Else */
PUSHB[ ]	/* 2 values pushed */
6 31
MIAP[0]	/* MoveIndirectAbsPt */
EIF[ ]	/* EndIf */
PUSHB[ ]	/* 1 value pushed */
0
RCVT[ ]	/* ReadCVT */
IF[ ]	/* If */
PUSHB[ ]	/* 1 value pushed */
4
MDAP[1]	/* MoveDirectAbsPt */
ELSE[ ]	/* Else */
PUSHB[ ]	/* 2 values pushed */
4 15
MIAP[0]	/* MoveIndirectAbsPt */
EIF[ ]	/* EndIf */
PUSHB[ ]	/* 3 values pushed */
11 4 6
SRP1[ ]	/* SetRefPoint1 */
SRP2[ ]	/* SetRefPoint2 */
IP[ ]	/* InterpolatePts */
PUSHB[ ]	/* 1 value pushed */
11
MDAP[1]	/* MoveDirectAbsPt */
PUSHB[ ]	/* 3 values pushed */
79 11 1
DELTAP3[ ]	/* DeltaExceptionP3 */
PUSHB[ ]	/* 3 values pushed */
191 11 1
DELTAP1[ ]	/* DeltaExceptionP1 */
PUSHB[ ]	/* 2 values pushed */
0 1
PUSHB[ ]	/* 1 value pushed */
10
CALL[ ]	/* CallFunction */
IF[ ]	/* If */
POP[ ]	/* PopTopStack */
MDRP[11000]	/* MoveDirectRelPt */
ELSE[ ]	/* Else */
MIRP[10100]	/* MoveIndirectRelPt */
EIF[ ]	/* EndIf */
PUSHB[ ]	/* 1 value pushed */
4
SRP0[ ]	/* SetRefPoint0 */
PUSHB[ ]	/* 2 values pushed */
2 1
PUSHB[ ]	/* 1 value pushed */
10
CALL[ ]	/* CallFunction */
IF[ ]	/* If */
POP[ ]	/* PopTopStack */
MDRP[11000]	/* MoveDirectRelPt */
ELSE[ ]	/* Else */
MIRP[10100]	/* MoveIndirectRelPt */
EIF[ ]	/* EndIf */
PUSHB[ ]	/* 1 value pushed */
6
SRP0[ ]	/* SetRefPoint0 */
PUSHB[ ]	/* 2 values pushed */
8 1
PUSHB[ ]	/* 1 value pushed */
10
CALL[ ]	/* CallFunction */
IF[ ]	/* If */
POP[ ]	/* PopTopStack */
MDRP[11000]	/* MoveDirectRelPt */
ELSE[ ]	/* Else */
MIRP[10100]	/* MoveIndirectRelPt */
EIF[ ]	/* EndIf */
IUP[0]	/* InterpolateUntPts */
IUP[1]	/* InterpolateUntPts */";
};
width = 1124;
},
{
layerId = m002;
shapes = (
{
closed = 1;
nodes = (
(444,845,l),
(444,1140,l),
(1073,1140,l),
(1073,1404,l),
(106,1404,l),
(106,0,l),
(1070,0,l),
(1070,260,l),
(444,260,l),
(444,595,l),
(975,595,l),
(975,845,l)
);
}
);
userData = {
assembly = "SVTCA[0]	/* SetFreedomAndProjectionVectorToAxis */
PUSHB[ ]	/* 1 value pushed */
0
RCVT[ ]	/* ReadCVT */
IF[ ]	/* If */
PUSHB[ ]	/* 1 value pushed */
6
MDAP[1]	/* MoveDirectAbsPt */
ELSE[ ]	/* Else */
PUSHB[ ]	/* 2 values pushed */
6 31
MIAP[0]	/* MoveIndirectAbsPt */
EIF[ ]	/* EndIf */
PUSHB[ ]	/* 1 value pushed */
0
RCVT[ ]	/* ReadCVT */
IF[ ]	/* If */
PUSHB[ ]	/* 1 value pushed */
4
MDAP[1]	/* MoveDirectAbsPt */
ELSE[ ]	/* Else */
PUSHB[ ]	/* 2 values pushed */
4 15
MIAP[0]	/* MoveIndirectAbsPt */
EIF[ ]	/* EndIf */
PUSHB[ ]	/* 3 values pushed */
11 4 6
SRP1[ ]	/* SetRefPoint1 */
SRP2[ ]	/* SetRefPoint2 */
IP[ ]	/* InterpolatePts */
PUSHB[ ]	/* 1 value pushed */
11
MDAP[1]	/* MoveDirectAbsPt */
PUSHB[ ]	/* 3 values pushed */
79 11 1
DELTAP3[ ]	/* DeltaExceptionP3 */
PUSHB[ ]	/* 3 values pushed */
191 11 1
DELTAP1[ ]	/* DeltaExceptionP1 */
PUSHB[ ]	/* 2 values pushed */
0 1
PUSHB[ ]	/* 1 value pushed */
10
CALL[ ]	/* CallFunction */
IF[ ]	/* If */
POP[ ]	/* PopTopStack */
MDRP[11000]	/* MoveDirectRelPt */
ELSE[ ]	/* Else */
MIRP[10100]	/* MoveIndirectRelPt */
EIF[ ]	/* EndIf */
PUSHB[ ]	/* 1 value pushed */
4
SRP0[ ]	/* SetRefPoint0 */
PUSHB[ ]	/* 2 values pushed */
2 1
PUSHB[ ]	/* 1 value pushed */
10
CALL[ ]	/* CallFunction */
IF[ ]	/* If */
POP[ ]	/* PopTopStack */
MDRP[11000]	/* MoveDirectRelPt */
ELSE[ ]	/* Else */
MIRP[10100]	/* MoveIndirectRelPt */
EIF[ ]	/* EndIf */
PUSHB[ ]	/* 1 value pushed */
6
SRP0[ ]	/* SetRefPoint0 */
PUSHB[ ]	/* 2 values pushed */
8 1
PUSHB[ ]	/* 1 value pushed */
10
CALL[ ]	/* CallFunction */
IF[ ]	/* If */
POP[ ]	/* PopTopStack */
MDRP[11000]	/* MoveDirectRelPt */
ELSE[ ]	/* Else */
MIRP[10100]	/* MoveIndirectRelPt */
EIF[ ]	/* EndIf */
IUP[0]	/* InterpolateUntPts */
IUP[1]	/* InterpolateUntPts */";
};
width = 1103;
}
);
note = uni0045;
unicode = 69;
},
{
glyphname = Eacute;
kernRight = E;
lastChange = "2024-05-16 19:04:50 +0000";
layers = (
{
layerId = m01;
shapes = (
{
closed = 1;
nodes = (
(245,748,l),
(245,1352,l),
(1047,1352,l),
(1047,1404,l),
(193,1404,l),
(193,0,l),
(1047,0,l),
(1047,52,l),
(245,52,l),
(245,696,l),
(949,696,l),
(949,748,l)
);
},
{
closed = 1;
nodes = (
(621,1543,l),
(808,1800,l),
(745,1800,l),
(563,1543,l)
);
}
);
width = 1124;
},
{
layerId = m002;
shapes = (
{
closed = 1;
nodes = (
(444,845,l),
(444,1140,l),
(1073,1140,l),
(1073,1404,l),
(106,1404,l),
(106,0,l),
(1070,0,l),
(1070,260,l),
(444,260,l),
(444,595,l),
(975,595,l),
(975,845,l)
);
},
{
closed = 1;
nodes = (
(734,1475,l),
(1003,1778,l),
(661,1778,l),
(471,1475,l)
);
}
);
width = 1103;
}
);
note = uni00C9;
unicode = 201;
},
{
glyphname = Ecircumflex;
kernRight = E;
lastChange = "2024-05-16 19:04:50 +0000";
layers = (
{
layerId = m01;
shapes = (
{
closed = 1;
nodes = (
(245,748,l),
(245,1352,l),
(1047,1352,l),
(1047,1404,l),
(193,1404,l),
(193,0,l),
(1047,0,l),
(1047,52,l),
(245,52,l),
(245,696,l),
(949,696,l),
(949,748,l)
);
},
{
closed = 1;
nodes = (
(579,1781,l),
(357,1551,l),
(357,1537,l),
(419,1537,l),
(597,1726,l),
(777,1537,l),
(843,1537,l),
(843,1547,l),
(617,1781,l)
);
}
);
width = 1124;
},
{
layerId = m002;
shapes = (
{
closed = 1;
nodes = (
(444,845,l),
(444,1140,l),
(1073,1140,l),
(1073,1404,l),
(106,1404,l),
(106,0,l),
(1070,0,l),
(1070,260,l),
(444,260,l),
(444,595,l),
(975,595,l),
(975,845,l)
);
},
{
closed = 1;
nodes = (
(525,1778,l),
(216,1511,l),
(216,1494,l),
(467,1494,l),
(620,1625,l),
(773,1494,l),
(1028,1494,l),
(1028,1507,l),
(714,1778,l)
);
}
);
width = 1103;
}
);
note = uni00CA;
unicode = 202;
},
{
glyphname = Edieresis;
kernRight = E;
lastChange = "2024-05-16 19:04:50 +0000";
layers = (
{
layerId = m01;
shapes = (
{
closed = 1;
nodes = (
(245,748,l),
(245,1352,l),
(1047,1352,l),
(1047,1404,l),
(193,1404,l),
(193,0,l),
(1047,0,l),
(1047,52,l),
(245,52,l),
(245,696,l),
(949,696,l),
(949,748,l)
);
},
{
closed = 1;
nodes = (
(332,1659,o),
(356,1636,o),
(385,1636,cs),
(415,1636,o),
(439,1659,o),
(439,1689,cs),
(439,1718,o),
(415,1743,o),
(385,1743,cs),
(356,1743,o),
(332,1718,o),
(332,1689,cs)
);
},
{
closed = 1;
nodes = (
(761,1659,o),
(784,1636,o),
(814,1636,cs),
(844,1636,o),
(868,1659,o),
(868,1689,cs),
(868,1718,o),
(844,1743,o),
(814,1743,cs),
(784,1743,o),
(761,1718,o),
(761,1689,cs)
);
}
);
width = 1124;
},
{
layerId = m002;
shapes = (
{
closed = 1;
nodes = (
(444,845,l),
(444,1140,l),
(1073,1140,l),
(1073,1404,l),
(106,1404,l),
(106,0,l),
(1070,0,l),
(1070,260,l),
(444,260,l),
(444,595,l),
(975,595,l),
(975,845,l)
);
},
{
closed = 1;
nodes = (
(223,1544,o),
(285,1485,o),
(369,1485,cs),
(452,1485,o),
(514,1543,o),
(514,1614,cs),
(514,1685,o),
(452,1739,o),
(369,1739,cs),
(285,1739,o),
(223,1685,o),
(223,1613,cs)
);
},
{
closed = 1;
nodes = (
(723,1544,o),
(784,1485,o),
(867,1485,cs),
(952,1485,o),
(1011,1543,o),
(1011,1614,cs),
(1011,1685,o),
(952,1739,o),
(867,1739,cs),
(784,1739,o),
(723,1685,o),
(723,1613,cs)
);
}
);
width = 1103;
}
);
note = uni00CB;
unicode = 203;
},
{
glyphname = Egrave;
kernRight = E;
lastChange = "2024-05-16 19:04:50 +0000";
layers = (
{
layerId = m01;
shapes = (
{
closed = 1;
nodes = (
(245,748,l),
(245,1352,l),
(1047,1352,l),
(1047,1404,l),
(193,1404,l),
(193,0,l),
(1047,0,l),
(1047,52,l),
(245,52,l),
(245,696,l),
(949,696,l),
(949,748,l)
);
},
{
closed = 1;
nodes = (
(391,1800,l),
(579,1543,l),
(636,1543,l),
(455,1800,l)
);
}
);
width = 1124;
},
{
layerId = m002;
shapes = (
{
closed = 1;
nodes = (
(444,845,l),
(444,1140,l),
(1073,1140,l),
(1073,1404,l),
(106,1404,l),
(106,0,l),
(1070,0,l),
(1070,260,l),
(444,260,l),
(444,595,l),
(975,595,l),
(975,845,l)
);
},
{
closed = 1;
nodes = (
(239,1778,l),
(510,1475,l),
(775,1475,l),
(584,1778,l)
);
}
);
width = 1103;
}
);
note = uni00C8;
unicode = 200;
},
{
glyphname = F;
lastChange = "2024-05-16 19:04:50 +0000";
layers = (
{
layerId = m01;
shapes = (
{
closed = 1;
nodes = (
(245,744,l),
(245,1352,l),
(1062,1352,l),
(1062,1404,l),
(193,1404,l),
(193,0,l),
(245,0,l),
(245,690,l),
(964,690,l),
(964,744,l)
);
}
);
userData = {
assembly = "SVTCA[0]	/* SetFreedomAndProjectionVectorToAxis */
PUSHB[ ]	/* 1 value pushed */
0
RCVT[ ]	/* ReadCVT */
IF[ ]	/* If */
PUSHB[ ]	/* 1 value pushed */
4
MDAP[1]	/* MoveDirectAbsPt */
ELSE[ ]	/* Else */
PUSHB[ ]	/* 2 values pushed */
4 31
MIAP[0]	/* MoveIndirectAbsPt */
EIF[ ]	/* EndIf */
PUSHB[ ]	/* 1 value pushed */
0
RCVT[ ]	/* ReadCVT */
IF[ ]	/* If */
PUSHB[ ]	/* 1 value pushed */
2
MDAP[1]	/* MoveDirectAbsPt */
ELSE[ ]	/* Else */
PUSHB[ ]	/* 2 values pushed */
2 15
MIAP[0]	/* MoveIndirectAbsPt */
EIF[ ]	/* EndIf */
PUSHB[ ]	/* 3 values pushed */
9 2 4
SRP1[ ]	/* SetRefPoint1 */
SRP2[ ]	/* SetRefPoint2 */
IP[ ]	/* InterpolatePts */
PUSHB[ ]	/* 1 value pushed */
9
MDAP[1]	/* MoveDirectAbsPt */
PUSHB[ ]	/* 2 values pushed */
0 1
PUSHB[ ]	/* 1 value pushed */
10
CALL[ ]	/* CallFunction */
IF[ ]	/* If */
POP[ ]	/* PopTopStack */
MDRP[11000]	/* MoveDirectRelPt */
ELSE[ ]	/* Else */
MIRP[10100]	/* MoveIndirectRelPt */
EIF[ ]	/* EndIf */
PUSHB[ ]	/* 1 value pushed */
4
SRP0[ ]	/* SetRefPoint0 */
PUSHB[ ]	/* 2 values pushed */
6 1
PUSHB[ ]	/* 1 value pushed */
10
CALL[ ]	/* CallFunction */
IF[ ]	/* If */
POP[ ]	/* PopTopStack */
MDRP[11000]	/* MoveDirectRelPt */
ELSE[ ]	/* Else */
MIRP[10100]	/* MoveIndirectRelPt */
EIF[ ]	/* EndIf */
IUP[0]	/* InterpolateUntPts */
IUP[1]	/* InterpolateUntPts */";
};
width = 1129;
},
{
layerId = m002;
shapes = (
{
closed = 1;
nodes = (
(444,817,l),
(444,1140,l),
(1044,1140,l),
(1044,1404,l),
(106,1404,l),
(106,0,l),
(444,0,l),
(444,559,l),
(990,559,l),
(990,817,l)
);
}
);
userData = {
assembly = "SVTCA[0]	/* SetFreedomAndProjectionVectorToAxis */
PUSHB[ ]	/* 1 value pushed */
0
RCVT[ ]	/* ReadCVT */
IF[ ]	/* If */
PUSHB[ ]	/* 1 value pushed */
4
MDAP[1]	/* MoveDirectAbsPt */
ELSE[ ]	/* Else */
PUSHB[ ]	/* 2 values pushed */
4 31
MIAP[0]	/* MoveIndirectAbsPt */
EIF[ ]	/* EndIf */
PUSHB[ ]	/* 1 value pushed */
0
RCVT[ ]	/* ReadCVT */
IF[ ]	/* If */
PUSHB[ ]	/* 1 value pushed */
2
MDAP[1]	/* MoveDirectAbsPt */
ELSE[ ]	/* Else */
PUSHB[ ]	/* 2 values pushed */
2 15
MIAP[0]	/* MoveIndirectAbsPt */
EIF[ ]	/* EndIf */
PUSHB[ ]	/* 3 values pushed */
9 2 4
SRP1[ ]	/* SetRefPoint1 */
SRP2[ ]	/* SetRefPoint2 */
IP[ ]	/* InterpolatePts */
PUSHB[ ]	/* 1 value pushed */
9
MDAP[1]	/* MoveDirectAbsPt */
PUSHB[ ]	/* 2 values pushed */
0 1
PUSHB[ ]	/* 1 value pushed */
10
CALL[ ]	/* CallFunction */
IF[ ]	/* If */
POP[ ]	/* PopTopStack */
MDRP[11000]	/* MoveDirectRelPt */
ELSE[ ]	/* Else */
MIRP[10100]	/* MoveIndirectRelPt */
EIF[ ]	/* EndIf */
PUSHB[ ]	/* 1 value pushed */
4
SRP0[ ]	/* SetRefPoint0 */
PUSHB[ ]	/* 2 values pushed */
6 1
PUSHB[ ]	/* 1 value pushed */
10
CALL[ ]	/* CallFunction */
IF[ ]	/* If */
POP[ ]	/* PopTopStack */
MDRP[11000]	/* MoveDirectRelPt */
ELSE[ ]	/* Else */
MIRP[10100]	/* MoveIndirectRelPt */
EIF[ ]	/* EndIf */
IUP[0]	/* InterpolateUntPts */
IUP[1]	/* InterpolateUntPts */";
};
width = 1079;
}
);
note = uni0046;
unicode = 70;
},
{
glyphname = G;
kernLeft = C;
lastChange = "2024-05-16 19:04:50 +0000";
layers = (
{
layerId = m01;
shapes = (
{
closed = 1;
nodes = (
(701,636,l),
(701,583,l),
(1130,583,l),
(1130,174,l),
(1070,96,o),
(891,33,o),
(703,33,cs),
(393,33,o),
(214,286,o),
(214,598,cs),
(214,821,ls),
(214,1150,o),
(404,1371,o),
(687,1371,cs),
(937,1371,o),
(1093,1247,o),
(1128,1024,c),
(1180,1024,l),
(1152,1271,o),
(966,1423,o),
(687,1423,cs),
(378,1423,o),
(162,1180,o),
(162,827,cs),
(162,586,ls),
(166,249,o),
(367,-19,o),
(703,-19,cs),
(916,-19,o),
(1111,53,o),
(1182,150,c),
(1182,636,l)
);
}
);
userData = {
assembly = "PUSHB[ ]	/* 3 values pushed */
11 32 33
SRP1[ ]	/* SetRefPoint1 */
SRP2[ ]	/* SetRefPoint2 */
IP[ ]	/* InterpolatePts */
SVTCA[0]	/* SetFreedomAndProjectionVectorToAxis */
PUSHB[ ]	/* 1 value pushed */
0
RCVT[ ]	/* ReadCVT */
IF[ ]	/* If */
PUSHB[ ]	/* 1 value pushed */
11
MDAP[1]	/* MoveDirectAbsPt */
ELSE[ ]	/* Else */
PUSHB[ ]	/* 2 values pushed */
11 31
MIAP[0]	/* MoveIndirectAbsPt */
EIF[ ]	/* EndIf */
PUSHB[ ]	/* 1 value pushed */
0
RCVT[ ]	/* ReadCVT */
IF[ ]	/* If */
PUSHB[ ]	/* 1 value pushed */
3
MDAP[1]	/* MoveDirectAbsPt */
ELSE[ ]	/* Else */
PUSHB[ ]	/* 2 values pushed */
3 15
MIAP[0]	/* MoveIndirectAbsPt */
EIF[ ]	/* EndIf */
PUSHB[ ]	/* 3 values pushed */
15 11 3
SRP1[ ]	/* SetRefPoint1 */
SRP2[ ]	/* SetRefPoint2 */
IP[ ]	/* InterpolatePts */
PUSHB[ ]	/* 1 value pushed */
11
SRP0[ ]	/* SetRefPoint0 */
PUSHB[ ]	/* 2 values pushed */
18 11
PUSHB[ ]	/* 1 value pushed */
10
CALL[ ]	/* CallFunction */
IF[ ]	/* If */
POP[ ]	/* PopTopStack */
MDRP[11000]	/* MoveDirectRelPt */
ELSE[ ]	/* Else */
MIRP[10100]	/* MoveIndirectRelPt */
EIF[ ]	/* EndIf */
PUSHB[ ]	/* 1 value pushed */
3
SRP0[ ]	/* SetRefPoint0 */
PUSHB[ ]	/* 2 values pushed */
25 11
PUSHB[ ]	/* 1 value pushed */
10
CALL[ ]	/* CallFunction */
IF[ ]	/* If */
POP[ ]	/* PopTopStack */
MDRP[11000]	/* MoveDirectRelPt */
ELSE[ ]	/* Else */
MIRP[10100]	/* MoveIndirectRelPt */
EIF[ ]	/* EndIf */
PUSHB[ ]	/* 3 values pushed */
30 11 3
SRP1[ ]	/* SetRefPoint1 */
SRP2[ ]	/* SetRefPoint2 */
IP[ ]	/* InterpolatePts */
PUSHB[ ]	/* 1 value pushed */
30
MDAP[1]	/* MoveDirectAbsPt */
PUSHB[ ]	/* 3 values pushed */
191 30 1
DELTAP1[ ]	/* DeltaExceptionP1 */
PUSHB[ ]	/* 2 values pushed */
29 9
PUSHB[ ]	/* 1 value pushed */
10
CALL[ ]	/* CallFunction */
IF[ ]	/* If */
POP[ ]	/* PopTopStack */
MDRP[11000]	/* MoveDirectRelPt */
ELSE[ ]	/* Else */
MIRP[10100]	/* MoveIndirectRelPt */
EIF[ ]	/* EndIf */
IUP[0]	/* InterpolateUntPts */
IUP[1]	/* InterpolateUntPts */";
};
width = 1356;
},
{
layerId = m002;
shapes = (
{
closed = 1;
nodes = (
(680,723,l),
(680,491,l),
(915,491,l),
(915,273,l),
(871,233,o),
(806,215,o),
(719,215,cs),
(514,215,o),
(423,355,o),
(423,638,cs),
(423,721,ls),
(423,986,o),
(518,1137,o),
(689,1137,cs),
(828,1137,o),
(901,1076,o),
(926,917,c),
(1252,917,l),
(1223,1235,o),
(1024,1397,o),
(676,1397,cs),
(311,1397,o),
(79,1131,o),
(79,712,cs),
(79,593,ls),
(94,193,o),
(329,-45,o),
(696,-45,cs),
(937,-45,o),
(1150,32,o),
(1252,149,c),
(1252,723,l)
);
}
);
userData = {
assembly = "PUSHB[ ]	/* 3 values pushed */
11 32 33
SRP1[ ]	/* SetRefPoint1 */
SRP2[ ]	/* SetRefPoint2 */
IP[ ]	/* InterpolatePts */
SVTCA[0]	/* SetFreedomAndProjectionVectorToAxis */
PUSHB[ ]	/* 1 value pushed */
0
RCVT[ ]	/* ReadCVT */
IF[ ]	/* If */
PUSHB[ ]	/* 1 value pushed */
11
MDAP[1]	/* MoveDirectAbsPt */
ELSE[ ]	/* Else */
PUSHB[ ]	/* 2 values pushed */
11 31
MIAP[0]	/* MoveIndirectAbsPt */
EIF[ ]	/* EndIf */
PUSHB[ ]	/* 1 value pushed */
0
RCVT[ ]	/* ReadCVT */
IF[ ]	/* If */
PUSHB[ ]	/* 1 value pushed */
3
MDAP[1]	/* MoveDirectAbsPt */
ELSE[ ]	/* Else */
PUSHB[ ]	/* 2 values pushed */
3 15
MIAP[0]	/* MoveIndirectAbsPt */
EIF[ ]	/* EndIf */
PUSHB[ ]	/* 3 values pushed */
15 11 3
SRP1[ ]	/* SetRefPoint1 */
SRP2[ ]	/* SetRefPoint2 */
IP[ ]	/* InterpolatePts */
PUSHB[ ]	/* 1 value pushed */
11
SRP0[ ]	/* SetRefPoint0 */
PUSHB[ ]	/* 2 values pushed */
18 11
PUSHB[ ]	/* 1 value pushed */
10
CALL[ ]	/* CallFunction */
IF[ ]	/* If */
POP[ ]	/* PopTopStack */
MDRP[11000]	/* MoveDirectRelPt */
ELSE[ ]	/* Else */
MIRP[10100]	/* MoveIndirectRelPt */
EIF[ ]	/* EndIf */
PUSHB[ ]	/* 1 value pushed */
3
SRP0[ ]	/* SetRefPoint0 */
PUSHB[ ]	/* 2 values pushed */
25 11
PUSHB[ ]	/* 1 value pushed */
10
CALL[ ]	/* CallFunction */
IF[ ]	/* If */
POP[ ]	/* PopTopStack */
MDRP[11000]	/* MoveDirectRelPt */
ELSE[ ]	/* Else */
MIRP[10100]	/* MoveIndirectRelPt */
EIF[ ]	/* EndIf */
PUSHB[ ]	/* 3 values pushed */
30 11 3
SRP1[ ]	/* SetRefPoint1 */
SRP2[ ]	/* SetRefPoint2 */
IP[ ]	/* InterpolatePts */
PUSHB[ ]	/* 1 value pushed */
30
MDAP[1]	/* MoveDirectAbsPt */
PUSHB[ ]	/* 3 values pushed */
191 30 1
DELTAP1[ ]	/* DeltaExceptionP1 */
PUSHB[ ]	/* 2 values pushed */
29 9
PUSHB[ ]	/* 1 value pushed */
10
CALL[ ]	/* CallFunction */
IF[ ]	/* If */
POP[ ]	/* PopTopStack */
MDRP[11000]	/* MoveDirectRelPt */
ELSE[ ]	/* Else */
MIRP[10100]	/* MoveIndirectRelPt */
EIF[ ]	/* EndIf */
IUP[0]	/* InterpolateUntPts */
IUP[1]	/* InterpolateUntPts */";
};
width = 1343;
}
);
note = uni0047;
unicode = 71;
},
{
glyphname = H;
kernRight = H;
lastChange = "2024-05-16 19:04:50 +0000";
layers = (
{
layerId = m01;
shapes = (
{
closed = 1;
nodes = (
(1141,1404,l),
(1141,748,l),
(245,748,l),
(245,1404,l),
(193,1404,l),
(193,0,l),
(245,0,l),
(245,696,l),
(1141,696,l),
(1141,0,l),
(1193,0,l),
(1193,1404,l)
);
}
);
userData = {
assembly = "SVTCA[0]	/* SetFreedomAndProjectionVectorToAxis */
PUSHB[ ]	/* 1 value pushed */
0
RCVT[ ]	/* ReadCVT */
IF[ ]	/* If */
PUSHB[ ]	/* 1 value pushed */
6
MDAP[1]	/* MoveDirectAbsPt */
ELSE[ ]	/* Else */
PUSHB[ ]	/* 2 values pushed */
6 31
MIAP[0]	/* MoveIndirectAbsPt */
EIF[ ]	/* EndIf */
PUSHB[ ]	/* 1 value pushed */
0
RCVT[ ]	/* ReadCVT */
IF[ ]	/* If */
PUSHB[ ]	/* 1 value pushed */
10
MDAP[1]	/* MoveDirectAbsPt */
ELSE[ ]	/* Else */
PUSHB[ ]	/* 2 values pushed */
10 31
MIAP[0]	/* MoveIndirectAbsPt */
EIF[ ]	/* EndIf */
PUSHB[ ]	/* 1 value pushed */
0
RCVT[ ]	/* ReadCVT */
IF[ ]	/* If */
PUSHB[ ]	/* 1 value pushed */
0
MDAP[1]	/* MoveDirectAbsPt */
ELSE[ ]	/* Else */
PUSHB[ ]	/* 2 values pushed */
0 15
MIAP[0]	/* MoveIndirectAbsPt */
EIF[ ]	/* EndIf */
PUSHB[ ]	/* 1 value pushed */
0
RCVT[ ]	/* ReadCVT */
IF[ ]	/* If */
PUSHB[ ]	/* 1 value pushed */
4
MDAP[1]	/* MoveDirectAbsPt */
ELSE[ ]	/* Else */
PUSHB[ ]	/* 2 values pushed */
4 15
MIAP[0]	/* MoveIndirectAbsPt */
EIF[ ]	/* EndIf */
PUSHB[ ]	/* 3 values pushed */
9 10 0
SRP1[ ]	/* SetRefPoint1 */
SRP2[ ]	/* SetRefPoint2 */
IP[ ]	/* InterpolatePts */
PUSHB[ ]	/* 1 value pushed */
9
MDAP[1]	/* MoveDirectAbsPt */
PUSHB[ ]	/* 3 values pushed */
191 9 1
DELTAP1[ ]	/* DeltaExceptionP1 */
PUSHB[ ]	/* 2 values pushed */
2 1
PUSHB[ ]	/* 1 value pushed */
10
CALL[ ]	/* CallFunction */
IF[ ]	/* If */
POP[ ]	/* PopTopStack */
MDRP[11000]	/* MoveDirectRelPt */
ELSE[ ]	/* Else */
MIRP[10100]	/* MoveIndirectRelPt */
EIF[ ]	/* EndIf */
IUP[0]	/* InterpolateUntPts */
IUP[1]	/* InterpolateUntPts */";
};
width = 1386;
},
{
layerId = m002;
shapes = (
{
closed = 1;
nodes = (
(942,1404,l),
(942,845,l),
(443,845,l),
(443,1404,l),
(106,1404,l),
(106,0,l),
(443,0,l),
(443,585,l),
(942,585,l),
(942,0,l),
(1277,0,l),
(1277,1404,l)
);
}
);
userData = {
assembly = "SVTCA[0]	/* SetFreedomAndProjectionVectorToAxis */
PUSHB[ ]	/* 1 value pushed */
0
RCVT[ ]	/* ReadCVT */
IF[ ]	/* If */
PUSHB[ ]	/* 1 value pushed */
6
MDAP[1]	/* MoveDirectAbsPt */
ELSE[ ]	/* Else */
PUSHB[ ]	/* 2 values pushed */
6 31
MIAP[0]	/* MoveIndirectAbsPt */
EIF[ ]	/* EndIf */
PUSHB[ ]	/* 1 value pushed */
0
RCVT[ ]	/* ReadCVT */
IF[ ]	/* If */
PUSHB[ ]	/* 1 value pushed */
10
MDAP[1]	/* MoveDirectAbsPt */
ELSE[ ]	/* Else */
PUSHB[ ]	/* 2 values pushed */
10 31
MIAP[0]	/* MoveIndirectAbsPt */
EIF[ ]	/* EndIf */
PUSHB[ ]	/* 1 value pushed */
0
RCVT[ ]	/* ReadCVT */
IF[ ]	/* If */
PUSHB[ ]	/* 1 value pushed */
0
MDAP[1]	/* MoveDirectAbsPt */
ELSE[ ]	/* Else */
PUSHB[ ]	/* 2 values pushed */
0 15
MIAP[0]	/* MoveIndirectAbsPt */
EIF[ ]	/* EndIf */
PUSHB[ ]	/* 1 value pushed */
0
RCVT[ ]	/* ReadCVT */
IF[ ]	/* If */
PUSHB[ ]	/* 1 value pushed */
4
MDAP[1]	/* MoveDirectAbsPt */
ELSE[ ]	/* Else */
PUSHB[ ]	/* 2 values pushed */
4 15
MIAP[0]	/* MoveIndirectAbsPt */
EIF[ ]	/* EndIf */
PUSHB[ ]	/* 3 values pushed */
9 10 0
SRP1[ ]	/* SetRefPoint1 */
SRP2[ ]	/* SetRefPoint2 */
IP[ ]	/* InterpolatePts */
PUSHB[ ]	/* 1 value pushed */
9
MDAP[1]	/* MoveDirectAbsPt */
PUSHB[ ]	/* 3 values pushed */
191 9 1
DELTAP1[ ]	/* DeltaExceptionP1 */
PUSHB[ ]	/* 2 values pushed */
2 1
PUSHB[ ]	/* 1 value pushed */
10
CALL[ ]	/* CallFunction */
IF[ ]	/* If */
POP[ ]	/* PopTopStack */
MDRP[11000]	/* MoveDirectRelPt */
ELSE[ ]	/* Else */
MIRP[10100]	/* MoveIndirectRelPt */
EIF[ ]	/* EndIf */
IUP[0]	/* InterpolateUntPts */
IUP[1]	/* InterpolateUntPts */";
};
width = 1385;
}
);
note = uni0048;
unicode = 72;
},
{
glyphname = I;
kernRight = H;
lastChange = "2024-05-16 19:04:50 +0000";
layers = (
{
layerId = m01;
shapes = (
{
closed = 1;
nodes = (
(231,1404,l),
(231,0,l),
(283,0,l),
(283,1404,l)
);
}
);
userData = {
assembly = "SVTCA[0]	/* SetFreedomAndProjectionVectorToAxis */
PUSHB[ ]	/* 1 value pushed */
0
RCVT[ ]	/* ReadCVT */
IF[ ]	/* If */
PUSHB[ ]	/* 1 value pushed */
2
MDAP[1]	/* MoveDirectAbsPt */
ELSE[ ]	/* Else */
PUSHB[ ]	/* 2 values pushed */
2 31
MIAP[0]	/* MoveIndirectAbsPt */
EIF[ ]	/* EndIf */
PUSHB[ ]	/* 1 value pushed */
0
RCVT[ ]	/* ReadCVT */
IF[ ]	/* If */
PUSHB[ ]	/* 1 value pushed */
0
MDAP[1]	/* MoveDirectAbsPt */
ELSE[ ]	/* Else */
PUSHB[ ]	/* 2 values pushed */
0 15
MIAP[0]	/* MoveIndirectAbsPt */
EIF[ ]	/* EndIf */
IUP[0]	/* InterpolateUntPts */
IUP[1]	/* InterpolateUntPts */";
};
width = 514;
},
{
layerId = m002;
shapes = (
{
closed = 1;
nodes = (
(129,1404,l),
(129,0,l),
(466,0,l),
(466,1404,l)
);
}
);
userData = {
assembly = "SVTCA[0]	/* SetFreedomAndProjectionVectorToAxis */
PUSHB[ ]	/* 1 value pushed */
0
RCVT[ ]	/* ReadCVT */
IF[ ]	/* If */
PUSHB[ ]	/* 1 value pushed */
2
MDAP[1]	/* MoveDirectAbsPt */
ELSE[ ]	/* Else */
PUSHB[ ]	/* 2 values pushed */
2 31
MIAP[0]	/* MoveIndirectAbsPt */
EIF[ ]	/* EndIf */
PUSHB[ ]	/* 1 value pushed */
0
RCVT[ ]	/* ReadCVT */
IF[ ]	/* If */
PUSHB[ ]	/* 1 value pushed */
0
MDAP[1]	/* MoveDirectAbsPt */
ELSE[ ]	/* Else */
PUSHB[ ]	/* 2 values pushed */
0 15
MIAP[0]	/* MoveIndirectAbsPt */
EIF[ ]	/* EndIf */
IUP[0]	/* InterpolateUntPts */
IUP[1]	/* InterpolateUntPts */";
};
width = 595;
}
);
note = uni0049;
unicode = 73;
},
{
glyphname = Iacute;
kernRight = H;
lastChange = "2024-05-16 19:04:50 +0000";
layers = (
{
layerId = m01;
shapes = (
{
closed = 1;
nodes = (
(228,1404,l),
(228,0,l),
(280,0,l),
(280,1404,l)
);
},
{
closed = 1;
nodes = (
(278,1543,l),
(465,1800,l),
(402,1800,l),
(220,1543,l)
);
}
);
width = 514;
},
{
layerId = m002;
shapes = (
{
closed = 1;
nodes = (
(129,1404,l),
(129,0,l),
(467,0,l),
(467,1404,l)
);
},
{
closed = 1;
nodes = (
(413,1475,l),
(679,1778,l),
(338,1778,l),
(149,1475,l)
);
}
);
width = 593;
}
);
note = uni00CD;
unicode = 205;
},
{
glyphname = Icircumflex;
kernRight = H;
lastChange = "2024-05-16 19:04:50 +0000";
layers = (
{
layerId = m01;
shapes = (
{
closed = 1;
nodes = (
(231,1404,l),
(231,0,l),
(283,0,l),
(283,1404,l)
);
},
{
closed = 1;
nodes = (
(240,1781,l),
(18,1551,l),
(18,1537,l),
(80,1537,l),
(258,1726,l),
(438,1537,l),
(504,1537,l),
(504,1547,l),
(278,1781,l)
);
}
);
width = 515;
},
{
layerId = m002;
shapes = (
{
closed = 1;
nodes = (
(128,1404,l),
(128,0,l),
(466,0,l),
(466,1404,l)
);
},
{
closed = 1;
nodes = (
(205,1778,l),
(-106,1511,l),
(-106,1494,l),
(144,1494,l),
(298,1625,l),
(451,1494,l),
(707,1494,l),
(707,1507,l),
(389,1778,l)
);
}
);
width = 595;
}
);
note = uni00CE;
unicode = 206;
},
{
glyphname = Idieresis;
kernRight = H;
lastChange = "2024-05-16 19:04:50 +0000";
layers = (
{
layerId = m01;
shapes = (
{
closed = 1;
nodes = (
(231,1404,l),
(231,0,l),
(283,0,l),
(283,1404,l)
);
},
{
closed = 1;
nodes = (
(-7,1659,o),
(17,1636,o),
(46,1636,cs),
(76,1636,o),
(100,1659,o),
(100,1689,cs),
(100,1718,o),
(76,1743,o),
(46,1743,cs),
(17,1743,o),
(-7,1718,o),
(-7,1689,cs)
);
},
{
closed = 1;
nodes = (
(422,1659,o),
(445,1636,o),
(475,1636,cs),
(505,1636,o),
(529,1659,o),
(529,1689,cs),
(529,1718,o),
(505,1743,o),
(475,1743,cs),
(445,1743,o),
(422,1718,o),
(422,1689,cs)
);
}
);
width = 515;
},
{
layerId = m002;
shapes = (
{
closed = 1;
nodes = (
(129,1404,l),
(129,0,l),
(466,0,l),
(466,1404,l)
);
},
{
closed = 1;
nodes = (
(-99,1544,o),
(-36,1485,o),
(46,1485,cs),
(129,1485,o),
(191,1543,o),
(191,1614,cs),
(191,1685,o),
(129,1739,o),
(46,1739,cs),
(-36,1739,o),
(-99,1685,o),
(-99,1613,cs)
);
},
{
closed = 1;
nodes = (
(402,1544,o),
(464,1485,o),
(547,1485,cs),
(629,1485,o),
(692,1543,o),
(692,1614,cs),
(692,1685,o),
(629,1739,o),
(547,1739,cs),
(464,1739,o),
(402,1685,o),
(402,1613,cs)
);
}
);
width = 596;
}
);
note = uni00CF;
unicode = 207;
},
{
glyphname = Igrave;
kernRight = H;
lastChange = "2024-05-16 19:04:50 +0000";
layers = (
{
layerId = m01;
shapes = (
{
closed = 1;
nodes = (
(235,1404,l),
(235,0,l),
(287,0,l),
(287,1404,l)
);
},
{
closed = 1;
nodes = (
(56,1800,l),
(244,1543,l),
(301,1543,l),
(120,1800,l)
);
}
);
width = 515;
},
{
layerId = m002;
shapes = (
{
closed = 1;
nodes = (
(128,1404,l),
(128,0,l),
(467,0,l),
(467,1404,l)
);
},
{
closed = 1;
nodes = (
(-83,1778,l),
(190,1475,l),
(453,1475,l),
(261,1778,l)
);
}
);
width = 596;
}
);
note = uni00CC;
unicode = 204;
},
{
glyphname = J;
kernLeft = J;
kernRight = J;
lastChange = "2024-05-16 19:04:50 +0000";
layers = (
{
layerId = m01;
shapes = (
{
closed = 1;
nodes = (
(841,180,o),
(698,33,o),
(492,33,cs),
(257,33,o),
(139,158,o),
(139,387,c),
(87,387,l),
(87,126,o),
(230,-19,o),
(492,-19,cs),
(736,-19,o),
(897,155,o),
(897,426,cs),
(897,1404,l),
(845,1404,l),
(845,416,ls)
);
}
);
userData = {
assembly = "PUSHB[ ]	/* 3 values pushed */
6 17 18
SRP1[ ]	/* SetRefPoint1 */
SRP2[ ]	/* SetRefPoint2 */
IP[ ]	/* InterpolatePts */
SVTCA[0]	/* SetFreedomAndProjectionVectorToAxis */
PUSHB[ ]	/* 1 value pushed */
0
RCVT[ ]	/* ReadCVT */
IF[ ]	/* If */
PUSHB[ ]	/* 1 value pushed */
0
MDAP[1]	/* MoveDirectAbsPt */
ELSE[ ]	/* Else */
PUSHB[ ]	/* 2 values pushed */
0 31
MIAP[0]	/* MoveIndirectAbsPt */
EIF[ ]	/* EndIf */
PUSHB[ ]	/* 1 value pushed */
0
RCVT[ ]	/* ReadCVT */
IF[ ]	/* If */
PUSHB[ ]	/* 1 value pushed */
6
MDAP[1]	/* MoveDirectAbsPt */
ELSE[ ]	/* Else */
PUSHB[ ]	/* 2 values pushed */
6 15
MIAP[0]	/* MoveIndirectAbsPt */
EIF[ ]	/* EndIf */
PUSHB[ ]	/* 2 values pushed */
13 1
PUSHB[ ]	/* 1 value pushed */
10
CALL[ ]	/* CallFunction */
IF[ ]	/* If */
POP[ ]	/* PopTopStack */
MDRP[11000]	/* MoveDirectRelPt */
ELSE[ ]	/* Else */
MIRP[10100]	/* MoveIndirectRelPt */
EIF[ ]	/* EndIf */
IUP[0]	/* InterpolateUntPts */
IUP[1]	/* InterpolateUntPts */";
};
width = 1085;
},
{
layerId = m002;
shapes = (
{
closed = 1;
nodes = (
(663,288,o),
(610,215,o),
(517,215,cs),
(415,215,o),
(375,266,o),
(375,398,c),
(35,398,l),
(35,113,o),
(213,-45,o),
(517,-45,cs),
(800,-45,o),
(1002,141,o),
(1002,415,cs),
(1002,1376,l),
(663,1376,l),
(663,415,l)
);
}
);
userData = {
assembly = "PUSHB[ ]	/* 3 values pushed */
6 17 18
SRP1[ ]	/* SetRefPoint1 */
SRP2[ ]	/* SetRefPoint2 */
IP[ ]	/* InterpolatePts */
SVTCA[0]	/* SetFreedomAndProjectionVectorToAxis */
PUSHB[ ]	/* 1 value pushed */
0
RCVT[ ]	/* ReadCVT */
IF[ ]	/* If */
PUSHB[ ]	/* 1 value pushed */
0
MDAP[1]	/* MoveDirectAbsPt */
ELSE[ ]	/* Else */
PUSHB[ ]	/* 2 values pushed */
0 31
MIAP[0]	/* MoveIndirectAbsPt */
EIF[ ]	/* EndIf */
PUSHB[ ]	/* 1 value pushed */
0
RCVT[ ]	/* ReadCVT */
IF[ ]	/* If */
PUSHB[ ]	/* 1 value pushed */
6
MDAP[1]	/* MoveDirectAbsPt */
ELSE[ ]	/* Else */
PUSHB[ ]	/* 2 values pushed */
6 15
MIAP[0]	/* MoveIndirectAbsPt */
EIF[ ]	/* EndIf */
PUSHB[ ]	/* 2 values pushed */
13 1
PUSHB[ ]	/* 1 value pushed */
10
CALL[ ]	/* CallFunction */
IF[ ]	/* If */
POP[ ]	/* PopTopStack */
MDRP[11000]	/* MoveDirectRelPt */
ELSE[ ]	/* Else */
MIRP[10100]	/* MoveIndirectRelPt */
EIF[ ]	/* EndIf */
IUP[0]	/* InterpolateUntPts */
IUP[1]	/* InterpolateUntPts */";
};
width = 1109;
}
);
note = uni004A;
unicode = 74;
},
{
glyphname = K;
kernRight = K;
lastChange = "2024-05-16 19:04:50 +0000";
layers = (
{
layerId = m01;
shapes = (
{
closed = 1;
nodes = (
(1182,0,l),
(508,774,l),
(1134,1404,l),
(1059,1404,l),
(477,818,l),
(245,592,l),
(245,1404,l),
(193,1404,l),
(193,0,l),
(245,0,l),
(245,531,l),
(470,738,l),
(1115,0,l)
);
}
);
userData = {
assembly = "PUSHB[ ]	/* 3 values pushed */
0 13 14
SRP1[ ]	/* SetRefPoint1 */
SRP2[ ]	/* SetRefPoint2 */
IP[ ]	/* InterpolatePts */
SVTCA[0]	/* SetFreedomAndProjectionVectorToAxis */
PUSHB[ ]	/* 1 value pushed */
0
RCVT[ ]	/* ReadCVT */
IF[ ]	/* If */
PUSHB[ ]	/* 1 value pushed */
4
MDAP[1]	/* MoveDirectAbsPt */
ELSE[ ]	/* Else */
PUSHB[ ]	/* 2 values pushed */
4 31
MIAP[0]	/* MoveIndirectAbsPt */
EIF[ ]	/* EndIf */
PUSHB[ ]	/* 1 value pushed */
0
RCVT[ ]	/* ReadCVT */
IF[ ]	/* If */
PUSHB[ ]	/* 1 value pushed */
8
MDAP[1]	/* MoveDirectAbsPt */
ELSE[ ]	/* Else */
PUSHB[ ]	/* 2 values pushed */
8 31
MIAP[0]	/* MoveIndirectAbsPt */
EIF[ ]	/* EndIf */
PUSHB[ ]	/* 1 value pushed */
0
RCVT[ ]	/* ReadCVT */
IF[ ]	/* If */
PUSHB[ ]	/* 1 value pushed */
2
MDAP[1]	/* MoveDirectAbsPt */
ELSE[ ]	/* Else */
PUSHB[ ]	/* 2 values pushed */
2 15
MIAP[0]	/* MoveIndirectAbsPt */
EIF[ ]	/* EndIf */
PUSHB[ ]	/* 1 value pushed */
0
RCVT[ ]	/* ReadCVT */
IF[ ]	/* If */
PUSHB[ ]	/* 1 value pushed */
11
MDAP[1]	/* MoveDirectAbsPt */
ELSE[ ]	/* Else */
PUSHB[ ]	/* 2 values pushed */
11 15
MIAP[0]	/* MoveIndirectAbsPt */
EIF[ ]	/* EndIf */
PUSHB[ ]	/* 3 values pushed */
0 4 2
SRP1[ ]	/* SetRefPoint1 */
SRP2[ ]	/* SetRefPoint2 */
IP[ ]	/* InterpolatePts */
PUSHB[ ]	/* 3 values pushed */
6 4 2
SRP1[ ]	/* SetRefPoint1 */
SRP2[ ]	/* SetRefPoint2 */
IP[ ]	/* InterpolatePts */
IUP[0]	/* InterpolateUntPts */
IUP[1]	/* InterpolateUntPts */";
};
width = 1253;
},
{
layerId = m002;
shapes = (
{
closed = 1;
nodes = (
(1281,0,l),
(806,782,l),
(1281,1404,l),
(862,1404,l),
(561,961,l),
(443,784,l),
(443,1404,l),
(106,1404,l),
(106,0,l),
(443,0,l),
(443,370,l),
(583,520,l),
(880,0,l)
);
}
);
userData = {
assembly = "PUSHB[ ]	/* 3 values pushed */
0 13 14
SRP1[ ]	/* SetRefPoint1 */
SRP2[ ]	/* SetRefPoint2 */
IP[ ]	/* InterpolatePts */
SVTCA[0]	/* SetFreedomAndProjectionVectorToAxis */
PUSHB[ ]	/* 1 value pushed */
0
RCVT[ ]	/* ReadCVT */
IF[ ]	/* If */
PUSHB[ ]	/* 1 value pushed */
4
MDAP[1]	/* MoveDirectAbsPt */
ELSE[ ]	/* Else */
PUSHB[ ]	/* 2 values pushed */
4 31
MIAP[0]	/* MoveIndirectAbsPt */
EIF[ ]	/* EndIf */
PUSHB[ ]	/* 1 value pushed */
0
RCVT[ ]	/* ReadCVT */
IF[ ]	/* If */
PUSHB[ ]	/* 1 value pushed */
8
MDAP[1]	/* MoveDirectAbsPt */
ELSE[ ]	/* Else */
PUSHB[ ]	/* 2 values pushed */
8 31
MIAP[0]	/* MoveIndirectAbsPt */
EIF[ ]	/* EndIf */
PUSHB[ ]	/* 1 value pushed */
0
RCVT[ ]	/* ReadCVT */
IF[ ]	/* If */
PUSHB[ ]	/* 1 value pushed */
2
MDAP[1]	/* MoveDirectAbsPt */
ELSE[ ]	/* Else */
PUSHB[ ]	/* 2 values pushed */
2 15
MIAP[0]	/* MoveIndirectAbsPt */
EIF[ ]	/* EndIf */
PUSHB[ ]	/* 1 value pushed */
0
RCVT[ ]	/* ReadCVT */
IF[ ]	/* If */
PUSHB[ ]	/* 1 value pushed */
11
MDAP[1]	/* MoveDirectAbsPt */
ELSE[ ]	/* Else */
PUSHB[ ]	/* 2 values pushed */
11 15
MIAP[0]	/* MoveIndirectAbsPt */
EIF[ ]	/* EndIf */
PUSHB[ ]	/* 3 values pushed */
0 4 2
SRP1[ ]	/* SetRefPoint1 */
SRP2[ ]	/* SetRefPoint2 */
IP[ ]	/* InterpolatePts */
PUSHB[ ]	/* 3 values pushed */
6 4 2
SRP1[ ]	/* SetRefPoint1 */
SRP2[ ]	/* SetRefPoint2 */
IP[ ]	/* InterpolatePts */
IUP[0]	/* InterpolateUntPts */
IUP[1]	/* InterpolateUntPts */";
};
width = 1261;
}
);
note = uni004B;
unicode = 75;
},
{
glyphname = L;
kernRight = L;
lastChange = "2024-05-16 19:04:50 +0000";
layers = (
{
layerId = m01;
shapes = (
{
closed = 1;
nodes = (
(193,1404,l),
(193,0,l),
(966,0,l),
(966,52,l),
(246,52,l),
(246,1404,l)
);
}
);
userData = {
assembly = "SVTCA[0]	/* SetFreedomAndProjectionVectorToAxis */
PUSHB[ ]	/* 1 value pushed */
0
RCVT[ ]	/* ReadCVT */
IF[ ]	/* If */
PUSHB[ ]	/* 1 value pushed */
4
MDAP[1]	/* MoveDirectAbsPt */
ELSE[ ]	/* Else */
PUSHB[ ]	/* 2 values pushed */
4 31
MIAP[0]	/* MoveIndirectAbsPt */
EIF[ ]	/* EndIf */
PUSHB[ ]	/* 1 value pushed */
0
RCVT[ ]	/* ReadCVT */
IF[ ]	/* If */
PUSHB[ ]	/* 1 value pushed */
2
MDAP[1]	/* MoveDirectAbsPt */
ELSE[ ]	/* Else */
PUSHB[ ]	/* 2 values pushed */
2 15
MIAP[0]	/* MoveIndirectAbsPt */
EIF[ ]	/* EndIf */
PUSHB[ ]	/* 2 values pushed */
0 1
PUSHB[ ]	/* 1 value pushed */
10
CALL[ ]	/* CallFunction */
IF[ ]	/* If */
POP[ ]	/* PopTopStack */
MDRP[11000]	/* MoveDirectRelPt */
ELSE[ ]	/* Else */
MIRP[10100]	/* MoveIndirectRelPt */
EIF[ ]	/* EndIf */
IUP[0]	/* InterpolateUntPts */
IUP[1]	/* InterpolateUntPts */";
};
width = 1019;
},
{
layerId = m002;
shapes = (
{
closed = 1;
nodes = (
(106,1404,l),
(106,0,l),
(1032,0,l),
(1032,260,l),
(444,260,l),
(444,1404,l)
);
}
);
userData = {
assembly = "SVTCA[0]	/* SetFreedomAndProjectionVectorToAxis */
PUSHB[ ]	/* 1 value pushed */
0
RCVT[ ]	/* ReadCVT */
IF[ ]	/* If */
PUSHB[ ]	/* 1 value pushed */
4
MDAP[1]	/* MoveDirectAbsPt */
ELSE[ ]	/* Else */
PUSHB[ ]	/* 2 values pushed */
4 31
MIAP[0]	/* MoveIndirectAbsPt */
EIF[ ]	/* EndIf */
PUSHB[ ]	/* 1 value pushed */
0
RCVT[ ]	/* ReadCVT */
IF[ ]	/* If */
PUSHB[ ]	/* 1 value pushed */
2
MDAP[1]	/* MoveDirectAbsPt */
ELSE[ ]	/* Else */
PUSHB[ ]	/* 2 values pushed */
2 15
MIAP[0]	/* MoveIndirectAbsPt */
EIF[ ]	/* EndIf */
PUSHB[ ]	/* 2 values pushed */
0 1
PUSHB[ ]	/* 1 value pushed */
10
CALL[ ]	/* CallFunction */
IF[ ]	/* If */
POP[ ]	/* PopTopStack */
MDRP[11000]	/* MoveDirectRelPt */
ELSE[ ]	/* Else */
MIRP[10100]	/* MoveIndirectRelPt */
EIF[ ]	/* EndIf */
IUP[0]	/* InterpolateUntPts */
IUP[1]	/* InterpolateUntPts */";
};
width = 1069;
}
);
note = uni004C;
unicode = 76;
},
{
glyphname = Lslash;
lastChange = "2024-05-16 19:04:50 +0000";
layers = (
{
layerId = m01;
shapes = (
{
closed = 1;
nodes = (
(185,1404,l),
(185,745,l),
(8,689,l),
(8,634,l),
(185,690,l),
(185,0,l),
(958,0,l),
(958,52,l),
(238,52,l),
(238,708,l),
(577,815,l),
(577,870,l),
(238,763,l),
(238,1404,l)
);
}
);
userData = {
assembly = "SVTCA[0]	/* SetFreedomAndProjectionVectorToAxis */
PUSHB[ ]	/* 1 value pushed */
0
RCVT[ ]	/* ReadCVT */
IF[ ]	/* If */
PUSHB[ ]	/* 1 value pushed */
12
MDAP[1]	/* MoveDirectAbsPt */
ELSE[ ]	/* Else */
PUSHB[ ]	/* 2 values pushed */
12 31
MIAP[0]	/* MoveIndirectAbsPt */
EIF[ ]	/* EndIf */
PUSHB[ ]	/* 1 value pushed */
0
RCVT[ ]	/* ReadCVT */
IF[ ]	/* If */
PUSHB[ ]	/* 1 value pushed */
6
MDAP[1]	/* MoveDirectAbsPt */
ELSE[ ]	/* Else */
PUSHB[ ]	/* 2 values pushed */
6 15
MIAP[0]	/* MoveIndirectAbsPt */
EIF[ ]	/* EndIf */
PUSHB[ ]	/* 3 values pushed */
1 12 6
SRP1[ ]	/* SetRefPoint1 */
SRP2[ ]	/* SetRefPoint2 */
IP[ ]	/* InterpolatePts */
PUSHB[ ]	/* 1 value pushed */
1
MDAP[1]	/* MoveDirectAbsPt */
PUSHB[ ]	/* 1 value pushed */
0
MDRP[10000]	/* MoveDirectRelPt */
PUSHB[ ]	/* 1 value pushed */
1
SRP0[ ]	/* SetRefPoint0 */
PUSHB[ ]	/* 2 values pushed */
2 2
PUSHB[ ]	/* 1 value pushed */
10
CALL[ ]	/* CallFunction */
IF[ ]	/* If */
POP[ ]	/* PopTopStack */
MDRP[11000]	/* MoveDirectRelPt */
ELSE[ ]	/* Else */
MIRP[10100]	/* MoveIndirectRelPt */
EIF[ ]	/* EndIf */
PUSHB[ ]	/* 1 value pushed */
3
MDRP[10000]	/* MoveDirectRelPt */
PUSHB[ ]	/* 1 value pushed */
6
SRP0[ ]	/* SetRefPoint0 */
PUSHB[ ]	/* 2 values pushed */
4 1
PUSHB[ ]	/* 1 value pushed */
10
CALL[ ]	/* CallFunction */
IF[ ]	/* If */
POP[ ]	/* PopTopStack */
MDRP[11000]	/* MoveDirectRelPt */
ELSE[ ]	/* Else */
MIRP[10100]	/* MoveIndirectRelPt */
EIF[ ]	/* EndIf */
PUSHB[ ]	/* 1 value pushed */
3
SRP0[ ]	/* SetRefPoint0 */
PUSHB[ ]	/* 1 value pushed */
8
MDRP[10000]	/* MoveDirectRelPt */
PUSHB[ ]	/* 1 value pushed */
9
MDRP[10000]	/* MoveDirectRelPt */
PUSHB[ ]	/* 1 value pushed */
0
SRP0[ ]	/* SetRefPoint0 */
PUSHB[ ]	/* 1 value pushed */
11
MDRP[10000]	/* MoveDirectRelPt */
PUSHB[ ]	/* 1 value pushed */
10
MDRP[10000]	/* MoveDirectRelPt */
IUP[0]	/* InterpolateUntPts */
IUP[1]	/* InterpolateUntPts */";
};
width = 1023;
},
{
layerId = m002;
shapes = (
{
closed = 1;
nodes = (
(155,1404,l),
(155,787,l),
(24,752,l),
(24,579,l),
(155,615,l),
(155,0,l),
(1080,0,l),
(1080,260,l),
(493,260,l),
(493,710,l),
(680,759,l),
(680,933,l),
(493,881,l),
(493,1404,l)
);
}
);
userData = {
assembly = "SVTCA[0]	/* SetFreedomAndProjectionVectorToAxis */
PUSHB[ ]	/* 1 value pushed */
0
RCVT[ ]	/* ReadCVT */
IF[ ]	/* If */
PUSHB[ ]	/* 1 value pushed */
12
MDAP[1]	/* MoveDirectAbsPt */
ELSE[ ]	/* Else */
PUSHB[ ]	/* 2 values pushed */
12 31
MIAP[0]	/* MoveIndirectAbsPt */
EIF[ ]	/* EndIf */
PUSHB[ ]	/* 1 value pushed */
0
RCVT[ ]	/* ReadCVT */
IF[ ]	/* If */
PUSHB[ ]	/* 1 value pushed */
6
MDAP[1]	/* MoveDirectAbsPt */
ELSE[ ]	/* Else */
PUSHB[ ]	/* 2 values pushed */
6 15
MIAP[0]	/* MoveIndirectAbsPt */
EIF[ ]	/* EndIf */
PUSHB[ ]	/* 3 values pushed */
1 12 6
SRP1[ ]	/* SetRefPoint1 */
SRP2[ ]	/* SetRefPoint2 */
IP[ ]	/* InterpolatePts */
PUSHB[ ]	/* 1 value pushed */
1
MDAP[1]	/* MoveDirectAbsPt */
PUSHB[ ]	/* 1 value pushed */
0
MDRP[10000]	/* MoveDirectRelPt */
PUSHB[ ]	/* 1 value pushed */
1
SRP0[ ]	/* SetRefPoint0 */
PUSHB[ ]	/* 2 values pushed */
2 2
PUSHB[ ]	/* 1 value pushed */
10
CALL[ ]	/* CallFunction */
IF[ ]	/* If */
POP[ ]	/* PopTopStack */
MDRP[11000]	/* MoveDirectRelPt */
ELSE[ ]	/* Else */
MIRP[10100]	/* MoveIndirectRelPt */
EIF[ ]	/* EndIf */
PUSHB[ ]	/* 1 value pushed */
3
MDRP[10000]	/* MoveDirectRelPt */
PUSHB[ ]	/* 1 value pushed */
6
SRP0[ ]	/* SetRefPoint0 */
PUSHB[ ]	/* 2 values pushed */
4 1
PUSHB[ ]	/* 1 value pushed */
10
CALL[ ]	/* CallFunction */
IF[ ]	/* If */
POP[ ]	/* PopTopStack */
MDRP[11000]	/* MoveDirectRelPt */
ELSE[ ]	/* Else */
MIRP[10100]	/* MoveIndirectRelPt */
EIF[ ]	/* EndIf */
PUSHB[ ]	/* 1 value pushed */
3
SRP0[ ]	/* SetRefPoint0 */
PUSHB[ ]	/* 1 value pushed */
8
MDRP[10000]	/* MoveDirectRelPt */
PUSHB[ ]	/* 1 value pushed */
9
MDRP[10000]	/* MoveDirectRelPt */
PUSHB[ ]	/* 1 value pushed */
0
SRP0[ ]	/* SetRefPoint0 */
PUSHB[ ]	/* 1 value pushed */
11
MDRP[10000]	/* MoveDirectRelPt */
PUSHB[ ]	/* 1 value pushed */
10
MDRP[10000]	/* MoveDirectRelPt */
IUP[0]	/* InterpolateUntPts */
IUP[1]	/* InterpolateUntPts */";
};
width = 1116;
}
);
note = uni0141;
unicode = 321;
},
{
glyphname = M;
kernRight = H;
lastChange = "2024-05-16 19:04:50 +0000";
layers = (
{
layerId = m01;
shapes = (
{
closed = 1;
nodes = (
(193,0,l),
(245,0,l),
(245,1320,l),
(825,0,l),
(866,0,l),
(1449,1326,l),
(1449,0,l),
(1501,0,l),
(1501,1404,l),
(1424,1404,l),
(845,76,l),
(268,1404,l),
(193,1404,l)
);
}
);
userData = {
assembly = "SVTCA[0]	/* SetFreedomAndProjectionVectorToAxis */
PUSHB[ ]	/* 1 value pushed */
0
RCVT[ ]	/* ReadCVT */
IF[ ]	/* If */
PUSHB[ ]	/* 1 value pushed */
0
MDAP[1]	/* MoveDirectAbsPt */
ELSE[ ]	/* Else */
PUSHB[ ]	/* 2 values pushed */
0 31
MIAP[0]	/* MoveIndirectAbsPt */
EIF[ ]	/* EndIf */
PUSHB[ ]	/* 1 value pushed */
0
RCVT[ ]	/* ReadCVT */
IF[ ]	/* If */
PUSHB[ ]	/* 1 value pushed */
2
MDAP[1]	/* MoveDirectAbsPt */
ELSE[ ]	/* Else */
PUSHB[ ]	/* 2 values pushed */
2 31
MIAP[0]	/* MoveIndirectAbsPt */
EIF[ ]	/* EndIf */
PUSHB[ ]	/* 1 value pushed */
0
RCVT[ ]	/* ReadCVT */
IF[ ]	/* If */
PUSHB[ ]	/* 1 value pushed */
4
MDAP[1]	/* MoveDirectAbsPt */
ELSE[ ]	/* Else */
PUSHB[ ]	/* 2 values pushed */
4 15
MIAP[0]	/* MoveIndirectAbsPt */
EIF[ ]	/* EndIf */
PUSHB[ ]	/* 1 value pushed */
0
RCVT[ ]	/* ReadCVT */
IF[ ]	/* If */
PUSHB[ ]	/* 1 value pushed */
8
MDAP[1]	/* MoveDirectAbsPt */
ELSE[ ]	/* Else */
PUSHB[ ]	/* 2 values pushed */
8 15
MIAP[0]	/* MoveIndirectAbsPt */
EIF[ ]	/* EndIf */
PUSHB[ ]	/* 1 value pushed */
0
RCVT[ ]	/* ReadCVT */
IF[ ]	/* If */
PUSHB[ ]	/* 1 value pushed */
12
MDAP[1]	/* MoveDirectAbsPt */
ELSE[ ]	/* Else */
PUSHB[ ]	/* 2 values pushed */
12 15
MIAP[0]	/* MoveIndirectAbsPt */
EIF[ ]	/* EndIf */
PUSHB[ ]	/* 3 values pushed */
1 0 4
SRP1[ ]	/* SetRefPoint1 */
SRP2[ ]	/* SetRefPoint2 */
IP[ ]	/* InterpolatePts */
PUSHB[ ]	/* 3 values pushed */
7 0 4
SRP1[ ]	/* SetRefPoint1 */
SRP2[ ]	/* SetRefPoint2 */
IP[ ]	/* InterpolatePts */
PUSHB[ ]	/* 3 values pushed */
10 0 4
SRP1[ ]	/* SetRefPoint1 */
SRP2[ ]	/* SetRefPoint2 */
IP[ ]	/* InterpolatePts */
IUP[0]	/* InterpolateUntPts */
IUP[1]	/* InterpolateUntPts */";
};
width = 1694;
},
{
layerId = m002;
shapes = (
{
closed = 1;
nodes = (
(106,0,l),
(444,0,l),
(410,998,l),
(751,0,l),
(975,0,l),
(1314,998,l),
(1280,0,l),
(1620,0,l),
(1620,1404,l),
(1174,1404,l),
(863,426,l),
(550,1404,l),
(106,1404,l)
);
}
);
userData = {
assembly = "SVTCA[0]	/* SetFreedomAndProjectionVectorToAxis */
PUSHB[ ]	/* 1 value pushed */
0
RCVT[ ]	/* ReadCVT */
IF[ ]	/* If */
PUSHB[ ]	/* 1 value pushed */
0
MDAP[1]	/* MoveDirectAbsPt */
ELSE[ ]	/* Else */
PUSHB[ ]	/* 2 values pushed */
0 31
MIAP[0]	/* MoveIndirectAbsPt */
EIF[ ]	/* EndIf */
PUSHB[ ]	/* 1 value pushed */
0
RCVT[ ]	/* ReadCVT */
IF[ ]	/* If */
PUSHB[ ]	/* 1 value pushed */
2
MDAP[1]	/* MoveDirectAbsPt */
ELSE[ ]	/* Else */
PUSHB[ ]	/* 2 values pushed */
2 31
MIAP[0]	/* MoveIndirectAbsPt */
EIF[ ]	/* EndIf */
PUSHB[ ]	/* 1 value pushed */
0
RCVT[ ]	/* ReadCVT */
IF[ ]	/* If */
PUSHB[ ]	/* 1 value pushed */
4
MDAP[1]	/* MoveDirectAbsPt */
ELSE[ ]	/* Else */
PUSHB[ ]	/* 2 values pushed */
4 15
MIAP[0]	/* MoveIndirectAbsPt */
EIF[ ]	/* EndIf */
PUSHB[ ]	/* 1 value pushed */
0
RCVT[ ]	/* ReadCVT */
IF[ ]	/* If */
PUSHB[ ]	/* 1 value pushed */
8
MDAP[1]	/* MoveDirectAbsPt */
ELSE[ ]	/* Else */
PUSHB[ ]	/* 2 values pushed */
8 15
MIAP[0]	/* MoveIndirectAbsPt */
EIF[ ]	/* EndIf */
PUSHB[ ]	/* 1 value pushed */
0
RCVT[ ]	/* ReadCVT */
IF[ ]	/* If */
PUSHB[ ]	/* 1 value pushed */
12
MDAP[1]	/* MoveDirectAbsPt */
ELSE[ ]	/* Else */
PUSHB[ ]	/* 2 values pushed */
12 15
MIAP[0]	/* MoveIndirectAbsPt */
EIF[ ]	/* EndIf */
PUSHB[ ]	/* 3 values pushed */
1 0 4
SRP1[ ]	/* SetRefPoint1 */
SRP2[ ]	/* SetRefPoint2 */
IP[ ]	/* InterpolatePts */
PUSHB[ ]	/* 3 values pushed */
7 0 4
SRP1[ ]	/* SetRefPoint1 */
SRP2[ ]	/* SetRefPoint2 */
IP[ ]	/* InterpolatePts */
PUSHB[ ]	/* 3 values pushed */
10 0 4
SRP1[ ]	/* SetRefPoint1 */
SRP2[ ]	/* SetRefPoint2 */
IP[ ]	/* InterpolatePts */
IUP[0]	/* InterpolateUntPts */
IUP[1]	/* InterpolateUntPts */";
};
width = 1729;
}
);
note = uni004D;
unicode = 77;
},
{
glyphname = N;
kernRight = H;
lastChange = "2024-05-16 19:04:50 +0000";
layers = (
{
layerId = m01;
shapes = (
{
closed = 1;
nodes = (
(1152,1404,l),
(1152,92,l),
(246,1404,l),
(193,1404,l),
(193,0,l),
(246,0,l),
(246,1315,l),
(1152,0,l),
(1204,0,l),
(1204,1404,l)
);
}
);
userData = {
assembly = "PUSHB[ ]	/* 3 values pushed */
1 10 11
SRP1[ ]	/* SetRefPoint1 */
SRP2[ ]	/* SetRefPoint2 */
IP[ ]	/* InterpolatePts */
SVTCA[0]	/* SetFreedomAndProjectionVectorToAxis */
PUSHB[ ]	/* 1 value pushed */
0
RCVT[ ]	/* ReadCVT */
IF[ ]	/* If */
PUSHB[ ]	/* 1 value pushed */
5
MDAP[1]	/* MoveDirectAbsPt */
ELSE[ ]	/* Else */
PUSHB[ ]	/* 2 values pushed */
5 31
MIAP[0]	/* MoveIndirectAbsPt */
EIF[ ]	/* EndIf */
PUSHB[ ]	/* 1 value pushed */
0
RCVT[ ]	/* ReadCVT */
IF[ ]	/* If */
PUSHB[ ]	/* 1 value pushed */
8
MDAP[1]	/* MoveDirectAbsPt */
ELSE[ ]	/* Else */
PUSHB[ ]	/* 2 values pushed */
8 31
MIAP[0]	/* MoveIndirectAbsPt */
EIF[ ]	/* EndIf */
PUSHB[ ]	/* 1 value pushed */
0
RCVT[ ]	/* ReadCVT */
IF[ ]	/* If */
PUSHB[ ]	/* 1 value pushed */
0
MDAP[1]	/* MoveDirectAbsPt */
ELSE[ ]	/* Else */
PUSHB[ ]	/* 2 values pushed */
0 15
MIAP[0]	/* MoveIndirectAbsPt */
EIF[ ]	/* EndIf */
PUSHB[ ]	/* 1 value pushed */
0
RCVT[ ]	/* ReadCVT */
IF[ ]	/* If */
PUSHB[ ]	/* 1 value pushed */
3
MDAP[1]	/* MoveDirectAbsPt */
ELSE[ ]	/* Else */
PUSHB[ ]	/* 2 values pushed */
3 15
MIAP[0]	/* MoveIndirectAbsPt */
EIF[ ]	/* EndIf */
PUSHB[ ]	/* 3 values pushed */
2 5 0
SRP1[ ]	/* SetRefPoint1 */
SRP2[ ]	/* SetRefPoint2 */
IP[ ]	/* InterpolatePts */
PUSHB[ ]	/* 3 values pushed */
7 5 0
SRP1[ ]	/* SetRefPoint1 */
SRP2[ ]	/* SetRefPoint2 */
IP[ ]	/* InterpolatePts */
IUP[0]	/* InterpolateUntPts */
IUP[1]	/* InterpolateUntPts */";
};
width = 1397;
},
{
layerId = m002;
shapes = (
{
closed = 1;
nodes = (
(940,1404,l),
(940,529,l),
(444,1404,l),
(106,1404,l),
(106,0,l),
(444,0,l),
(444,875,l),
(940,0,l),
(1275,0,l),
(1275,1404,l)
);
}
);
userData = {
assembly = "PUSHB[ ]	/* 3 values pushed */
1 10 11
SRP1[ ]	/* SetRefPoint1 */
SRP2[ ]	/* SetRefPoint2 */
IP[ ]	/* InterpolatePts */
SVTCA[0]	/* SetFreedomAndProjectionVectorToAxis */
PUSHB[ ]	/* 1 value pushed */
0
RCVT[ ]	/* ReadCVT */
IF[ ]	/* If */
PUSHB[ ]	/* 1 value pushed */
5
MDAP[1]	/* MoveDirectAbsPt */
ELSE[ ]	/* Else */
PUSHB[ ]	/* 2 values pushed */
5 31
MIAP[0]	/* MoveIndirectAbsPt */
EIF[ ]	/* EndIf */
PUSHB[ ]	/* 1 value pushed */
0
RCVT[ ]	/* ReadCVT */
IF[ ]	/* If */
PUSHB[ ]	/* 1 value pushed */
8
MDAP[1]	/* MoveDirectAbsPt */
ELSE[ ]	/* Else */
PUSHB[ ]	/* 2 values pushed */
8 31
MIAP[0]	/* MoveIndirectAbsPt */
EIF[ ]	/* EndIf */
PUSHB[ ]	/* 1 value pushed */
0
RCVT[ ]	/* ReadCVT */
IF[ ]	/* If */
PUSHB[ ]	/* 1 value pushed */
0
MDAP[1]	/* MoveDirectAbsPt */
ELSE[ ]	/* Else */
PUSHB[ ]	/* 2 values pushed */
0 15
MIAP[0]	/* MoveIndirectAbsPt */
EIF[ ]	/* EndIf */
PUSHB[ ]	/* 1 value pushed */
0
RCVT[ ]	/* ReadCVT */
IF[ ]	/* If */
PUSHB[ ]	/* 1 value pushed */
3
MDAP[1]	/* MoveDirectAbsPt */
ELSE[ ]	/* Else */
PUSHB[ ]	/* 2 values pushed */
3 15
MIAP[0]	/* MoveIndirectAbsPt */
EIF[ ]	/* EndIf */
PUSHB[ ]	/* 3 values pushed */
2 5 0
SRP1[ ]	/* SetRefPoint1 */
SRP2[ ]	/* SetRefPoint2 */
IP[ ]	/* InterpolatePts */
PUSHB[ ]	/* 3 values pushed */
7 5 0
SRP1[ ]	/* SetRefPoint1 */
SRP2[ ]	/* SetRefPoint2 */
IP[ ]	/* InterpolatePts */
IUP[0]	/* InterpolateUntPts */
IUP[1]	/* InterpolateUntPts */";
};
width = 1383;
}
);
note = uni004E;
unicode = 78;
},
{
glyphname = Ntilde;
kernRight = H;
lastChange = "2024-05-16 19:04:50 +0000";
layers = (
{
layerId = m01;
shapes = (
{
closed = 1;
nodes = (
(1152,1404,l),
(1152,92,l),
(246,1404,l),
(193,1404,l),
(193,0,l),
(246,0,l),
(246,1315,l),
(1152,0,l),
(1204,0,l),
(1204,1404,l)
);
},
{
closed = 1;
nodes = (
(963,1677,o),
(916,1627,o),
(847,1627,cs),
(810,1627,o),
(767,1647,o),
(718,1686,cs),
(670,1726,o),
(620,1746,o),
(570,1746,cs),
(472,1746,o),
(400,1677,o),
(400,1574,c),
(453,1574,l),
(453,1647,o),
(498,1694,o),
(570,1694,cs),
(610,1694,o),
(653,1674,o),
(699,1634,cs),
(746,1594,o),
(795,1574,o),
(847,1574,cs),
(943,1574,o),
(1016,1648,o),
(1016,1753,c),
(963,1753,l)
);
}
);
width = 1397;
},
{
layerId = m002;
shapes = (
{
closed = 1;
nodes = (
(940,1404,l),
(940,529,l),
(444,1404,l),
(106,1404,l),
(106,0,l),
(444,0,l),
(444,875,l),
(940,0,l),
(1275,0,l),
(1275,1404,l)
);
},
{
closed = 1;
nodes = (
(892,1719,o),
(857,1694,o),
(818,1694,cs),
(769,1694,o),
(743,1707,o),
(675,1738,cs),
(623,1761,o),
(580,1773,o),
(547,1773,cs),
(422,1773,o),
(327,1653,o),
(327,1509,c),
(506,1500,l),
(506,1561,o),
(539,1586,o),
(581,1586,cs),
(613,1586,o),
(655,1573,o),
(708,1546,cs),
(760,1518,o),
(807,1505,o),
(847,1505,cs),
(973,1505,o),
(1069,1620,o),
(1069,1771,c),
(892,1780,l)
);
}
);
width = 1383;
}
);
note = uni00D1;
unicode = 209;
},
{
glyphname = O;
kernLeft = C;
kernRight = D;
lastChange = "2024-05-16 19:04:50 +0000";
layers = (
{
layerId = m01;
shapes = (
{
closed = 1;
nodes = (
(1186,1152,o),
(993,1423,o),
(656,1423,cs),
(311,1423,o),
(128,1144,o),
(128,807,cs),
(128,604,ls),
(128,223,o),
(342,-19,o),
(658,-19,cs),
(1001,-19,o),
(1186,254,o),
(1186,597,cs),
(1186,807,ls)
);
},
{
closed = 1;
nodes = (
(1134,251,o),
(951,33,o),
(658,33,cs),
(344,33,o),
(181,281,o),
(181,597,cs),
(181,802,ls),
(181,1153,o),
(367,1371,o),
(656,1371,cs),
(949,1371,o),
(1134,1148,o),
(1134,809,cs),
(1134,604,ls)
);
}
);
userData = {
assembly = "PUSHB[ ]	/* 3 values pushed */
12 30 31
SRP1[ ]	/* SetRefPoint1 */
SRP2[ ]	/* SetRefPoint2 */
IP[ ]	/* InterpolatePts */
PUSHB[ ]	/* 1 value pushed */
12
SRP0[ ]	/* SetRefPoint0 */
PUSHB[ ]	/* 1 value pushed */
20
MDRP[10000]	/* MoveDirectRelPt */
SVTCA[0]	/* SetFreedomAndProjectionVectorToAxis */
PUSHB[ ]	/* 1 value pushed */
0
RCVT[ ]	/* ReadCVT */
IF[ ]	/* If */
PUSHB[ ]	/* 1 value pushed */
12
MDAP[1]	/* MoveDirectAbsPt */
ELSE[ ]	/* Else */
PUSHB[ ]	/* 2 values pushed */
12 31
MIAP[0]	/* MoveIndirectAbsPt */
EIF[ ]	/* EndIf */
PUSHB[ ]	/* 1 value pushed */
0
RCVT[ ]	/* ReadCVT */
IF[ ]	/* If */
PUSHB[ ]	/* 1 value pushed */
4
MDAP[1]	/* MoveDirectAbsPt */
ELSE[ ]	/* Else */
PUSHB[ ]	/* 2 values pushed */
4 15
MIAP[0]	/* MoveIndirectAbsPt */
EIF[ ]	/* EndIf */
PUSHB[ ]	/* 1 value pushed */
12
SRP0[ ]	/* SetRefPoint0 */
PUSHB[ ]	/* 2 values pushed */
20 11
PUSHB[ ]	/* 1 value pushed */
10
CALL[ ]	/* CallFunction */
IF[ ]	/* If */
POP[ ]	/* PopTopStack */
MDRP[11000]	/* MoveDirectRelPt */
ELSE[ ]	/* Else */
MIRP[10100]	/* MoveIndirectRelPt */
EIF[ ]	/* EndIf */
PUSHB[ ]	/* 1 value pushed */
4
SRP0[ ]	/* SetRefPoint0 */
PUSHB[ ]	/* 2 values pushed */
26 11
PUSHB[ ]	/* 1 value pushed */
10
CALL[ ]	/* CallFunction */
IF[ ]	/* If */
POP[ ]	/* PopTopStack */
MDRP[11000]	/* MoveDirectRelPt */
ELSE[ ]	/* Else */
MIRP[10100]	/* MoveIndirectRelPt */
EIF[ ]	/* EndIf */
IUP[0]	/* InterpolateUntPts */
IUP[1]	/* InterpolateUntPts */";
};
width = 1314;
},
{
layerId = m002;
shapes = (
{
closed = 1;
nodes = (
(1293,1121,o),
(1042,1397,o),
(680,1397,cs),
(317,1397,o),
(67,1131,o),
(67,703,cs),
(67,624,ls),
(76,218,o),
(316,-45,o),
(682,-45,cs),
(1051,-45,o),
(1293,226,o),
(1293,647,cs),
(1293,712,l)
);
},
{
closed = 1;
nodes = (
(951,366,o),
(854,219,o),
(682,219,cs),
(502,219,o),
(412,371,o),
(412,647,cs),
(412,750,ls),
(423,1004,o),
(512,1131,o),
(680,1131,cs),
(854,1131,o),
(951,985,o),
(951,705,cs),
(951,640,l)
);
}
);
userData = {
assembly = "PUSHB[ ]	/* 3 values pushed */
12 30 31
SRP1[ ]	/* SetRefPoint1 */
SRP2[ ]	/* SetRefPoint2 */
IP[ ]	/* InterpolatePts */
PUSHB[ ]	/* 1 value pushed */
12
SRP0[ ]	/* SetRefPoint0 */
PUSHB[ ]	/* 1 value pushed */
20
MDRP[10000]	/* MoveDirectRelPt */
SVTCA[0]	/* SetFreedomAndProjectionVectorToAxis */
PUSHB[ ]	/* 1 value pushed */
0
RCVT[ ]	/* ReadCVT */
IF[ ]	/* If */
PUSHB[ ]	/* 1 value pushed */
12
MDAP[1]	/* MoveDirectAbsPt */
ELSE[ ]	/* Else */
PUSHB[ ]	/* 2 values pushed */
12 31
MIAP[0]	/* MoveIndirectAbsPt */
EIF[ ]	/* EndIf */
PUSHB[ ]	/* 1 value pushed */
0
RCVT[ ]	/* ReadCVT */
IF[ ]	/* If */
PUSHB[ ]	/* 1 value pushed */
4
MDAP[1]	/* MoveDirectAbsPt */
ELSE[ ]	/* Else */
PUSHB[ ]	/* 2 values pushed */
4 15
MIAP[0]	/* MoveIndirectAbsPt */
EIF[ ]	/* EndIf */
PUSHB[ ]	/* 1 value pushed */
12
SRP0[ ]	/* SetRefPoint0 */
PUSHB[ ]	/* 2 values pushed */
20 11
PUSHB[ ]	/* 1 value pushed */
10
CALL[ ]	/* CallFunction */
IF[ ]	/* If */
POP[ ]	/* PopTopStack */
MDRP[11000]	/* MoveDirectRelPt */
ELSE[ ]	/* Else */
MIRP[10100]	/* MoveIndirectRelPt */
EIF[ ]	/* EndIf */
PUSHB[ ]	/* 1 value pushed */
4
SRP0[ ]	/* SetRefPoint0 */
PUSHB[ ]	/* 2 values pushed */
26 11
PUSHB[ ]	/* 1 value pushed */
10
CALL[ ]	/* CallFunction */
IF[ ]	/* If */
POP[ ]	/* PopTopStack */
MDRP[11000]	/* MoveDirectRelPt */
ELSE[ ]	/* Else */
MIRP[10100]	/* MoveIndirectRelPt */
EIF[ ]	/* EndIf */
IUP[0]	/* InterpolateUntPts */
IUP[1]	/* InterpolateUntPts */";
};
width = 1361;
}
);
note = uni004F;
unicode = 79;
},
{
glyphname = Oacute;
kernLeft = C;
kernRight = D;
lastChange = "2024-05-16 19:04:50 +0000";
layers = (
{
layerId = m01;
shapes = (
{
closed = 1;
nodes = (
(1186,1152,o),
(993,1423,o),
(656,1423,cs),
(311,1423,o),
(128,1144,o),
(128,807,cs),
(128,604,ls),
(128,223,o),
(342,-19,o),
(658,-19,cs),
(1001,-19,o),
(1186,254,o),
(1186,597,cs),
(1186,807,ls)
);
},
{
closed = 1;
nodes = (
(1134,251,o),
(951,33,o),
(658,33,cs),
(344,33,o),
(181,281,o),
(181,597,cs),
(181,802,ls),
(181,1153,o),
(367,1371,o),
(656,1371,cs),
(949,1371,o),
(1134,1148,o),
(1134,809,cs),
(1134,604,ls)
);
},
{
closed = 1;
nodes = (
(674,1564,l),
(861,1821,l),
(798,1821,l),
(616,1564,l)
);
}
);
width = 1314;
},
{
layerId = m002;
shapes = (
{
closed = 1;
nodes = (
(1293,1121,o),
(1042,1397,o),
(680,1397,cs),
(317,1397,o),
(67,1131,o),
(67,703,cs),
(67,624,ls),
(76,218,o),
(316,-45,o),
(682,-45,cs),
(1051,-45,o),
(1293,226,o),
(1293,647,cs),
(1293,712,l)
);
},
{
closed = 1;
nodes = (
(951,366,o),
(854,219,o),
(682,219,cs),
(502,219,o),
(412,371,o),
(412,647,cs),
(412,750,ls),
(423,1004,o),
(512,1131,o),
(680,1131,cs),
(854,1131,o),
(951,985,o),
(951,705,cs),
(951,640,l)
);
},
{
closed = 1;
nodes = (
(794,1449,l),
(1063,1752,l),
(721,1752,l),
(529,1449,l)
);
}
);
width = 1361;
}
);
note = uni00D3;
unicode = 211;
},
{
glyphname = Ocircumflex;
kernLeft = C;
kernRight = D;
lastChange = "2024-05-16 19:04:50 +0000";
layers = (
{
layerId = m01;
shapes = (
{
closed = 1;
nodes = (
(1186,1152,o),
(993,1423,o),
(656,1423,cs),
(311,1423,o),
(128,1144,o),
(128,807,cs),
(128,604,ls),
(128,223,o),
(342,-19,o),
(658,-19,cs),
(1001,-19,o),
(1186,254,o),
(1186,597,cs),
(1186,807,ls)
);
},
{
closed = 1;
nodes = (
(1134,251,o),
(951,33,o),
(658,33,cs),
(344,33,o),
(181,281,o),
(181,597,cs),
(181,802,ls),
(181,1153,o),
(367,1371,o),
(656,1371,cs),
(949,1371,o),
(1134,1148,o),
(1134,809,cs),
(1134,604,ls)
);
},
{
closed = 1;
nodes = (
(632,1802,l),
(410,1572,l),
(410,1558,l),
(472,1558,l),
(650,1747,l),
(830,1558,l),
(896,1558,l),
(896,1568,l),
(670,1802,l)
);
}
);
width = 1314;
},
{
layerId = m002;
shapes = (
{
closed = 1;
nodes = (
(1293,1121,o),
(1042,1397,o),
(680,1397,cs),
(317,1397,o),
(67,1131,o),
(67,703,cs),
(67,624,ls),
(76,218,o),
(316,-45,o),
(682,-45,cs),
(1051,-45,o),
(1293,226,o),
(1293,647,cs),
(1293,712,l)
);
},
{
closed = 1;
nodes = (
(951,366,o),
(854,219,o),
(682,219,cs),
(502,219,o),
(412,371,o),
(412,647,cs),
(412,750,ls),
(423,1004,o),
(512,1131,o),
(680,1131,cs),
(854,1131,o),
(951,985,o),
(951,705,cs),
(951,640,l)
);
},
{
closed = 1;
nodes = (
(588,1752,l),
(274,1485,l),
(274,1469,l),
(527,1469,l),
(678,1599,l),
(831,1469,l),
(1088,1469,l),
(1088,1481,l),
(772,1752,l)
);
}
);
width = 1361;
}
);
note = uni00D4;
unicode = 212;
},
{
glyphname = Odieresis;
kernLeft = C;
kernRight = D;
lastChange = "2024-05-16 19:04:50 +0000";
layers = (
{
layerId = m01;
shapes = (
{
closed = 1;
nodes = (
(1186,1152,o),
(993,1423,o),
(656,1423,cs),
(311,1423,o),
(128,1144,o),
(128,807,cs),
(128,604,ls),
(128,223,o),
(342,-19,o),
(658,-19,cs),
(1001,-19,o),
(1186,254,o),
(1186,597,cs),
(1186,807,ls)
);
},
{
closed = 1;
nodes = (
(1134,251,o),
(951,33,o),
(658,33,cs),
(344,33,o),
(181,281,o),
(181,597,cs),
(181,802,ls),
(181,1153,o),
(367,1371,o),
(656,1371,cs),
(949,1371,o),
(1134,1148,o),
(1134,809,cs),
(1134,604,ls)
);
},
{
closed = 1;
nodes = (
(385,1680,o),
(409,1657,o),
(438,1657,cs),
(468,1657,o),
(492,1680,o),
(492,1710,cs),
(492,1739,o),
(468,1764,o),
(438,1764,cs),
(409,1764,o),
(385,1739,o),
(385,1710,cs)
);
},
{
closed = 1;
nodes = (
(814,1680,o),
(837,1657,o),
(867,1657,cs),
(897,1657,o),
(921,1680,o),
(921,1710,cs),
(921,1739,o),
(897,1764,o),
(867,1764,cs),
(837,1764,o),
(814,1739,o),
(814,1710,cs)
);
}
);
width = 1314;
},
{
layerId = m002;
shapes = (
{
closed = 1;
nodes = (
(1293,1121,o),
(1042,1397,o),
(680,1397,cs),
(317,1397,o),
(67,1131,o),
(67,703,cs),
(67,624,ls),
(76,218,o),
(316,-45,o),
(682,-45,cs),
(1051,-45,o),
(1293,226,o),
(1293,647,cs),
(1293,712,l)
);
},
{
closed = 1;
nodes = (
(951,366,o),
(854,219,o),
(682,219,cs),
(502,219,o),
(412,371,o),
(412,647,cs),
(412,750,ls),
(423,1004,o),
(512,1131,o),
(680,1131,cs),
(854,1131,o),
(951,985,o),
(951,705,cs),
(951,640,l)
);
},
{
closed = 1;
nodes = (
(281,1516,o),
(347,1460,o),
(428,1460,cs),
(508,1460,o),
(574,1517,o),
(574,1587,cs),
(574,1658,o),
(508,1715,o),
(428,1715,cs),
(347,1715,o),
(281,1658,o),
(281,1588,cs)
);
},
{
closed = 1;
nodes = (
(781,1516,o),
(847,1460,o),
(928,1460,cs),
(1009,1460,o),
(1074,1517,o),
(1074,1587,cs),
(1074,1658,o),
(1009,1715,o),
(928,1715,cs),
(847,1715,o),
(781,1658,o),
(781,1588,cs)
);
}
);
width = 1361;
}
);
note = uni00D6;
unicode = 214;
},
{
glyphname = Ograve;
kernLeft = C;
kernRight = D;
lastChange = "2024-05-16 19:04:50 +0000";
layers = (
{
layerId = m01;
shapes = (
{
closed = 1;
nodes = (
(1186,1152,o),
(993,1423,o),
(656,1423,cs),
(311,1423,o),
(128,1144,o),
(128,807,cs),
(128,604,ls),
(128,223,o),
(342,-19,o),
(658,-19,cs),
(1001,-19,o),
(1186,254,o),
(1186,597,cs),
(1186,807,ls)
);
},
{
closed = 1;
nodes = (
(1134,251,o),
(951,33,o),
(658,33,cs),
(344,33,o),
(181,281,o),
(181,597,cs),
(181,802,ls),
(181,1153,o),
(367,1371,o),
(656,1371,cs),
(949,1371,o),
(1134,1148,o),
(1134,809,cs),
(1134,604,ls)
);
},
{
closed = 1;
nodes = (
(444,1821,l),
(632,1564,l),
(689,1564,l),
(508,1821,l)
);
}
);
width = 1314;
},
{
layerId = m002;
shapes = (
{
closed = 1;
nodes = (
(1293,1121,o),
(1042,1397,o),
(680,1397,cs),
(317,1397,o),
(67,1131,o),
(67,703,cs),
(67,624,ls),
(76,218,o),
(316,-45,o),
(682,-45,cs),
(1051,-45,o),
(1293,226,o),
(1293,647,cs),
(1293,712,l)
);
},
{
closed = 1;
nodes = (
(951,366,o),
(854,219,o),
(682,219,cs),
(502,219,o),
(412,371,o),
(412,647,cs),
(412,750,ls),
(423,1004,o),
(512,1131,o),
(680,1131,cs),
(854,1131,o),
(951,985,o),
(951,705,cs),
(951,640,l)
);
},
{
closed = 1;
nodes = (
(297,1752,l),
(570,1449,l),
(833,1449,l),
(642,1752,l)
);
}
);
width = 1361;
}
);
note = uni00D2;
unicode = 210;
},
{
glyphname = Oslash;
kernLeft = C;
lastChange = "2024-05-16 19:04:50 +0000";
layers = (
{
layerId = m01;
shapes = (
{
closed = 1;
nodes = (
(1186,978,o),
(1143,1119,o),
(1060,1229,c),
(1195,1441,l),
(1131,1441,l),
(1024,1272,l),
(927,1372,o),
(804,1423,o),
(656,1423,cs),
(311,1423,o),
(128,1144,o),
(128,807,cs),
(128,606,ls),
(128,399,o),
(184,238,o),
(295,125,c),
(170,-72,l),
(234,-72,l),
(336,89,l),
(425,17,o),
(533,-19,o),
(658,-19,cs),
(1001,-19,o),
(1186,254,o),
(1186,597,cs),
(1186,809,ls)
);
},
{
closed = 1;
nodes = (
(1134,251,o),
(951,33,o),
(658,33,cs),
(542,33,o),
(444,66,o),
(364,132,c),
(1031,1183,l),
(1100,1086,o),
(1134,961,o),
(1134,809,cs),
(1134,604,ls)
);
},
{
closed = 1;
nodes = (
(181,1153,o),
(367,1371,o),
(656,1371,cs),
(797,1371,o),
(911,1323,o),
(995,1227,c),
(324,170,l),
(229,272,o),
(181,414,o),
(181,597,cs),
(181,802,ls)
);
}
);
userData = {
assembly = "SVTCA[0]	/* SetFreedomAndProjectionVectorToAxis */
PUSHB[ ]	/* 1 value pushed */
0
RCVT[ ]	/* ReadCVT */
IF[ ]	/* If */
PUSHB[ ]	/* 1 value pushed */
16
MDAP[1]	/* MoveDirectAbsPt */
ELSE[ ]	/* Else */
PUSHB[ ]	/* 2 values pushed */
16 31
MIAP[0]	/* MoveIndirectAbsPt */
EIF[ ]	/* EndIf */
PUSHB[ ]	/* 1 value pushed */
0
RCVT[ ]	/* ReadCVT */
IF[ ]	/* If */
PUSHB[ ]	/* 1 value pushed */
4
MDAP[1]	/* MoveDirectAbsPt */
ELSE[ ]	/* Else */
PUSHB[ ]	/* 2 values pushed */
4 15
MIAP[0]	/* MoveIndirectAbsPt */
EIF[ ]	/* EndIf */
PUSHB[ ]	/* 1 value pushed */
16
SRP0[ ]	/* SetRefPoint0 */
PUSHB[ ]	/* 2 values pushed */
38 11
PUSHB[ ]	/* 1 value pushed */
10
CALL[ ]	/* CallFunction */
IF[ ]	/* If */
POP[ ]	/* PopTopStack */
MDRP[11000]	/* MoveDirectRelPt */
ELSE[ ]	/* Else */
MIRP[10100]	/* MoveIndirectRelPt */
EIF[ ]	/* EndIf */
PUSHB[ ]	/* 1 value pushed */
36
MDRP[10000]	/* MoveDirectRelPt */
PUSHB[ ]	/* 1 value pushed */
26
MDRP[10000]	/* MoveDirectRelPt */
PUSHB[ ]	/* 1 value pushed */
4
SRP0[ ]	/* SetRefPoint0 */
PUSHB[ ]	/* 2 values pushed */
29 11
PUSHB[ ]	/* 1 value pushed */
10
CALL[ ]	/* CallFunction */
IF[ ]	/* If */
POP[ ]	/* PopTopStack */
MDRP[11000]	/* MoveDirectRelPt */
ELSE[ ]	/* Else */
MIRP[10100]	/* MoveIndirectRelPt */
EIF[ ]	/* EndIf */
PUSHB[ ]	/* 1 value pushed */
27
MDRP[10000]	/* MoveDirectRelPt */
PUSHB[ ]	/* 1 value pushed */
35
MDRP[10000]	/* MoveDirectRelPt */
IUP[0]	/* InterpolateUntPts */
IUP[1]	/* InterpolateUntPts */";
};
width = 1315;
},
{
layerId = m002;
shapes = (
{
closed = 1;
nodes = (
(1304,829,o),
(1239,1008,o),
(1110,1135,c),
(1227,1339,l),
(1024,1339,l),
(966,1236,l),
(884,1279,o),
(791,1300,o),
(691,1300,cs),
(328,1300,o),
(78,1034,o),
(78,606,cs),
(78,557,ls),
(78,328,o),
(142,151,o),
(270,22,c),
(134,-214,l),
(335,-214,l),
(412,-79,l),
(495,-121,o),
(590,-142,o),
(693,-142,cs),
(1053,-142,o),
(1304,124,o),
(1304,550,cs),
(1304,600,l)
);
},
{
closed = 1;
nodes = (
(958,270,o),
(865,122,o),
(693,122,cs),
(638,122,o),
(590,136,o),
(551,165,c),
(932,829,l),
(952,768,o),
(962,694,o),
(962,608,cs),
(962,543,l)
);
},
{
closed = 1;
nodes = (
(423,889,o),
(511,1034,o),
(691,1034,cs),
(742,1034,o),
(787,1021,o),
(826,993,c),
(448,331,l),
(431,392,o),
(423,464,o),
(423,550,cs),
(423,615,l)
);
}
);
userData = {
assembly = "SVTCA[0]	/* SetFreedomAndProjectionVectorToAxis */
PUSHB[ ]	/* 1 value pushed */
0
RCVT[ ]	/* ReadCVT */
IF[ ]	/* If */
PUSHB[ ]	/* 1 value pushed */
16
MDAP[1]	/* MoveDirectAbsPt */
ELSE[ ]	/* Else */
PUSHB[ ]	/* 2 values pushed */
16 31
MIAP[0]	/* MoveIndirectAbsPt */
EIF[ ]	/* EndIf */
PUSHB[ ]	/* 1 value pushed */
0
RCVT[ ]	/* ReadCVT */
IF[ ]	/* If */
PUSHB[ ]	/* 1 value pushed */
4
MDAP[1]	/* MoveDirectAbsPt */
ELSE[ ]	/* Else */
PUSHB[ ]	/* 2 values pushed */
4 15
MIAP[0]	/* MoveIndirectAbsPt */
EIF[ ]	/* EndIf */
PUSHB[ ]	/* 1 value pushed */
16
SRP0[ ]	/* SetRefPoint0 */
PUSHB[ ]	/* 2 values pushed */
38 11
PUSHB[ ]	/* 1 value pushed */
10
CALL[ ]	/* CallFunction */
IF[ ]	/* If */
POP[ ]	/* PopTopStack */
MDRP[11000]	/* MoveDirectRelPt */
ELSE[ ]	/* Else */
MIRP[10100]	/* MoveIndirectRelPt */
EIF[ ]	/* EndIf */
PUSHB[ ]	/* 1 value pushed */
36
MDRP[10000]	/* MoveDirectRelPt */
PUSHB[ ]	/* 1 value pushed */
26
MDRP[10000]	/* MoveDirectRelPt */
PUSHB[ ]	/* 1 value pushed */
4
SRP0[ ]	/* SetRefPoint0 */
PUSHB[ ]	/* 2 values pushed */
29 11
PUSHB[ ]	/* 1 value pushed */
10
CALL[ ]	/* CallFunction */
IF[ ]	/* If */
POP[ ]	/* PopTopStack */
MDRP[11000]	/* MoveDirectRelPt */
ELSE[ ]	/* Else */
MIRP[10100]	/* MoveIndirectRelPt */
EIF[ ]	/* EndIf */
PUSHB[ ]	/* 1 value pushed */
27
MDRP[10000]	/* MoveDirectRelPt */
PUSHB[ ]	/* 1 value pushed */
35
MDRP[10000]	/* MoveDirectRelPt */
IUP[0]	/* InterpolateUntPts */
IUP[1]	/* InterpolateUntPts */";
};
width = 1357;
}
);
note = uni00D8;
unicode = 216;
},
{
glyphname = Otilde;
kernLeft = C;
kernRight = D;
lastChange = "2024-05-16 19:04:50 +0000";
layers = (
{
layerId = m01;
shapes = (
{
closed = 1;
nodes = (
(1186,1152,o),
(993,1423,o),
(656,1423,cs),
(311,1423,o),
(128,1144,o),
(128,807,cs),
(128,604,ls),
(128,223,o),
(342,-19,o),
(658,-19,cs),
(1001,-19,o),
(1186,254,o),
(1186,597,cs),
(1186,807,ls)
);
},
{
closed = 1;
nodes = (
(1134,251,o),
(951,33,o),
(658,33,cs),
(344,33,o),
(181,281,o),
(181,597,cs),
(181,802,ls),
(181,1153,o),
(367,1371,o),
(656,1371,cs),
(949,1371,o),
(1134,1148,o),
(1134,809,cs),
(1134,604,ls)
);
},
{
closed = 1;
nodes = (
(914,1698,o),
(867,1648,o),
(798,1648,cs),
(761,1648,o),
(718,1668,o),
(669,1707,cs),
(621,1747,o),
(571,1767,o),
(521,1767,cs),
(423,1767,o),
(351,1698,o),
(351,1595,c),
(404,1595,l),
(404,1668,o),
(449,1715,o),
(521,1715,cs),
(561,1715,o),
(604,1695,o),
(650,1655,cs),
(697,1615,o),
(746,1595,o),
(798,1595,cs),
(894,1595,o),
(967,1669,o),
(967,1774,c),
(914,1774,l)
);
}
);
width = 1314;
},
{
layerId = m002;
shapes = (
{
closed = 1;
nodes = (
(1293,1121,o),
(1042,1397,o),
(680,1397,cs),
(317,1397,o),
(67,1131,o),
(67,703,cs),
(67,624,ls),
(76,218,o),
(316,-45,o),
(682,-45,cs),
(1051,-45,o),
(1293,226,o),
(1293,647,cs),
(1293,712,l)
);
},
{
closed = 1;
nodes = (
(951,366,o),
(854,219,o),
(682,219,cs),
(502,219,o),
(412,371,o),
(412,647,cs),
(412,750,ls),
(423,1004,o),
(512,1131,o),
(680,1131,cs),
(854,1131,o),
(951,985,o),
(951,705,cs),
(951,640,l)
);
},
{
closed = 1;
nodes = (
(871,1695,o),
(837,1668,o),
(794,1668,cs),
(750,1668,o),
(724,1680,o),
(653,1711,cs),
(601,1735,o),
(559,1746,o),
(529,1746,cs),
(403,1746,o),
(306,1629,o),
(306,1485,c),
(486,1475,l),
(486,1532,o),
(519,1561,o),
(558,1561,cs),
(591,1561,o),
(634,1548,o),
(687,1520,cs),
(739,1494,o),
(786,1481,o),
(826,1481,cs),
(956,1481,o),
(1050,1596,o),
(1050,1744,c),
(871,1755,l)
);
}
);
width = 1361;
}
);
note = uni00D5;
unicode = 213;
},
{
glyphname = OE;
kernLeft = C;
lastChange = "2024-05-16 19:04:50 +0000";
layers = (
{
layerId = m01;
shapes = (
{
closed = 1;
nodes = (
(934,52,l),
(934,696,l),
(1638,696,l),
(1638,748,l),
(934,748,l),
(934,1352,l),
(1736,1352,l),
(1736,1404,l),
(926,1404,l),
(804,1416,o),
(697,1423,o),
(606,1423,cs),
(310,1423,o),
(108,1188,o),
(108,848,cs),
(108,545,ls),
(112,213,o),
(313,-20,o),
(608,-20,cs),
(692,-20,o),
(798,-13,o),
(926,0,c),
(1736,0,l),
(1736,52,l)
);
},
{
closed = 1;
nodes = (
(327,32,o),
(160,261,o),
(160,555,cs),
(160,844,ls),
(160,1167,o),
(337,1371,o),
(606,1371,cs),
(721,1371,o),
(813,1367,o),
(882,1358,c),
(882,44,l),
(814,36,o),
(722,32,o),
(608,32,cs)
);
}
);
userData = {
assembly = "PUSHB[ ]	/* 3 values pushed */
1 36 37
SRP1[ ]	/* SetRefPoint1 */
SRP2[ ]	/* SetRefPoint2 */
IP[ ]	/* InterpolatePts */
PUSHB[ ]	/* 1 value pushed */
1
SRP0[ ]	/* SetRefPoint0 */
PUSHB[ ]	/* 1 value pushed */
26
MDRP[10000]	/* MoveDirectRelPt */
SVTCA[0]	/* SetFreedomAndProjectionVectorToAxis */
PUSHB[ ]	/* 1 value pushed */
0
RCVT[ ]	/* ReadCVT */
IF[ ]	/* If */
PUSHB[ ]	/* 1 value pushed */
12
MDAP[1]	/* MoveDirectAbsPt */
ELSE[ ]	/* Else */
PUSHB[ ]	/* 2 values pushed */
12 31
MIAP[0]	/* MoveIndirectAbsPt */
EIF[ ]	/* EndIf */
PUSHB[ ]	/* 1 value pushed */
0
RCVT[ ]	/* ReadCVT */
IF[ ]	/* If */
PUSHB[ ]	/* 1 value pushed */
14
MDAP[1]	/* MoveDirectAbsPt */
ELSE[ ]	/* Else */
PUSHB[ ]	/* 2 values pushed */
14 31
MIAP[0]	/* MoveIndirectAbsPt */
EIF[ ]	/* EndIf */
PUSHB[ ]	/* 1 value pushed */
0
RCVT[ ]	/* ReadCVT */
IF[ ]	/* If */
PUSHB[ ]	/* 1 value pushed */
0
MDAP[1]	/* MoveDirectAbsPt */
ELSE[ ]	/* Else */
PUSHB[ ]	/* 2 values pushed */
0 15
MIAP[0]	/* MoveIndirectAbsPt */
EIF[ ]	/* EndIf */
PUSHB[ ]	/* 1 value pushed */
0
RCVT[ ]	/* ReadCVT */
IF[ ]	/* If */
PUSHB[ ]	/* 1 value pushed */
3
MDAP[1]	/* MoveDirectAbsPt */
ELSE[ ]	/* Else */
PUSHB[ ]	/* 2 values pushed */
3 15
MIAP[0]	/* MoveIndirectAbsPt */
EIF[ ]	/* EndIf */
PUSHB[ ]	/* 1 value pushed */
14
SRP0[ ]	/* SetRefPoint0 */
PUSHB[ ]	/* 2 values pushed */
16 1
PUSHB[ ]	/* 1 value pushed */
10
CALL[ ]	/* CallFunction */
IF[ ]	/* If */
POP[ ]	/* PopTopStack */
MDRP[11000]	/* MoveDirectRelPt */
ELSE[ ]	/* Else */
MIRP[10100]	/* MoveIndirectRelPt */
EIF[ ]	/* EndIf */
PUSHB[ ]	/* 3 values pushed */
19 0 14
SRP1[ ]	/* SetRefPoint1 */
SRP2[ ]	/* SetRefPoint2 */
IP[ ]	/* InterpolatePts */
PUSHB[ ]	/* 1 value pushed */
19
MDAP[1]	/* MoveDirectAbsPt */
PUSHB[ ]	/* 3 values pushed */
191 19 1
DELTAP1[ ]	/* DeltaExceptionP1 */
PUSHB[ ]	/* 2 values pushed */
20 1
PUSHB[ ]	/* 1 value pushed */
10
CALL[ ]	/* CallFunction */
IF[ ]	/* If */
POP[ ]	/* PopTopStack */
MDRP[11000]	/* MoveDirectRelPt */
ELSE[ ]	/* Else */
MIRP[10100]	/* MoveIndirectRelPt */
EIF[ ]	/* EndIf */
PUSHB[ ]	/* 1 value pushed */
0
SRP0[ ]	/* SetRefPoint0 */
PUSHB[ ]	/* 2 values pushed */
22 1
PUSHB[ ]	/* 1 value pushed */
10
CALL[ ]	/* CallFunction */
IF[ ]	/* If */
POP[ ]	/* PopTopStack */
MDRP[11000]	/* MoveDirectRelPt */
ELSE[ ]	/* Else */
MIRP[10100]	/* MoveIndirectRelPt */
EIF[ ]	/* EndIf */
PUSHB[ ]	/* 1 value pushed */
3
SRP0[ ]	/* SetRefPoint0 */
PUSHB[ ]	/* 2 values pushed */
24 1
PUSHB[ ]	/* 1 value pushed */
10
CALL[ ]	/* CallFunction */
IF[ ]	/* If */
POP[ ]	/* PopTopStack */
MDRP[11000]	/* MoveDirectRelPt */
ELSE[ ]	/* Else */
MIRP[10100]	/* MoveIndirectRelPt */
EIF[ ]	/* EndIf */
PUSHB[ ]	/* 1 value pushed */
12
SRP0[ ]	/* SetRefPoint0 */
PUSHB[ ]	/* 2 values pushed */
29 1
PUSHB[ ]	/* 1 value pushed */
10
CALL[ ]	/* CallFunction */
IF[ ]	/* If */
POP[ ]	/* PopTopStack */
MDRP[11000]	/* MoveDirectRelPt */
ELSE[ ]	/* Else */
MIRP[10100]	/* MoveIndirectRelPt */
EIF[ ]	/* EndIf */
IUP[0]	/* InterpolateUntPts */
IUP[1]	/* InterpolateUntPts */";
};
width = 1805;
},
{
layerId = m002;
shapes = (
{
closed = 1;
nodes = (
(1220,234,l),
(1220,568,l),
(1751,568,l),
(1751,820,l),
(1220,820,l),
(1220,1115,l),
(1848,1115,l),
(1848,1376,l),
(975,1376,l),
(866,1390,o),
(773,1397,o),
(695,1397,cs),
(337,1397,o),
(89,1164,o),
(89,823,cs),
(89,527,ls),
(89,193,o),
(332,-45,o),
(697,-45,cs),
(774,-45,o),
(866,-38,o),
(975,-25,c),
(1846,-25,l),
(1846,234,l)
);
},
{
closed = 1;
nodes = (
(524,205,o),
(416,314,o),
(416,529,cs),
(416,825,ls),
(416,1041,o),
(520,1144,o),
(695,1144,cs),
(753,1144,o),
(816,1141,o),
(882,1133,c),
(882,217,l),
(822,209,o),
(760,205,o),
(697,205,cs)
);
}
);
userData = {
assembly = "PUSHB[ ]	/* 3 values pushed */
1 36 37
SRP1[ ]	/* SetRefPoint1 */
SRP2[ ]	/* SetRefPoint2 */
IP[ ]	/* InterpolatePts */
PUSHB[ ]	/* 1 value pushed */
1
SRP0[ ]	/* SetRefPoint0 */
PUSHB[ ]	/* 1 value pushed */
26
MDRP[10000]	/* MoveDirectRelPt */
SVTCA[0]	/* SetFreedomAndProjectionVectorToAxis */
PUSHB[ ]	/* 1 value pushed */
0
RCVT[ ]	/* ReadCVT */
IF[ ]	/* If */
PUSHB[ ]	/* 1 value pushed */
12
MDAP[1]	/* MoveDirectAbsPt */
ELSE[ ]	/* Else */
PUSHB[ ]	/* 2 values pushed */
12 31
MIAP[0]	/* MoveIndirectAbsPt */
EIF[ ]	/* EndIf */
PUSHB[ ]	/* 1 value pushed */
0
RCVT[ ]	/* ReadCVT */
IF[ ]	/* If */
PUSHB[ ]	/* 1 value pushed */
14
MDAP[1]	/* MoveDirectAbsPt */
ELSE[ ]	/* Else */
PUSHB[ ]	/* 2 values pushed */
14 31
MIAP[0]	/* MoveIndirectAbsPt */
EIF[ ]	/* EndIf */
PUSHB[ ]	/* 1 value pushed */
0
RCVT[ ]	/* ReadCVT */
IF[ ]	/* If */
PUSHB[ ]	/* 1 value pushed */
0
MDAP[1]	/* MoveDirectAbsPt */
ELSE[ ]	/* Else */
PUSHB[ ]	/* 2 values pushed */
0 15
MIAP[0]	/* MoveIndirectAbsPt */
EIF[ ]	/* EndIf */
PUSHB[ ]	/* 1 value pushed */
0
RCVT[ ]	/* ReadCVT */
IF[ ]	/* If */
PUSHB[ ]	/* 1 value pushed */
3
MDAP[1]	/* MoveDirectAbsPt */
ELSE[ ]	/* Else */
PUSHB[ ]	/* 2 values pushed */
3 15
MIAP[0]	/* MoveIndirectAbsPt */
EIF[ ]	/* EndIf */
PUSHB[ ]	/* 1 value pushed */
14
SRP0[ ]	/* SetRefPoint0 */
PUSHB[ ]	/* 2 values pushed */
16 1
PUSHB[ ]	/* 1 value pushed */
10
CALL[ ]	/* CallFunction */
IF[ ]	/* If */
POP[ ]	/* PopTopStack */
MDRP[11000]	/* MoveDirectRelPt */
ELSE[ ]	/* Else */
MIRP[10100]	/* MoveIndirectRelPt */
EIF[ ]	/* EndIf */
PUSHB[ ]	/* 3 values pushed */
19 0 14
SRP1[ ]	/* SetRefPoint1 */
SRP2[ ]	/* SetRefPoint2 */
IP[ ]	/* InterpolatePts */
PUSHB[ ]	/* 1 value pushed */
19
MDAP[1]	/* MoveDirectAbsPt */
PUSHB[ ]	/* 3 values pushed */
191 19 1
DELTAP1[ ]	/* DeltaExceptionP1 */
PUSHB[ ]	/* 2 values pushed */
20 1
PUSHB[ ]	/* 1 value pushed */
10
CALL[ ]	/* CallFunction */
IF[ ]	/* If */
POP[ ]	/* PopTopStack */
MDRP[11000]	/* MoveDirectRelPt */
ELSE[ ]	/* Else */
MIRP[10100]	/* MoveIndirectRelPt */
EIF[ ]	/* EndIf */
PUSHB[ ]	/* 1 value pushed */
0
SRP0[ ]	/* SetRefPoint0 */
PUSHB[ ]	/* 2 values pushed */
22 1
PUSHB[ ]	/* 1 value pushed */
10
CALL[ ]	/* CallFunction */
IF[ ]	/* If */
POP[ ]	/* PopTopStack */
MDRP[11000]	/* MoveDirectRelPt */
ELSE[ ]	/* Else */
MIRP[10100]	/* MoveIndirectRelPt */
EIF[ ]	/* EndIf */
PUSHB[ ]	/* 1 value pushed */
3
SRP0[ ]	/* SetRefPoint0 */
PUSHB[ ]	/* 2 values pushed */
24 1
PUSHB[ ]	/* 1 value pushed */
10
CALL[ ]	/* CallFunction */
IF[ ]	/* If */
POP[ ]	/* PopTopStack */
MDRP[11000]	/* MoveDirectRelPt */
ELSE[ ]	/* Else */
MIRP[10100]	/* MoveIndirectRelPt */
EIF[ ]	/* EndIf */
PUSHB[ ]	/* 1 value pushed */
12
SRP0[ ]	/* SetRefPoint0 */
PUSHB[ ]	/* 2 values pushed */
29 1
PUSHB[ ]	/* 1 value pushed */
10
CALL[ ]	/* CallFunction */
IF[ ]	/* If */
POP[ ]	/* PopTopStack */
MDRP[11000]	/* MoveDirectRelPt */
ELSE[ ]	/* Else */
MIRP[10100]	/* MoveIndirectRelPt */
EIF[ ]	/* EndIf */
IUP[0]	/* InterpolateUntPts */
IUP[1]	/* InterpolateUntPts */";
};
width = 1919;
}
);
note = uni0152;
unicode = 338;
},
{
glyphname = P;
kernRight = P;
lastChange = "2024-05-16 19:04:50 +0000";
layers = (
{
layerId = m01;
shapes = (
{
closed = 1;
nodes = (
(924,595,o),
(1085,739,o),
(1085,994,cs),
(1085,1251,o),
(918,1404,o),
(632,1404,cs),
(193,1404,l),
(193,0,l),
(245,0,l),
(245,593,l),
(638,593,ls)
);
},
{
closed = 1;
nodes = (
(632,1352,ls),
(885,1352,o),
(1033,1218,o),
(1033,992,cs),
(1033,773,o),
(885,645,o),
(632,645,cs),
(245,645,l),
(245,1352,l)
);
}
);
userData = {
assembly = "PUSHB[ ]	/* 3 values pushed */
11 21 22
SRP1[ ]	/* SetRefPoint1 */
SRP2[ ]	/* SetRefPoint2 */
IP[ ]	/* InterpolatePts */
PUSHB[ ]	/* 1 value pushed */
11
SRP0[ ]	/* SetRefPoint0 */
PUSHB[ ]	/* 1 value pushed */
13
MDRP[10000]	/* MoveDirectRelPt */
SVTCA[0]	/* SetFreedomAndProjectionVectorToAxis */
PUSHB[ ]	/* 1 value pushed */
0
RCVT[ ]	/* ReadCVT */
IF[ ]	/* If */
PUSHB[ ]	/* 1 value pushed */
3
MDAP[1]	/* MoveDirectAbsPt */
ELSE[ ]	/* Else */
PUSHB[ ]	/* 2 values pushed */
3 31
MIAP[0]	/* MoveIndirectAbsPt */
EIF[ ]	/* EndIf */
PUSHB[ ]	/* 1 value pushed */
0
RCVT[ ]	/* ReadCVT */
IF[ ]	/* If */
PUSHB[ ]	/* 1 value pushed */
1
MDAP[1]	/* MoveDirectAbsPt */
ELSE[ ]	/* Else */
PUSHB[ ]	/* 2 values pushed */
1 15
MIAP[0]	/* MoveIndirectAbsPt */
EIF[ ]	/* EndIf */
PUSHB[ ]	/* 3 values pushed */
12 3 1
SRP1[ ]	/* SetRefPoint1 */
SRP2[ ]	/* SetRefPoint2 */
IP[ ]	/* InterpolatePts */
PUSHB[ ]	/* 1 value pushed */
12
MDAP[1]	/* MoveDirectAbsPt */
PUSHB[ ]	/* 2 values pushed */
0 1
PUSHB[ ]	/* 1 value pushed */
10
CALL[ ]	/* CallFunction */
IF[ ]	/* If */
POP[ ]	/* PopTopStack */
MDRP[11000]	/* MoveDirectRelPt */
ELSE[ ]	/* Else */
MIRP[10100]	/* MoveIndirectRelPt */
EIF[ ]	/* EndIf */
PUSHB[ ]	/* 1 value pushed */
3
SRP0[ ]	/* SetRefPoint0 */
PUSHB[ ]	/* 2 values pushed */
19 1
PUSHB[ ]	/* 1 value pushed */
10
CALL[ ]	/* CallFunction */
IF[ ]	/* If */
POP[ ]	/* PopTopStack */
MDRP[11000]	/* MoveDirectRelPt */
ELSE[ ]	/* Else */
MIRP[10100]	/* MoveIndirectRelPt */
EIF[ ]	/* EndIf */
IUP[0]	/* InterpolateUntPts */
IUP[1]	/* InterpolateUntPts */";
};
width = 1186;
},
{
layerId = m002;
shapes = (
{
closed = 1;
nodes = (
(1003,477,o),
(1209,652,o),
(1209,926,cs),
(1209,1201,o),
(999,1404,o),
(665,1404,cs),
(106,1404,l),
(106,0,l),
(444,0,l),
(444,477,l),
(658,477,l)
);
},
{
closed = 1;
nodes = (
(669,1140,ls),
(789,1140,o),
(865,1056,o),
(865,924,cs),
(865,803,o),
(797,737,o),
(665,737,cs),
(444,737,l),
(444,1140,l)
);
}
);
userData = {
assembly = "PUSHB[ ]	/* 3 values pushed */
11 21 22
SRP1[ ]	/* SetRefPoint1 */
SRP2[ ]	/* SetRefPoint2 */
IP[ ]	/* InterpolatePts */
PUSHB[ ]	/* 1 value pushed */
11
SRP0[ ]	/* SetRefPoint0 */
PUSHB[ ]	/* 1 value pushed */
13
MDRP[10000]	/* MoveDirectRelPt */
SVTCA[0]	/* SetFreedomAndProjectionVectorToAxis */
PUSHB[ ]	/* 1 value pushed */
0
RCVT[ ]	/* ReadCVT */
IF[ ]	/* If */
PUSHB[ ]	/* 1 value pushed */
3
MDAP[1]	/* MoveDirectAbsPt */
ELSE[ ]	/* Else */
PUSHB[ ]	/* 2 values pushed */
3 31
MIAP[0]	/* MoveIndirectAbsPt */
EIF[ ]	/* EndIf */
PUSHB[ ]	/* 1 value pushed */
0
RCVT[ ]	/* ReadCVT */
IF[ ]	/* If */
PUSHB[ ]	/* 1 value pushed */
1
MDAP[1]	/* MoveDirectAbsPt */
ELSE[ ]	/* Else */
PUSHB[ ]	/* 2 values pushed */
1 15
MIAP[0]	/* MoveIndirectAbsPt */
EIF[ ]	/* EndIf */
PUSHB[ ]	/* 3 values pushed */
12 3 1
SRP1[ ]	/* SetRefPoint1 */
SRP2[ ]	/* SetRefPoint2 */
IP[ ]	/* InterpolatePts */
PUSHB[ ]	/* 1 value pushed */
12
MDAP[1]	/* MoveDirectAbsPt */
PUSHB[ ]	/* 2 values pushed */
0 1
PUSHB[ ]	/* 1 value pushed */
10
CALL[ ]	/* CallFunction */
IF[ ]	/* If */
POP[ ]	/* PopTopStack */
MDRP[11000]	/* MoveDirectRelPt */
ELSE[ ]	/* Else */
MIRP[10100]	/* MoveIndirectRelPt */
EIF[ ]	/* EndIf */
PUSHB[ ]	/* 1 value pushed */
3
SRP0[ ]	/* SetRefPoint0 */
PUSHB[ ]	/* 2 values pushed */
19 1
PUSHB[ ]	/* 1 value pushed */
10
CALL[ ]	/* CallFunction */
IF[ ]	/* If */
POP[ ]	/* PopTopStack */
MDRP[11000]	/* MoveDirectRelPt */
ELSE[ ]	/* Else */
MIRP[10100]	/* MoveIndirectRelPt */
EIF[ ]	/* EndIf */
IUP[0]	/* InterpolateUntPts */
IUP[1]	/* InterpolateUntPts */";
};
width = 1283;
}
);
note = uni0050;
unicode = 80;
},
{
glyphname = Thorn;
lastChange = "2024-05-16 19:04:50 +0000";
layers = (
{
layerId = m01;
shapes = (
{
closed = 1;
nodes = (
(193,0,l),
(245,0,l),
(245,322,l),
(616,322,ls),
(874,327,o),
(1036,480,o),
(1036,711,cs),
(1036,944,o),
(873,1099,o),
(608,1102,cs),
(245,1102,l),
(245,1404,l),
(193,1404,l)
);
},
{
closed = 1;
nodes = (
(841,1045,o),
(984,906,o),
(984,710,cs),
(984,514,o),
(835,374,o),
(602,374,cs),
(245,374,l),
(245,1050,l),
(617,1050,ls)
);
}
);
userData = {
assembly = "PUSHB[ ]	/* 3 values pushed */
16 23 24
SRP1[ ]	/* SetRefPoint1 */
SRP2[ ]	/* SetRefPoint2 */
IP[ ]	/* InterpolatePts */
PUSHB[ ]	/* 1 value pushed */
16
SRP0[ ]	/* SetRefPoint0 */
PUSHB[ ]	/* 1 value pushed */
2
MDRP[10000]	/* MoveDirectRelPt */
SVTCA[0]	/* SetFreedomAndProjectionVectorToAxis */
PUSHB[ ]	/* 1 value pushed */
0
RCVT[ ]	/* ReadCVT */
IF[ ]	/* If */
PUSHB[ ]	/* 1 value pushed */
0
MDAP[1]	/* MoveDirectAbsPt */
ELSE[ ]	/* Else */
PUSHB[ ]	/* 2 values pushed */
0 31
MIAP[0]	/* MoveIndirectAbsPt */
EIF[ ]	/* EndIf */
PUSHB[ ]	/* 1 value pushed */
0
RCVT[ ]	/* ReadCVT */
IF[ ]	/* If */
PUSHB[ ]	/* 1 value pushed */
11
MDAP[1]	/* MoveDirectAbsPt */
ELSE[ ]	/* Else */
PUSHB[ ]	/* 2 values pushed */
11 15
MIAP[0]	/* MoveIndirectAbsPt */
EIF[ ]	/* EndIf */
PUSHB[ ]	/* 3 values pushed */
1 0 11
SRP1[ ]	/* SetRefPoint1 */
SRP2[ ]	/* SetRefPoint2 */
IP[ ]	/* InterpolatePts */
PUSHB[ ]	/* 1 value pushed */
1
MDAP[1]	/* MoveDirectAbsPt */
PUSHB[ ]	/* 3 values pushed */
16 0 11
SRP1[ ]	/* SetRefPoint1 */
SRP2[ ]	/* SetRefPoint2 */
IP[ ]	/* InterpolatePts */
PUSHB[ ]	/* 1 value pushed */
16
MDAP[1]	/* MoveDirectAbsPt */
PUSHB[ ]	/* 2 values pushed */
9 1
PUSHB[ ]	/* 1 value pushed */
10
CALL[ ]	/* CallFunction */
IF[ ]	/* If */
POP[ ]	/* PopTopStack */
MDRP[11000]	/* MoveDirectRelPt */
ELSE[ ]	/* Else */
MIRP[10100]	/* MoveIndirectRelPt */
EIF[ ]	/* EndIf */
PUSHB[ ]	/* 1 value pushed */
1
SRP0[ ]	/* SetRefPoint0 */
PUSHB[ ]	/* 2 values pushed */
14 1
PUSHB[ ]	/* 1 value pushed */
10
CALL[ ]	/* CallFunction */
IF[ ]	/* If */
POP[ ]	/* PopTopStack */
MDRP[11000]	/* MoveDirectRelPt */
ELSE[ ]	/* Else */
MIRP[10100]	/* MoveIndirectRelPt */
EIF[ ]	/* EndIf */
IUP[0]	/* InterpolateUntPts */
IUP[1]	/* InterpolateUntPts */";
};
width = 1175;
},
{
layerId = m002;
shapes = (
{
closed = 1;
nodes = (
(112,0,l),
(439,0,l),
(439,268,l),
(635,268,ls),
(965,271,o),
(1168,441,o),
(1168,712,cs),
(1168,970,o),
(977,1154,o),
(635,1154,cs),
(439,1154,l),
(439,1404,l),
(112,1404,l)
);
},
{
closed = 1;
nodes = (
(761,903,o),
(841,829,o),
(841,710,cs),
(841,590,o),
(762,518,o),
(630,518,cs),
(439,518,l),
(439,903,l),
(632,903,l)
);
}
);
userData = {
assembly = "PUSHB[ ]	/* 3 values pushed */
16 23 24
SRP1[ ]	/* SetRefPoint1 */
SRP2[ ]	/* SetRefPoint2 */
IP[ ]	/* InterpolatePts */
PUSHB[ ]	/* 1 value pushed */
16
SRP0[ ]	/* SetRefPoint0 */
PUSHB[ ]	/* 1 value pushed */
2
MDRP[10000]	/* MoveDirectRelPt */
SVTCA[0]	/* SetFreedomAndProjectionVectorToAxis */
PUSHB[ ]	/* 1 value pushed */
0
RCVT[ ]	/* ReadCVT */
IF[ ]	/* If */
PUSHB[ ]	/* 1 value pushed */
0
MDAP[1]	/* MoveDirectAbsPt */
ELSE[ ]	/* Else */
PUSHB[ ]	/* 2 values pushed */
0 31
MIAP[0]	/* MoveIndirectAbsPt */
EIF[ ]	/* EndIf */
PUSHB[ ]	/* 1 value pushed */
0
RCVT[ ]	/* ReadCVT */
IF[ ]	/* If */
PUSHB[ ]	/* 1 value pushed */
11
MDAP[1]	/* MoveDirectAbsPt */
ELSE[ ]	/* Else */
PUSHB[ ]	/* 2 values pushed */
11 15
MIAP[0]	/* MoveIndirectAbsPt */
EIF[ ]	/* EndIf */
PUSHB[ ]	/* 3 values pushed */
1 0 11
SRP1[ ]	/* SetRefPoint1 */
SRP2[ ]	/* SetRefPoint2 */
IP[ ]	/* InterpolatePts */
PUSHB[ ]	/* 1 value pushed */
1
MDAP[1]	/* MoveDirectAbsPt */
PUSHB[ ]	/* 3 values pushed */
16 0 11
SRP1[ ]	/* SetRefPoint1 */
SRP2[ ]	/* SetRefPoint2 */
IP[ ]	/* InterpolatePts */
PUSHB[ ]	/* 1 value pushed */
16
MDAP[1]	/* MoveDirectAbsPt */
PUSHB[ ]	/* 2 values pushed */
9 1
PUSHB[ ]	/* 1 value pushed */
10
CALL[ ]	/* CallFunction */
IF[ ]	/* If */
POP[ ]	/* PopTopStack */
MDRP[11000]	/* MoveDirectRelPt */
ELSE[ ]	/* Else */
MIRP[10100]	/* MoveIndirectRelPt */
EIF[ ]	/* EndIf */
PUSHB[ ]	/* 1 value pushed */
1
SRP0[ ]	/* SetRefPoint0 */
PUSHB[ ]	/* 2 values pushed */
14 1
PUSHB[ ]	/* 1 value pushed */
10
CALL[ ]	/* CallFunction */
IF[ ]	/* If */
POP[ ]	/* PopTopStack */
MDRP[11000]	/* MoveDirectRelPt */
ELSE[ ]	/* Else */
MIRP[10100]	/* MoveIndirectRelPt */
EIF[ ]	/* EndIf */
IUP[0]	/* InterpolateUntPts */
IUP[1]	/* InterpolateUntPts */";
};
width = 1218;
}
);
note = uni00DE;
unicode = 222;
},
{
glyphname = Q;
kernLeft = C;
lastChange = "2024-05-16 19:04:50 +0000";
layers = (
{
layerId = m01;
shapes = (
{
closed = 1;
nodes = (
(1186,1152,o),
(993,1423,o),
(656,1423,cs),
(311,1423,o),
(128,1144,o),
(128,807,cs),
(128,604,ls),
(128,223,o),
(342,-19,o),
(658,-19,cs),
(719,-19,o),
(778,-10,o),
(836,10,c),
(1110,-254,l),
(1148,-220,l),
(890,32,l),
(1081,127,o),
(1186,335,o),
(1186,597,cs),
(1186,807,ls)
);
},
{
closed = 1;
nodes = (
(1134,251,o),
(951,33,o),
(658,33,cs),
(344,33,o),
(181,281,o),
(181,597,cs),
(181,802,ls),
(181,1153,o),
(367,1371,o),
(656,1371,cs),
(949,1371,o),
(1134,1148,o),
(1134,809,cs),
(1134,604,ls)
);
}
);
userData = {
assembly = "PUSHB[ ]	/* 3 values pushed */
17 36 37
SRP1[ ]	/* SetRefPoint1 */
SRP2[ ]	/* SetRefPoint2 */
IP[ ]	/* InterpolatePts */
PUSHB[ ]	/* 1 value pushed */
17
SRP0[ ]	/* SetRefPoint0 */
PUSHB[ ]	/* 1 value pushed */
25
MDRP[10000]	/* MoveDirectRelPt */
SVTCA[0]	/* SetFreedomAndProjectionVectorToAxis */
PUSHB[ ]	/* 1 value pushed */
0
RCVT[ ]	/* ReadCVT */
IF[ ]	/* If */
PUSHB[ ]	/* 1 value pushed */
17
MDAP[1]	/* MoveDirectAbsPt */
ELSE[ ]	/* Else */
PUSHB[ ]	/* 2 values pushed */
17 31
MIAP[0]	/* MoveIndirectAbsPt */
EIF[ ]	/* EndIf */
PUSHB[ ]	/* 1 value pushed */
0
RCVT[ ]	/* ReadCVT */
IF[ ]	/* If */
PUSHB[ ]	/* 1 value pushed */
8
MDAP[1]	/* MoveDirectAbsPt */
ELSE[ ]	/* Else */
PUSHB[ ]	/* 2 values pushed */
8 15
MIAP[0]	/* MoveIndirectAbsPt */
EIF[ ]	/* EndIf */
PUSHB[ ]	/* 1 value pushed */
17
SRP0[ ]	/* SetRefPoint0 */
PUSHB[ ]	/* 2 values pushed */
25 11
PUSHB[ ]	/* 1 value pushed */
10
CALL[ ]	/* CallFunction */
IF[ ]	/* If */
POP[ ]	/* PopTopStack */
MDRP[11000]	/* MoveDirectRelPt */
ELSE[ ]	/* Else */
MIRP[10100]	/* MoveIndirectRelPt */
EIF[ ]	/* EndIf */
PUSHB[ ]	/* 1 value pushed */
8
SRP0[ ]	/* SetRefPoint0 */
PUSHB[ ]	/* 2 values pushed */
32 11
PUSHB[ ]	/* 1 value pushed */
10
CALL[ ]	/* CallFunction */
IF[ ]	/* If */
POP[ ]	/* PopTopStack */
MDRP[11000]	/* MoveDirectRelPt */
ELSE[ ]	/* Else */
MIRP[10100]	/* MoveIndirectRelPt */
EIF[ ]	/* EndIf */
IUP[0]	/* InterpolateUntPts */
IUP[1]	/* InterpolateUntPts */";
};
width = 1314;
},
{
layerId = m002;
shapes = (
{
closed = 1;
nodes = (
(1295,1164,o),
(1032,1426,o),
(682,1426,cs),
(330,1426,o),
(69,1167,o),
(69,732,cs),
(69,658,ls),
(74,251,o),
(320,-16,o),
(684,-16,cs),
(712,-16,o),
(739,-14,o),
(768,-10,c),
(1069,-253,l),
(1279,-75,l),
(1052,103,l),
(1205,220,o),
(1295,417,o),
(1295,675,cs),
(1295,738,l)
);
},
{
closed = 1;
nodes = (
(949,398,o),
(856,248,o),
(684,248,cs),
(504,248,o),
(414,399,o),
(414,675,cs),
(414,738,ls),
(414,1015,o),
(502,1159,o),
(682,1159,cs),
(854,1159,o),
(953,1013,o),
(953,734,cs),
(953,669,l)
);
}
);
userData = {
assembly = "PUSHB[ ]	/* 3 values pushed */
17 36 37
SRP1[ ]	/* SetRefPoint1 */
SRP2[ ]	/* SetRefPoint2 */
IP[ ]	/* InterpolatePts */
PUSHB[ ]	/* 1 value pushed */
17
SRP0[ ]	/* SetRefPoint0 */
PUSHB[ ]	/* 1 value pushed */
25
MDRP[10000]	/* MoveDirectRelPt */
SVTCA[0]	/* SetFreedomAndProjectionVectorToAxis */
PUSHB[ ]	/* 1 value pushed */
0
RCVT[ ]	/* ReadCVT */
IF[ ]	/* If */
PUSHB[ ]	/* 1 value pushed */
17
MDAP[1]	/* MoveDirectAbsPt */
ELSE[ ]	/* Else */
PUSHB[ ]	/* 2 values pushed */
17 31
MIAP[0]	/* MoveIndirectAbsPt */
EIF[ ]	/* EndIf */
PUSHB[ ]	/* 1 value pushed */
0
RCVT[ ]	/* ReadCVT */
IF[ ]	/* If */
PUSHB[ ]	/* 1 value pushed */
8
MDAP[1]	/* MoveDirectAbsPt */
ELSE[ ]	/* Else */
PUSHB[ ]	/* 2 values pushed */
8 15
MIAP[0]	/* MoveIndirectAbsPt */
EIF[ ]	/* EndIf */
PUSHB[ ]	/* 1 value pushed */
17
SRP0[ ]	/* SetRefPoint0 */
PUSHB[ ]	/* 2 values pushed */
25 11
PUSHB[ ]	/* 1 value pushed */
10
CALL[ ]	/* CallFunction */
IF[ ]	/* If */
POP[ ]	/* PopTopStack */
MDRP[11000]	/* MoveDirectRelPt */
ELSE[ ]	/* Else */
MIRP[10100]	/* MoveIndirectRelPt */
EIF[ ]	/* EndIf */
PUSHB[ ]	/* 1 value pushed */
8
SRP0[ ]	/* SetRefPoint0 */
PUSHB[ ]	/* 2 values pushed */
32 11
PUSHB[ ]	/* 1 value pushed */
10
CALL[ ]	/* CallFunction */
IF[ ]	/* If */
POP[ ]	/* PopTopStack */
MDRP[11000]	/* MoveDirectRelPt */
ELSE[ ]	/* Else */
MIRP[10100]	/* MoveIndirectRelPt */
EIF[ ]	/* EndIf */
IUP[0]	/* InterpolateUntPts */
IUP[1]	/* InterpolateUntPts */";
};
width = 1362;
}
);
note = uni0051;
unicode = 81;
},
{
glyphname = R;
lastChange = "2024-05-16 19:04:50 +0000";
layers = (
{
layerId = m01;
shapes = (
{
closed = 1;
nodes = (
(1155,0,l),
(1155,13,l),
(780,614,l),
(964,649,o),
(1096,807,o),
(1096,999,cs),
(1096,1248,o),
(917,1404,o),
(635,1404,cs),
(188,1404,l),
(188,0,l),
(240,0,l),
(240,601,l),
(727,601,l),
(1100,0,l)
);
},
{
closed = 1;
nodes = (
(632,1352,ls),
(887,1352,o),
(1044,1217,o),
(1044,999,cs),
(1044,799,o),
(899,653,o),
(683,653,cs),
(240,653,l),
(240,1352,l)
);
}
);
userData = {
assembly = "PUSHB[ ]	/* 3 values pushed */
5 23 24
SRP1[ ]	/* SetRefPoint1 */
SRP2[ ]	/* SetRefPoint2 */
IP[ ]	/* InterpolatePts */
PUSHB[ ]	/* 1 value pushed */
5
SRP0[ ]	/* SetRefPoint0 */
PUSHB[ ]	/* 1 value pushed */
16
MDRP[10000]	/* MoveDirectRelPt */
SVTCA[0]	/* SetFreedomAndProjectionVectorToAxis */
PUSHB[ ]	/* 1 value pushed */
0
RCVT[ ]	/* ReadCVT */
IF[ ]	/* If */
PUSHB[ ]	/* 1 value pushed */
4
MDAP[1]	/* MoveDirectAbsPt */
ELSE[ ]	/* Else */
PUSHB[ ]	/* 2 values pushed */
4 31
MIAP[0]	/* MoveIndirectAbsPt */
EIF[ ]	/* EndIf */
PUSHB[ ]	/* 1 value pushed */
0
RCVT[ ]	/* ReadCVT */
IF[ ]	/* If */
PUSHB[ ]	/* 1 value pushed */
2
MDAP[1]	/* MoveDirectAbsPt */
ELSE[ ]	/* Else */
PUSHB[ ]	/* 2 values pushed */
2 15
MIAP[0]	/* MoveIndirectAbsPt */
EIF[ ]	/* EndIf */
PUSHB[ ]	/* 1 value pushed */
0
RCVT[ ]	/* ReadCVT */
IF[ ]	/* If */
PUSHB[ ]	/* 1 value pushed */
13
MDAP[1]	/* MoveDirectAbsPt */
ELSE[ ]	/* Else */
PUSHB[ ]	/* 2 values pushed */
13 15
MIAP[0]	/* MoveIndirectAbsPt */
EIF[ ]	/* EndIf */
PUSHB[ ]	/* 3 values pushed */
16 4 2
SRP1[ ]	/* SetRefPoint1 */
SRP2[ ]	/* SetRefPoint2 */
IP[ ]	/* InterpolatePts */
PUSHB[ ]	/* 1 value pushed */
16
MDAP[1]	/* MoveDirectAbsPt */
PUSHB[ ]	/* 2 values pushed */
0 11
PUSHB[ ]	/* 1 value pushed */
10
CALL[ ]	/* CallFunction */
IF[ ]	/* If */
POP[ ]	/* PopTopStack */
MDRP[11000]	/* MoveDirectRelPt */
ELSE[ ]	/* Else */
MIRP[10100]	/* MoveIndirectRelPt */
EIF[ ]	/* EndIf */
PUSHB[ ]	/* 3 values pushed */
11 0 4
SRP1[ ]	/* SetRefPoint1 */
SRP2[ ]	/* SetRefPoint2 */
IP[ ]	/* InterpolatePts */
PUSHB[ ]	/* 1 value pushed */
4
SRP0[ ]	/* SetRefPoint0 */
PUSHB[ ]	/* 2 values pushed */
21 11
PUSHB[ ]	/* 1 value pushed */
10
CALL[ ]	/* CallFunction */
IF[ ]	/* If */
POP[ ]	/* PopTopStack */
MDRP[11000]	/* MoveDirectRelPt */
ELSE[ ]	/* Else */
MIRP[10100]	/* MoveIndirectRelPt */
EIF[ ]	/* EndIf */
IUP[0]	/* InterpolateUntPts */
IUP[1]	/* InterpolateUntPts */";
};
width = 1292;
},
{
layerId = m002;
shapes = (
{
closed = 1;
nodes = (
(1236,0,l),
(1236,13,l),
(944,579,l),
(1109,660,o),
(1187,782,o),
(1187,978,cs),
(1187,1249,o),
(989,1404,o),
(656,1404,cs),
(106,1404,l),
(106,0,l),
(443,0,l),
(443,494,l),
(626,494,l),
(873,0,l)
);
},
{
closed = 1;
nodes = (
(656,1140,ls),
(784,1140,o),
(851,1066,o),
(851,947,cs),
(851,828,o),
(788,757,o),
(656,757,cs),
(443,757,l),
(443,1140,l)
);
}
);
userData = {
assembly = "PUSHB[ ]	/* 3 values pushed */
5 23 24
SRP1[ ]	/* SetRefPoint1 */
SRP2[ ]	/* SetRefPoint2 */
IP[ ]	/* InterpolatePts */
PUSHB[ ]	/* 1 value pushed */
5
SRP0[ ]	/* SetRefPoint0 */
PUSHB[ ]	/* 1 value pushed */
16
MDRP[10000]	/* MoveDirectRelPt */
SVTCA[0]	/* SetFreedomAndProjectionVectorToAxis */
PUSHB[ ]	/* 1 value pushed */
0
RCVT[ ]	/* ReadCVT */
IF[ ]	/* If */
PUSHB[ ]	/* 1 value pushed */
4
MDAP[1]	/* MoveDirectAbsPt */
ELSE[ ]	/* Else */
PUSHB[ ]	/* 2 values pushed */
4 31
MIAP[0]	/* MoveIndirectAbsPt */
EIF[ ]	/* EndIf */
PUSHB[ ]	/* 1 value pushed */
0
RCVT[ ]	/* ReadCVT */
IF[ ]	/* If */
PUSHB[ ]	/* 1 value pushed */
2
MDAP[1]	/* MoveDirectAbsPt */
ELSE[ ]	/* Else */
PUSHB[ ]	/* 2 values pushed */
2 15
MIAP[0]	/* MoveIndirectAbsPt */
EIF[ ]	/* EndIf */
PUSHB[ ]	/* 1 value pushed */
0
RCVT[ ]	/* ReadCVT */
IF[ ]	/* If */
PUSHB[ ]	/* 1 value pushed */
13
MDAP[1]	/* MoveDirectAbsPt */
ELSE[ ]	/* Else */
PUSHB[ ]	/* 2 values pushed */
13 15
MIAP[0]	/* MoveIndirectAbsPt */
EIF[ ]	/* EndIf */
PUSHB[ ]	/* 3 values pushed */
16 4 2
SRP1[ ]	/* SetRefPoint1 */
SRP2[ ]	/* SetRefPoint2 */
IP[ ]	/* InterpolatePts */
PUSHB[ ]	/* 1 value pushed */
16
MDAP[1]	/* MoveDirectAbsPt */
PUSHB[ ]	/* 2 values pushed */
0 11
PUSHB[ ]	/* 1 value pushed */
10
CALL[ ]	/* CallFunction */
IF[ ]	/* If */
POP[ ]	/* PopTopStack */
MDRP[11000]	/* MoveDirectRelPt */
ELSE[ ]	/* Else */
MIRP[10100]	/* MoveIndirectRelPt */
EIF[ ]	/* EndIf */
PUSHB[ ]	/* 3 values pushed */
11 0 4
SRP1[ ]	/* SetRefPoint1 */
SRP2[ ]	/* SetRefPoint2 */
IP[ ]	/* InterpolatePts */
PUSHB[ ]	/* 1 value pushed */
4
SRP0[ ]	/* SetRefPoint0 */
PUSHB[ ]	/* 2 values pushed */
21 11
PUSHB[ ]	/* 1 value pushed */
10
CALL[ ]	/* CallFunction */
IF[ ]	/* If */
POP[ ]	/* PopTopStack */
MDRP[11000]	/* MoveDirectRelPt */
ELSE[ ]	/* Else */
MIRP[10100]	/* MoveIndirectRelPt */
EIF[ ]	/* EndIf */
IUP[0]	/* InterpolateUntPts */
IUP[1]	/* InterpolateUntPts */";
};
width = 1286;
}
);
note = uni0052;
unicode = 82;
},
{
glyphname = S;
kernLeft = S;
lastChange = "2024-05-16 19:04:50 +0000";
layers = (
{
layerId = m01;
shapes = (
{
closed = 1;
nodes = (
(1034,156,o),
(857,33,o),
(611,33,cs),
(335,33,o),
(145,166,o),
(145,396,c),
(93,396,l),
(93,227,o),
(175,99,o),
(337,31,cs),
(418,-2,o),
(509,-19,o),
(611,-19,cs),
(865,-19,o),
(1087,104,o),
(1087,338,cs),
(1087,450,o),
(1042,538,o),
(952,604,cs),
(882,656,o),
(770,702,o),
(618,742,cs),
(313,821,o),
(191,913,o),
(191,1082,cs),
(191,1247,o),
(357,1371,o),
(604,1371,cs),
(850,1371,o),
(1020,1218,o),
(1020,1008,c),
(1072,1008,l),
(1072,1252,o),
(881,1423,o),
(604,1423,cs),
(328,1423,o),
(139,1284,o),
(139,1080,cs),
(139,833,o),
(365,756,o),
(588,696,cs),
(831,629,o),
(936,571,o),
(992,488,cs),
(1020,447,o),
(1034,396,o),
(1034,336,cs)
);
}
);
userData = {
assembly = "PUSHB[ ]	/* 3 values pushed */
18 41 42
SRP1[ ]	/* SetRefPoint1 */
SRP2[ ]	/* SetRefPoint2 */
IP[ ]	/* InterpolatePts */
SVTCA[0]	/* SetFreedomAndProjectionVectorToAxis */
PUSHB[ ]	/* 1 value pushed */
0
RCVT[ ]	/* ReadCVT */
IF[ ]	/* If */
PUSHB[ ]	/* 1 value pushed */
10
MDAP[1]	/* MoveDirectAbsPt */
ELSE[ ]	/* Else */
PUSHB[ ]	/* 2 values pushed */
10 31
MIAP[0]	/* MoveIndirectAbsPt */
EIF[ ]	/* EndIf */
PUSHB[ ]	/* 1 value pushed */
0
RCVT[ ]	/* ReadCVT */
IF[ ]	/* If */
PUSHB[ ]	/* 1 value pushed */
30
MDAP[1]	/* MoveDirectAbsPt */
ELSE[ ]	/* Else */
PUSHB[ ]	/* 2 values pushed */
30 15
MIAP[0]	/* MoveIndirectAbsPt */
EIF[ ]	/* EndIf */
PUSHB[ ]	/* 3 values pushed */
2 30 10
SRP1[ ]	/* SetRefPoint1 */
SRP2[ ]	/* SetRefPoint2 */
IP[ ]	/* InterpolatePts */
PUSHB[ ]	/* 3 values pushed */
57 2 1
DELTAP1[ ]	/* DeltaExceptionP1 */
PUSHB[ ]	/* 1 value pushed */
2
SRP0[ ]	/* SetRefPoint0 */
PUSHB[ ]	/* 2 values pushed */
24 1
PUSHB[ ]	/* 1 value pushed */
10
CALL[ ]	/* CallFunction */
IF[ ]	/* If */
POP[ ]	/* PopTopStack */
MDRP[11000]	/* MoveDirectRelPt */
ELSE[ ]	/* Else */
MIRP[10100]	/* MoveIndirectRelPt */
EIF[ ]	/* EndIf */
PUSHB[ ]	/* 1 value pushed */
10
SRP0[ ]	/* SetRefPoint0 */
PUSHB[ ]	/* 2 values pushed */
18 1
PUSHB[ ]	/* 1 value pushed */
10
CALL[ ]	/* CallFunction */
IF[ ]	/* If */
POP[ ]	/* PopTopStack */
MDRP[11000]	/* MoveDirectRelPt */
ELSE[ ]	/* Else */
MIRP[10100]	/* MoveIndirectRelPt */
EIF[ ]	/* EndIf */
PUSHB[ ]	/* 3 values pushed */
15 24 18
SRP1[ ]	/* SetRefPoint1 */
SRP2[ ]	/* SetRefPoint2 */
IP[ ]	/* InterpolatePts */
PUSHB[ ]	/* 1 value pushed */
30
SRP0[ ]	/* SetRefPoint0 */
PUSHB[ ]	/* 2 values pushed */
38 1
PUSHB[ ]	/* 1 value pushed */
10
CALL[ ]	/* CallFunction */
IF[ ]	/* If */
POP[ ]	/* PopTopStack */
MDRP[11000]	/* MoveDirectRelPt */
ELSE[ ]	/* Else */
MIRP[10100]	/* MoveIndirectRelPt */
EIF[ ]	/* EndIf */
PUSHB[ ]	/* 3 values pushed */
35 2 38
SRP1[ ]	/* SetRefPoint1 */
SRP2[ ]	/* SetRefPoint2 */
IP[ ]	/* InterpolatePts */
IUP[0]	/* InterpolateUntPts */
IUP[1]	/* InterpolateUntPts */";
};
width = 1168;
},
{
layerId = m002;
shapes = (
{
closed = 1;
nodes = (
(830,260,o),
(758,209,o),
(647,209,cs),
(473,209,o),
(402,277,o),
(402,430,c),
(62,430,l),
(62,244,o),
(155,99,o),
(340,17,cs),
(432,-24,o),
(535,-45,o),
(647,-45,cs),
(971,-45,o),
(1167,103,o),
(1167,349,cs),
(1167,503,o),
(1092,624,o),
(941,712,cs),
(798,792,o),
(593,829,o),
(497,902,cs),
(459,932,o),
(440,964,o),
(440,998,cs),
(440,1082,o),
(513,1140,o),
(636,1140,cs),
(756,1140,o),
(830,1076,o),
(830,961,c),
(1167,961,l),
(1167,1212,o),
(957,1397,o),
(643,1397,cs),
(328,1397,o),
(105,1241,o),
(105,1002,cs),
(105,846,o),
(195,724,o),
(377,636,cs),
(511,567,o),
(695,527,o),
(777,463,cs),
(812,436,o),
(830,396,o),
(830,347,cs)
);
}
);
userData = {
assembly = "PUSHB[ ]	/* 3 values pushed */
18 41 42
SRP1[ ]	/* SetRefPoint1 */
SRP2[ ]	/* SetRefPoint2 */
IP[ ]	/* InterpolatePts */
SVTCA[0]	/* SetFreedomAndProjectionVectorToAxis */
PUSHB[ ]	/* 1 value pushed */
0
RCVT[ ]	/* ReadCVT */
IF[ ]	/* If */
PUSHB[ ]	/* 1 value pushed */
10
MDAP[1]	/* MoveDirectAbsPt */
ELSE[ ]	/* Else */
PUSHB[ ]	/* 2 values pushed */
10 31
MIAP[0]	/* MoveIndirectAbsPt */
EIF[ ]	/* EndIf */
PUSHB[ ]	/* 1 value pushed */
0
RCVT[ ]	/* ReadCVT */
IF[ ]	/* If */
PUSHB[ ]	/* 1 value pushed */
30
MDAP[1]	/* MoveDirectAbsPt */
ELSE[ ]	/* Else */
PUSHB[ ]	/* 2 values pushed */
30 15
MIAP[0]	/* MoveIndirectAbsPt */
EIF[ ]	/* EndIf */
PUSHB[ ]	/* 3 values pushed */
2 30 10
SRP1[ ]	/* SetRefPoint1 */
SRP2[ ]	/* SetRefPoint2 */
IP[ ]	/* InterpolatePts */
PUSHB[ ]	/* 3 values pushed */
57 2 1
DELTAP1[ ]	/* DeltaExceptionP1 */
PUSHB[ ]	/* 1 value pushed */
2
SRP0[ ]	/* SetRefPoint0 */
PUSHB[ ]	/* 2 values pushed */
24 1
PUSHB[ ]	/* 1 value pushed */
10
CALL[ ]	/* CallFunction */
IF[ ]	/* If */
POP[ ]	/* PopTopStack */
MDRP[11000]	/* MoveDirectRelPt */
ELSE[ ]	/* Else */
MIRP[10100]	/* MoveIndirectRelPt */
EIF[ ]	/* EndIf */
PUSHB[ ]	/* 1 value pushed */
10
SRP0[ ]	/* SetRefPoint0 */
PUSHB[ ]	/* 2 values pushed */
18 1
PUSHB[ ]	/* 1 value pushed */
10
CALL[ ]	/* CallFunction */
IF[ ]	/* If */
POP[ ]	/* PopTopStack */
MDRP[11000]	/* MoveDirectRelPt */
ELSE[ ]	/* Else */
MIRP[10100]	/* MoveIndirectRelPt */
EIF[ ]	/* EndIf */
PUSHB[ ]	/* 3 values pushed */
15 24 18
SRP1[ ]	/* SetRefPoint1 */
SRP2[ ]	/* SetRefPoint2 */
IP[ ]	/* InterpolatePts */
PUSHB[ ]	/* 1 value pushed */
30
SRP0[ ]	/* SetRefPoint0 */
PUSHB[ ]	/* 2 values pushed */
38 1
PUSHB[ ]	/* 1 value pushed */
10
CALL[ ]	/* CallFunction */
IF[ ]	/* If */
POP[ ]	/* PopTopStack */
MDRP[11000]	/* MoveDirectRelPt */
ELSE[ ]	/* Else */
MIRP[10100]	/* MoveIndirectRelPt */
EIF[ ]	/* EndIf */
PUSHB[ ]	/* 3 values pushed */
35 2 38
SRP1[ ]	/* SetRefPoint1 */
SRP2[ ]	/* SetRefPoint2 */
IP[ ]	/* InterpolatePts */
IUP[0]	/* InterpolateUntPts */
IUP[1]	/* InterpolateUntPts */";
};
width = 1234;
}
);
note = uni0053;
unicode = 83;
},
{
glyphname = Scaron;
kernLeft = S;
lastChange = "2024-05-16 19:04:50 +0000";
layers = (
{
layerId = m01;
shapes = (
{
closed = 1;
nodes = (
(1034,156,o),
(857,33,o),
(611,33,cs),
(335,33,o),
(145,166,o),
(145,396,c),
(93,396,l),
(93,227,o),
(175,99,o),
(337,31,cs),
(418,-2,o),
(509,-19,o),
(611,-19,cs),
(865,-19,o),
(1087,104,o),
(1087,338,cs),
(1087,450,o),
(1042,538,o),
(952,604,cs),
(882,656,o),
(770,702,o),
(618,742,cs),
(313,821,o),
(191,913,o),
(191,1082,cs),
(191,1247,o),
(357,1371,o),
(604,1371,cs),
(850,1371,o),
(1020,1218,o),
(1020,1008,c),
(1072,1008,l),
(1072,1252,o),
(881,1423,o),
(604,1423,cs),
(328,1423,o),
(139,1284,o),
(139,1080,cs),
(139,833,o),
(365,756,o),
(588,696,cs),
(831,629,o),
(936,571,o),
(992,488,cs),
(1020,447,o),
(1034,396,o),
(1034,336,cs)
);
},
{
closed = 1;
nodes = (
(368,1797,l),
(368,1786,l),
(581,1543,l),
(637,1543,l),
(848,1784,l),
(848,1797,l),
(797,1797,l),
(609,1588,l),
(423,1797,l)
);
}
);
width = 1168;
},
{
layerId = m002;
shapes = (
{
closed = 1;
nodes = (
(830,260,o),
(758,209,o),
(647,209,cs),
(473,209,o),
(402,277,o),
(402,430,c),
(62,430,l),
(62,244,o),
(155,99,o),
(340,17,cs),
(432,-24,o),
(535,-45,o),
(647,-45,cs),
(971,-45,o),
(1167,103,o),
(1167,349,cs),
(1167,503,o),
(1092,624,o),
(941,712,cs),
(798,792,o),
(593,829,o),
(497,902,cs),
(459,932,o),
(440,964,o),
(440,998,cs),
(440,1082,o),
(513,1140,o),
(636,1140,cs),
(756,1140,o),
(830,1076,o),
(830,961,c),
(1167,961,l),
(1167,1212,o),
(957,1397,o),
(643,1397,cs),
(328,1397,o),
(105,1241,o),
(105,1002,cs),
(105,846,o),
(195,724,o),
(377,636,cs),
(511,567,o),
(695,527,o),
(777,463,cs),
(812,436,o),
(830,396,o),
(830,347,cs)
);
},
{
closed = 1;
nodes = (
(215,1752,l),
(215,1744,l),
(533,1469,l),
(742,1469,l),
(1055,1741,l),
(1055,1752,l),
(778,1752,l),
(638,1623,l),
(494,1752,l)
);
}
);
width = 1234;
}
);
note = uni0160;
unicode = 352;
},
{
glyphname = T;
kernLeft = T;
kernRight = T;
lastChange = "2024-05-16 19:04:50 +0000";
layers = (
{
layerId = m01;
shapes = (
{
closed = 1;
nodes = (
(53,1404,l),
(53,1352,l),
(564,1352,l),
(564,0,l),
(616,0,l),
(616,1352,l),
(1127,1352,l),
(1127,1404,l)
);
}
);
userData = {
assembly = "SVTCA[0]	/* SetFreedomAndProjectionVectorToAxis */
PUSHB[ ]	/* 1 value pushed */
0
RCVT[ ]	/* ReadCVT */
IF[ ]	/* If */
PUSHB[ ]	/* 1 value pushed */
6
MDAP[1]	/* MoveDirectAbsPt */
ELSE[ ]	/* Else */
PUSHB[ ]	/* 2 values pushed */
6 31
MIAP[0]	/* MoveIndirectAbsPt */
EIF[ ]	/* EndIf */
PUSHB[ ]	/* 1 value pushed */
0
RCVT[ ]	/* ReadCVT */
IF[ ]	/* If */
PUSHB[ ]	/* 1 value pushed */
2
MDAP[1]	/* MoveDirectAbsPt */
ELSE[ ]	/* Else */
PUSHB[ ]	/* 2 values pushed */
2 15
MIAP[0]	/* MoveIndirectAbsPt */
EIF[ ]	/* EndIf */
PUSHB[ ]	/* 1 value pushed */
6
SRP0[ ]	/* SetRefPoint0 */
PUSHB[ ]	/* 2 values pushed */
0 1
PUSHB[ ]	/* 1 value pushed */
10
CALL[ ]	/* CallFunction */
IF[ ]	/* If */
POP[ ]	/* PopTopStack */
MDRP[11000]	/* MoveDirectRelPt */
ELSE[ ]	/* Else */
MIRP[10100]	/* MoveIndirectRelPt */
EIF[ ]	/* EndIf */
PUSHB[ ]	/* 1 value pushed */
4
MDRP[10000]	/* MoveDirectRelPt */
IUP[0]	/* InterpolateUntPts */
IUP[1]	/* InterpolateUntPts */";
};
width = 1180;
},
{
layerId = m002;
shapes = (
{
closed = 1;
nodes = (
(35,1404,l),
(35,1140,l),
(447,1140,l),
(447,0,l),
(787,0,l),
(787,1140,l),
(1206,1140,l),
(1206,1404,l)
);
}
);
userData = {
assembly = "SVTCA[0]	/* SetFreedomAndProjectionVectorToAxis */
PUSHB[ ]	/* 1 value pushed */
0
RCVT[ ]	/* ReadCVT */
IF[ ]	/* If */
PUSHB[ ]	/* 1 value pushed */
6
MDAP[1]	/* MoveDirectAbsPt */
ELSE[ ]	/* Else */
PUSHB[ ]	/* 2 values pushed */
6 31
MIAP[0]	/* MoveIndirectAbsPt */
EIF[ ]	/* EndIf */
PUSHB[ ]	/* 1 value pushed */
0
RCVT[ ]	/* ReadCVT */
IF[ ]	/* If */
PUSHB[ ]	/* 1 value pushed */
2
MDAP[1]	/* MoveDirectAbsPt */
ELSE[ ]	/* Else */
PUSHB[ ]	/* 2 values pushed */
2 15
MIAP[0]	/* MoveIndirectAbsPt */
EIF[ ]	/* EndIf */
PUSHB[ ]	/* 1 value pushed */
6
SRP0[ ]	/* SetRefPoint0 */
PUSHB[ ]	/* 2 values pushed */
0 1
PUSHB[ ]	/* 1 value pushed */
10
CALL[ ]	/* CallFunction */
IF[ ]	/* If */
POP[ ]	/* PopTopStack */
MDRP[11000]	/* MoveDirectRelPt */
ELSE[ ]	/* Else */
MIRP[10100]	/* MoveIndirectRelPt */
EIF[ ]	/* EndIf */
PUSHB[ ]	/* 1 value pushed */
4
MDRP[10000]	/* MoveDirectRelPt */
IUP[0]	/* InterpolateUntPts */
IUP[1]	/* InterpolateUntPts */";
};
width = 1243;
}
);
note = uni0054;
unicode = 84;
},
{
glyphname = U;
kernLeft = U;
kernRight = J;
lastChange = "2024-05-16 19:04:50 +0000";
layers = (
{
layerId = m01;
shapes = (
{
closed = 1;
nodes = (
(1085,456,ls),
(1085,195,o),
(916,33,o),
(658,33,cs),
(400,33,o),
(230,195,o),
(230,455,cs),
(230,1404,l),
(178,1404,l),
(178,449,ls),
(179,157,o),
(364,-19,o),
(658,-19,cs),
(952,-19,o),
(1137,156,o),
(1137,453,cs),
(1137,1404,l),
(1085,1404,l)
);
}
);
userData = {
assembly = "PUSHB[ ]	/* 3 values pushed */
5 18 19
SRP1[ ]	/* SetRefPoint1 */
SRP2[ ]	/* SetRefPoint2 */
IP[ ]	/* InterpolatePts */
SVTCA[0]	/* SetFreedomAndProjectionVectorToAxis */
PUSHB[ ]	/* 1 value pushed */
0
RCVT[ ]	/* ReadCVT */
IF[ ]	/* If */
PUSHB[ ]	/* 1 value pushed */
0
MDAP[1]	/* MoveDirectAbsPt */
ELSE[ ]	/* Else */
PUSHB[ ]	/* 2 values pushed */
0 31
MIAP[0]	/* MoveIndirectAbsPt */
EIF[ ]	/* EndIf */
PUSHB[ ]	/* 1 value pushed */
0
RCVT[ ]	/* ReadCVT */
IF[ ]	/* If */
PUSHB[ ]	/* 1 value pushed */
9
MDAP[1]	/* MoveDirectAbsPt */
ELSE[ ]	/* Else */
PUSHB[ ]	/* 2 values pushed */
9 31
MIAP[0]	/* MoveIndirectAbsPt */
EIF[ ]	/* EndIf */
PUSHB[ ]	/* 1 value pushed */
0
RCVT[ ]	/* ReadCVT */
IF[ ]	/* If */
PUSHB[ ]	/* 1 value pushed */
5
MDAP[1]	/* MoveDirectAbsPt */
ELSE[ ]	/* Else */
PUSHB[ ]	/* 2 values pushed */
5 15
MIAP[0]	/* MoveIndirectAbsPt */
EIF[ ]	/* EndIf */
PUSHB[ ]	/* 2 values pushed */
13 11
PUSHB[ ]	/* 1 value pushed */
10
CALL[ ]	/* CallFunction */
IF[ ]	/* If */
POP[ ]	/* PopTopStack */
MDRP[11000]	/* MoveDirectRelPt */
ELSE[ ]	/* Else */
MIRP[10100]	/* MoveIndirectRelPt */
EIF[ ]	/* EndIf */
IUP[0]	/* InterpolateUntPts */
IUP[1]	/* InterpolateUntPts */";
};
width = 1315;
},
{
layerId = m002;
shapes = (
{
closed = 1;
nodes = (
(866,462,ls),
(866,285,o),
(794,215,o),
(653,215,cs),
(514,215,o),
(444,292,o),
(441,447,cs),
(441,1376,l),
(101,1376,l),
(101,451,ls),
(104,144,o),
(313,-45,o),
(653,-45,cs),
(996,-45,o),
(1204,141,o),
(1204,460,cs),
(1204,1376,l),
(866,1376,l)
);
}
);
userData = {
assembly = "PUSHB[ ]	/* 3 values pushed */
5 18 19
SRP1[ ]	/* SetRefPoint1 */
SRP2[ ]	/* SetRefPoint2 */
IP[ ]	/* InterpolatePts */
SVTCA[0]	/* SetFreedomAndProjectionVectorToAxis */
PUSHB[ ]	/* 1 value pushed */
0
RCVT[ ]	/* ReadCVT */
IF[ ]	/* If */
PUSHB[ ]	/* 1 value pushed */
0
MDAP[1]	/* MoveDirectAbsPt */
ELSE[ ]	/* Else */
PUSHB[ ]	/* 2 values pushed */
0 31
MIAP[0]	/* MoveIndirectAbsPt */
EIF[ ]	/* EndIf */
PUSHB[ ]	/* 1 value pushed */
0
RCVT[ ]	/* ReadCVT */
IF[ ]	/* If */
PUSHB[ ]	/* 1 value pushed */
9
MDAP[1]	/* MoveDirectAbsPt */
ELSE[ ]	/* Else */
PUSHB[ ]	/* 2 values pushed */
9 31
MIAP[0]	/* MoveIndirectAbsPt */
EIF[ ]	/* EndIf */
PUSHB[ ]	/* 1 value pushed */
0
RCVT[ ]	/* ReadCVT */
IF[ ]	/* If */
PUSHB[ ]	/* 1 value pushed */
5
MDAP[1]	/* MoveDirectAbsPt */
ELSE[ ]	/* Else */
PUSHB[ ]	/* 2 values pushed */
5 15
MIAP[0]	/* MoveIndirectAbsPt */
EIF[ ]	/* EndIf */
PUSHB[ ]	/* 2 values pushed */
13 11
PUSHB[ ]	/* 1 value pushed */
10
CALL[ ]	/* CallFunction */
IF[ ]	/* If */
POP[ ]	/* PopTopStack */
MDRP[11000]	/* MoveDirectRelPt */
ELSE[ ]	/* Else */
MIRP[10100]	/* MoveIndirectRelPt */
EIF[ ]	/* EndIf */
IUP[0]	/* InterpolateUntPts */
IUP[1]	/* InterpolateUntPts */";
};
width = 1309;
}
);
note = uni0055;
unicode = 85;
},
{
glyphname = Uacute;
kernLeft = U;
kernRight = J;
lastChange = "2024-05-16 19:04:50 +0000";
layers = (
{
layerId = m01;
shapes = (
{
closed = 1;
nodes = (
(1085,456,ls),
(1085,195,o),
(916,33,o),
(658,33,cs),
(400,33,o),
(230,195,o),
(230,455,cs),
(230,1404,l),
(178,1404,l),
(178,449,ls),
(179,157,o),
(364,-19,o),
(658,-19,cs),
(952,-19,o),
(1137,156,o),
(1137,453,cs),
(1137,1404,l),
(1085,1404,l)
);
},
{
closed = 1;
nodes = (
(695,1543,l),
(882,1800,l),
(819,1800,l),
(637,1543,l)
);
}
);
width = 1315;
},
{
layerId = m002;
shapes = (
{
closed = 1;
nodes = (
(866,462,ls),
(866,285,o),
(794,215,o),
(653,215,cs),
(514,215,o),
(444,292,o),
(441,447,cs),
(441,1376,l),
(101,1376,l),
(101,451,ls),
(104,144,o),
(313,-45,o),
(653,-45,cs),
(996,-45,o),
(1204,141,o),
(1204,460,cs),
(1204,1376,l),
(866,1376,l)
);
},
{
closed = 1;
nodes = (
(765,1449,l),
(1034,1752,l),
(690,1752,l),
(501,1449,l)
);
}
);
width = 1309;
}
);
note = uni00DA;
unicode = 218;
},
{
glyphname = Ucircumflex;
kernLeft = U;
kernRight = J;
lastChange = "2024-05-16 19:04:50 +0000";
layers = (
{
layerId = m01;
shapes = (
{
closed = 1;
nodes = (
(1085,456,ls),
(1085,195,o),
(916,33,o),
(658,33,cs),
(400,33,o),
(230,195,o),
(230,455,cs),
(230,1404,l),
(178,1404,l),
(178,449,ls),
(179,157,o),
(364,-19,o),
(658,-19,cs),
(952,-19,o),
(1137,156,o),
(1137,453,cs),
(1137,1404,l),
(1085,1404,l)
);
},
{
closed = 1;
nodes = (
(653,1781,l),
(431,1551,l),
(431,1537,l),
(493,1537,l),
(671,1726,l),
(851,1537,l),
(917,1537,l),
(917,1547,l),
(691,1781,l)
);
}
);
width = 1315;
},
{
layerId = m002;
shapes = (
{
closed = 1;
nodes = (
(866,462,ls),
(866,285,o),
(794,215,o),
(653,215,cs),
(514,215,o),
(444,292,o),
(441,447,cs),
(441,1376,l),
(101,1376,l),
(101,451,ls),
(104,144,o),
(313,-45,o),
(653,-45,cs),
(996,-45,o),
(1204,141,o),
(1204,460,cs),
(1204,1376,l),
(866,1376,l)
);
},
{
closed = 1;
nodes = (
(556,1752,l),
(245,1485,l),
(245,1469,l),
(495,1469,l),
(651,1599,l),
(802,1469,l),
(1058,1469,l),
(1058,1481,l),
(741,1752,l)
);
}
);
width = 1309;
}
);
note = uni00DB;
unicode = 219;
},
{
glyphname = Udieresis;
kernLeft = U;
kernRight = J;
lastChange = "2024-05-16 19:04:50 +0000";
layers = (
{
layerId = m01;
shapes = (
{
closed = 1;
nodes = (
(1085,456,ls),
(1085,195,o),
(916,33,o),
(658,33,cs),
(400,33,o),
(230,195,o),
(230,455,cs),
(230,1404,l),
(178,1404,l),
(178,449,ls),
(179,157,o),
(364,-19,o),
(658,-19,cs),
(952,-19,o),
(1137,156,o),
(1137,453,cs),
(1137,1404,l),
(1085,1404,l)
);
},
{
closed = 1;
nodes = (
(406,1659,o),
(430,1636,o),
(459,1636,cs),
(489,1636,o),
(513,1659,o),
(513,1689,cs),
(513,1718,o),
(489,1743,o),
(459,1743,cs),
(430,1743,o),
(406,1718,o),
(406,1689,cs)
);
},
{
closed = 1;
nodes = (
(835,1659,o),
(858,1636,o),
(888,1636,cs),
(918,1636,o),
(942,1659,o),
(942,1689,cs),
(942,1718,o),
(918,1743,o),
(888,1743,cs),
(858,1743,o),
(835,1718,o),
(835,1689,cs)
);
}
);
width = 1315;
},
{
layerId = m002;
shapes = (
{
closed = 1;
nodes = (
(866,462,ls),
(866,285,o),
(794,215,o),
(653,215,cs),
(514,215,o),
(444,292,o),
(441,447,cs),
(441,1376,l),
(101,1376,l),
(101,451,ls),
(104,144,o),
(313,-45,o),
(653,-45,cs),
(996,-45,o),
(1204,141,o),
(1204,460,cs),
(1204,1376,l),
(866,1376,l)
);
},
{
closed = 1;
nodes = (
(252,1516,o),
(314,1460,o),
(397,1460,cs),
(479,1460,o),
(542,1517,o),
(542,1587,cs),
(542,1658,o),
(479,1715,o),
(397,1715,cs),
(314,1715,o),
(252,1658,o),
(252,1588,cs)
);
},
{
closed = 1;
nodes = (
(752,1516,o),
(815,1460,o),
(897,1460,cs),
(980,1460,o),
(1042,1517,o),
(1042,1587,cs),
(1042,1658,o),
(980,1715,o),
(897,1715,cs),
(815,1715,o),
(752,1658,o),
(752,1588,cs)
);
}
);
width = 1309;
}
);
note = uni00DC;
unicode = 220;
},
{
glyphname = Ugrave;
kernLeft = U;
kernRight = J;
lastChange = "2024-05-16 19:04:50 +0000";
layers = (
{
layerId = m01;
shapes = (
{
closed = 1;
nodes = (
(1085,456,ls),
(1085,195,o),
(916,33,o),
(658,33,cs),
(400,33,o),
(230,195,o),
(230,455,cs),
(230,1404,l),
(178,1404,l),
(178,449,ls),
(179,157,o),
(364,-19,o),
(658,-19,cs),
(952,-19,o),
(1137,156,o),
(1137,453,cs),
(1137,1404,l),
(1085,1404,l)
);
},
{
closed = 1;
nodes = (
(465,1800,l),
(653,1543,l),
(710,1543,l),
(529,1800,l)
);
}
);
width = 1315;
},
{
layerId = m002;
shapes = (
{
closed = 1;
nodes = (
(866,462,ls),
(866,285,o),
(794,215,o),
(653,215,cs),
(514,215,o),
(444,292,o),
(441,447,cs),
(441,1376,l),
(101,1376,l),
(101,451,ls),
(104,144,o),
(313,-45,o),
(653,-45,cs),
(996,-45,o),
(1204,141,o),
(1204,460,cs),
(1204,1376,l),
(866,1376,l)
);
},
{
closed = 1;
nodes = (
(270,1752,l),
(540,1449,l),
(804,1449,l),
(610,1752,l)
);
}
);
width = 1309;
}
);
note = uni00D9;
unicode = 217;
},
{
glyphname = V;
kernLeft = V;
kernRight = V;
lastChange = "2024-05-16 19:04:50 +0000";
layers = (
{
layerId = m01;
shapes = (
{
closed = 1;
nodes = (
(34,1404,l),
(558,0,l),
(622,0,l),
(1146,1404,l),
(1089,1404,l),
(590,52,l),
(91,1404,l)
);
}
);
userData = {
assembly = "PUSHB[ ]	/* 3 values pushed */
0 7 8
SRP1[ ]	/* SetRefPoint1 */
SRP2[ ]	/* SetRefPoint2 */
IP[ ]	/* InterpolatePts */
SVTCA[0]	/* SetFreedomAndProjectionVectorToAxis */
PUSHB[ ]	/* 1 value pushed */
0
RCVT[ ]	/* ReadCVT */
IF[ ]	/* If */
PUSHB[ ]	/* 1 value pushed */
1
MDAP[1]	/* MoveDirectAbsPt */
ELSE[ ]	/* Else */
PUSHB[ ]	/* 2 values pushed */
1 31
MIAP[0]	/* MoveIndirectAbsPt */
EIF[ ]	/* EndIf */
PUSHB[ ]	/* 1 value pushed */
0
RCVT[ ]	/* ReadCVT */
IF[ ]	/* If */
PUSHB[ ]	/* 1 value pushed */
5
MDAP[1]	/* MoveDirectAbsPt */
ELSE[ ]	/* Else */
PUSHB[ ]	/* 2 values pushed */
5 31
MIAP[0]	/* MoveIndirectAbsPt */
EIF[ ]	/* EndIf */
PUSHB[ ]	/* 1 value pushed */
0
RCVT[ ]	/* ReadCVT */
IF[ ]	/* If */
PUSHB[ ]	/* 1 value pushed */
3
MDAP[1]	/* MoveDirectAbsPt */
ELSE[ ]	/* Else */
PUSHB[ ]	/* 2 values pushed */
3 15
MIAP[0]	/* MoveIndirectAbsPt */
EIF[ ]	/* EndIf */
PUSHB[ ]	/* 3 values pushed */
0 1 3
SRP1[ ]	/* SetRefPoint1 */
SRP2[ ]	/* SetRefPoint2 */
IP[ ]	/* InterpolatePts */
IUP[0]	/* InterpolateUntPts */
IUP[1]	/* InterpolateUntPts */";
};
width = 1179;
},
{
layerId = m002;
shapes = (
{
closed = 1;
nodes = (
(-3,1404,l),
(465,0,l),
(835,0,l),
(1306,1404,l),
(929,1404,l),
(650,381,l),
(371,1404,l)
);
}
);
userData = {
assembly = "PUSHB[ ]	/* 3 values pushed */
0 7 8
SRP1[ ]	/* SetRefPoint1 */
SRP2[ ]	/* SetRefPoint2 */
IP[ ]	/* InterpolatePts */
SVTCA[0]	/* SetFreedomAndProjectionVectorToAxis */
PUSHB[ ]	/* 1 value pushed */
0
RCVT[ ]	/* ReadCVT */
IF[ ]	/* If */
PUSHB[ ]	/* 1 value pushed */
1
MDAP[1]	/* MoveDirectAbsPt */
ELSE[ ]	/* Else */
PUSHB[ ]	/* 2 values pushed */
1 31
MIAP[0]	/* MoveIndirectAbsPt */
EIF[ ]	/* EndIf */
PUSHB[ ]	/* 1 value pushed */
0
RCVT[ ]	/* ReadCVT */
IF[ ]	/* If */
PUSHB[ ]	/* 1 value pushed */
5
MDAP[1]	/* MoveDirectAbsPt */
ELSE[ ]	/* Else */
PUSHB[ ]	/* 2 values pushed */
5 31
MIAP[0]	/* MoveIndirectAbsPt */
EIF[ ]	/* EndIf */
PUSHB[ ]	/* 1 value pushed */
0
RCVT[ ]	/* ReadCVT */
IF[ ]	/* If */
PUSHB[ ]	/* 1 value pushed */
3
MDAP[1]	/* MoveDirectAbsPt */
ELSE[ ]	/* Else */
PUSHB[ ]	/* 2 values pushed */
3 15
MIAP[0]	/* MoveIndirectAbsPt */
EIF[ ]	/* EndIf */
PUSHB[ ]	/* 3 values pushed */
0 1 3
SRP1[ ]	/* SetRefPoint1 */
SRP2[ ]	/* SetRefPoint2 */
IP[ ]	/* InterpolatePts */
IUP[0]	/* InterpolateUntPts */
IUP[1]	/* InterpolateUntPts */";
};
width = 1302;
}
);
note = uni0056;
unicode = 86;
},
{
glyphname = W;
kernLeft = W;
kernRight = W;
lastChange = "2024-05-16 19:04:50 +0000";
layers = (
{
layerId = m01;
shapes = (
{
closed = 1;
nodes = (
(117,1404,l),
(59,1404,l),
(438,0,l),
(497,0,l),
(895,1319,l),
(1292,0,l),
(1351,0,l),
(1729,1404,l),
(1672,1404,l),
(1317,87,l),
(925,1404,l),
(867,1404,l),
(472,87,l)
);
}
);
userData = {
assembly = "PUSHB[ ]	/* 3 values pushed */
5 13 14
SRP1[ ]	/* SetRefPoint1 */
SRP2[ ]	/* SetRefPoint2 */
IP[ ]	/* InterpolatePts */
SVTCA[0]	/* SetFreedomAndProjectionVectorToAxis */
PUSHB[ ]	/* 1 value pushed */
0
RCVT[ ]	/* ReadCVT */
IF[ ]	/* If */
PUSHB[ ]	/* 1 value pushed */
1
MDAP[1]	/* MoveDirectAbsPt */
ELSE[ ]	/* Else */
PUSHB[ ]	/* 2 values pushed */
1 31
MIAP[0]	/* MoveIndirectAbsPt */
EIF[ ]	/* EndIf */
PUSHB[ ]	/* 1 value pushed */
0
RCVT[ ]	/* ReadCVT */
IF[ ]	/* If */
PUSHB[ ]	/* 1 value pushed */
8
MDAP[1]	/* MoveDirectAbsPt */
ELSE[ ]	/* Else */
PUSHB[ ]	/* 2 values pushed */
8 31
MIAP[0]	/* MoveIndirectAbsPt */
EIF[ ]	/* EndIf */
PUSHB[ ]	/* 1 value pushed */
0
RCVT[ ]	/* ReadCVT */
IF[ ]	/* If */
PUSHB[ ]	/* 1 value pushed */
11
MDAP[1]	/* MoveDirectAbsPt */
ELSE[ ]	/* Else */
PUSHB[ ]	/* 2 values pushed */
11 31
MIAP[0]	/* MoveIndirectAbsPt */
EIF[ ]	/* EndIf */
PUSHB[ ]	/* 1 value pushed */
0
RCVT[ ]	/* ReadCVT */
IF[ ]	/* If */
PUSHB[ ]	/* 1 value pushed */
3
MDAP[1]	/* MoveDirectAbsPt */
ELSE[ ]	/* Else */
PUSHB[ ]	/* 2 values pushed */
3 15
MIAP[0]	/* MoveIndirectAbsPt */
EIF[ ]	/* EndIf */
PUSHB[ ]	/* 1 value pushed */
0
RCVT[ ]	/* ReadCVT */
IF[ ]	/* If */
PUSHB[ ]	/* 1 value pushed */
6
MDAP[1]	/* MoveDirectAbsPt */
ELSE[ ]	/* Else */
PUSHB[ ]	/* 2 values pushed */
6 15
MIAP[0]	/* MoveIndirectAbsPt */
EIF[ ]	/* EndIf */
PUSHB[ ]	/* 3 values pushed */
0 1 3
SRP1[ ]	/* SetRefPoint1 */
SRP2[ ]	/* SetRefPoint2 */
IP[ ]	/* InterpolatePts */
PUSHB[ ]	/* 3 values pushed */
5 1 3
SRP1[ ]	/* SetRefPoint1 */
SRP2[ ]	/* SetRefPoint2 */
IP[ ]	/* InterpolatePts */
PUSHB[ ]	/* 3 values pushed */
10 1 3
SRP1[ ]	/* SetRefPoint1 */
SRP2[ ]	/* SetRefPoint2 */
IP[ ]	/* InterpolatePts */
IUP[0]	/* InterpolateUntPts */
IUP[1]	/* InterpolateUntPts */";
};
width = 1789;
},
{
layerId = m002;
shapes = (
{
closed = 1;
nodes = (
(356,1404,l),
(20,1404,l),
(319,0,l),
(669,0,l),
(852,800,l),
(1041,0,l),
(1392,0,l),
(1687,1404,l),
(1351,1404,l),
(1192,523,l),
(996,1404,l),
(710,1404,l),
(515,523,l)
);
}
);
userData = {
assembly = "PUSHB[ ]	/* 3 values pushed */
5 13 14
SRP1[ ]	/* SetRefPoint1 */
SRP2[ ]	/* SetRefPoint2 */
IP[ ]	/* InterpolatePts */
SVTCA[0]	/* SetFreedomAndProjectionVectorToAxis */
PUSHB[ ]	/* 1 value pushed */
0
RCVT[ ]	/* ReadCVT */
IF[ ]	/* If */
PUSHB[ ]	/* 1 value pushed */
1
MDAP[1]	/* MoveDirectAbsPt */
ELSE[ ]	/* Else */
PUSHB[ ]	/* 2 values pushed */
1 31
MIAP[0]	/* MoveIndirectAbsPt */
EIF[ ]	/* EndIf */
PUSHB[ ]	/* 1 value pushed */
0
RCVT[ ]	/* ReadCVT */
IF[ ]	/* If */
PUSHB[ ]	/* 1 value pushed */
8
MDAP[1]	/* MoveDirectAbsPt */
ELSE[ ]	/* Else */
PUSHB[ ]	/* 2 values pushed */
8 31
MIAP[0]	/* MoveIndirectAbsPt */
EIF[ ]	/* EndIf */
PUSHB[ ]	/* 1 value pushed */
0
RCVT[ ]	/* ReadCVT */
IF[ ]	/* If */
PUSHB[ ]	/* 1 value pushed */
11
MDAP[1]	/* MoveDirectAbsPt */
ELSE[ ]	/* Else */
PUSHB[ ]	/* 2 values pushed */
11 31
MIAP[0]	/* MoveIndirectAbsPt */
EIF[ ]	/* EndIf */
PUSHB[ ]	/* 1 value pushed */
0
RCVT[ ]	/* ReadCVT */
IF[ ]	/* If */
PUSHB[ ]	/* 1 value pushed */
3
MDAP[1]	/* MoveDirectAbsPt */
ELSE[ ]	/* Else */
PUSHB[ ]	/* 2 values pushed */
3 15
MIAP[0]	/* MoveIndirectAbsPt */
EIF[ ]	/* EndIf */
PUSHB[ ]	/* 1 value pushed */
0
RCVT[ ]	/* ReadCVT */
IF[ ]	/* If */
PUSHB[ ]	/* 1 value pushed */
6
MDAP[1]	/* MoveDirectAbsPt */
ELSE[ ]	/* Else */
PUSHB[ ]	/* 2 values pushed */
6 15
MIAP[0]	/* MoveIndirectAbsPt */
EIF[ ]	/* EndIf */
PUSHB[ ]	/* 3 values pushed */
0 1 3
SRP1[ ]	/* SetRefPoint1 */
SRP2[ ]	/* SetRefPoint2 */
IP[ ]	/* InterpolatePts */
PUSHB[ ]	/* 3 values pushed */
5 1 3
SRP1[ ]	/* SetRefPoint1 */
SRP2[ ]	/* SetRefPoint2 */
IP[ ]	/* InterpolatePts */
PUSHB[ ]	/* 3 values pushed */
10 1 3
SRP1[ ]	/* SetRefPoint1 */
SRP2[ ]	/* SetRefPoint2 */
IP[ ]	/* InterpolatePts */
IUP[0]	/* InterpolateUntPts */
IUP[1]	/* InterpolateUntPts */";
};
width = 1713;
}
);
note = uni0057;
unicode = 87;
},
{
glyphname = X;
kernLeft = X;
kernRight = X;
lastChange = "2024-05-16 19:04:50 +0000";
layers = (
{
layerId = m01;
shapes = (
{
closed = 1;
nodes = (
(70,1404,l),
(556,716,l),
(52,0,l),
(115,0,l),
(589,676,l),
(1061,0,l),
(1126,0,l),
(622,716,l),
(1108,1404,l),
(1042,1404,l),
(589,757,l),
(136,1404,l)
);
}
);
userData = {
assembly = "SVTCA[0]	/* SetFreedomAndProjectionVectorToAxis */
PUSHB[ ]	/* 1 value pushed */
0
RCVT[ ]	/* ReadCVT */
IF[ ]	/* If */
PUSHB[ ]	/* 1 value pushed */
1
MDAP[1]	/* MoveDirectAbsPt */
ELSE[ ]	/* Else */
PUSHB[ ]	/* 2 values pushed */
1 31
MIAP[0]	/* MoveIndirectAbsPt */
EIF[ ]	/* EndIf */
PUSHB[ ]	/* 1 value pushed */
0
RCVT[ ]	/* ReadCVT */
IF[ ]	/* If */
PUSHB[ ]	/* 1 value pushed */
10
MDAP[1]	/* MoveDirectAbsPt */
ELSE[ ]	/* Else */
PUSHB[ ]	/* 2 values pushed */
10 31
MIAP[0]	/* MoveIndirectAbsPt */
EIF[ ]	/* EndIf */
PUSHB[ ]	/* 1 value pushed */
0
RCVT[ ]	/* ReadCVT */
IF[ ]	/* If */
PUSHB[ ]	/* 1 value pushed */
4
MDAP[1]	/* MoveDirectAbsPt */
ELSE[ ]	/* Else */
PUSHB[ ]	/* 2 values pushed */
4 15
MIAP[0]	/* MoveIndirectAbsPt */
EIF[ ]	/* EndIf */
PUSHB[ ]	/* 1 value pushed */
0
RCVT[ ]	/* ReadCVT */
IF[ ]	/* If */
PUSHB[ ]	/* 1 value pushed */
7
MDAP[1]	/* MoveDirectAbsPt */
ELSE[ ]	/* Else */
PUSHB[ ]	/* 2 values pushed */
7 15
MIAP[0]	/* MoveIndirectAbsPt */
EIF[ ]	/* EndIf */
PUSHB[ ]	/* 3 values pushed */
0 1 4
SRP1[ ]	/* SetRefPoint1 */
SRP2[ ]	/* SetRefPoint2 */
IP[ ]	/* InterpolatePts */
PUSHB[ ]	/* 3 values pushed */
6 1 4
SRP1[ ]	/* SetRefPoint1 */
SRP2[ ]	/* SetRefPoint2 */
IP[ ]	/* InterpolatePts */
PUSHB[ ]	/* 3 values pushed */
3 0 6
SRP1[ ]	/* SetRefPoint1 */
SRP2[ ]	/* SetRefPoint2 */
IP[ ]	/* InterpolatePts */
PUSHB[ ]	/* 3 values pushed */
9 6 0
SRP1[ ]	/* SetRefPoint1 */
SRP2[ ]	/* SetRefPoint2 */
IP[ ]	/* InterpolatePts */
IUP[0]	/* InterpolateUntPts */
IUP[1]	/* InterpolateUntPts */";
};
width = 1179;
},
{
layerId = m002;
shapes = (
{
closed = 1;
nodes = (
(13,1404,l),
(408,707,l),
(4,0,l),
(394,0,l),
(628,475,l),
(864,0,l),
(1255,0,l),
(851,707,l),
(1245,1404,l),
(858,1404,l),
(628,935,l),
(400,1404,l)
);
}
);
userData = {
assembly = "SVTCA[0]	/* SetFreedomAndProjectionVectorToAxis */
PUSHB[ ]	/* 1 value pushed */
0
RCVT[ ]	/* ReadCVT */
IF[ ]	/* If */
PUSHB[ ]	/* 1 value pushed */
1
MDAP[1]	/* MoveDirectAbsPt */
ELSE[ ]	/* Else */
PUSHB[ ]	/* 2 values pushed */
1 31
MIAP[0]	/* MoveIndirectAbsPt */
EIF[ ]	/* EndIf */
PUSHB[ ]	/* 1 value pushed */
0
RCVT[ ]	/* ReadCVT */
IF[ ]	/* If */
PUSHB[ ]	/* 1 value pushed */
10
MDAP[1]	/* MoveDirectAbsPt */
ELSE[ ]	/* Else */
PUSHB[ ]	/* 2 values pushed */
10 31
MIAP[0]	/* MoveIndirectAbsPt */
EIF[ ]	/* EndIf */
PUSHB[ ]	/* 1 value pushed */
0
RCVT[ ]	/* ReadCVT */
IF[ ]	/* If */
PUSHB[ ]	/* 1 value pushed */
4
MDAP[1]	/* MoveDirectAbsPt */
ELSE[ ]	/* Else */
PUSHB[ ]	/* 2 values pushed */
4 15
MIAP[0]	/* MoveIndirectAbsPt */
EIF[ ]	/* EndIf */
PUSHB[ ]	/* 1 value pushed */
0
RCVT[ ]	/* ReadCVT */
IF[ ]	/* If */
PUSHB[ ]	/* 1 value pushed */
7
MDAP[1]	/* MoveDirectAbsPt */
ELSE[ ]	/* Else */
PUSHB[ ]	/* 2 values pushed */
7 15
MIAP[0]	/* MoveIndirectAbsPt */
EIF[ ]	/* EndIf */
PUSHB[ ]	/* 3 values pushed */
0 1 4
SRP1[ ]	/* SetRefPoint1 */
SRP2[ ]	/* SetRefPoint2 */
IP[ ]	/* InterpolatePts */
PUSHB[ ]	/* 3 values pushed */
6 1 4
SRP1[ ]	/* SetRefPoint1 */
SRP2[ ]	/* SetRefPoint2 */
IP[ ]	/* InterpolatePts */
PUSHB[ ]	/* 3 values pushed */
3 0 6
SRP1[ ]	/* SetRefPoint1 */
SRP2[ ]	/* SetRefPoint2 */
IP[ ]	/* InterpolatePts */
PUSHB[ ]	/* 3 values pushed */
9 6 0
SRP1[ ]	/* SetRefPoint1 */
SRP2[ ]	/* SetRefPoint2 */
IP[ ]	/* InterpolatePts */
IUP[0]	/* InterpolateUntPts */
IUP[1]	/* InterpolateUntPts */";
};
width = 1259;
}
);
note = uni0058;
unicode = 88;
},
{
glyphname = Y;
kernLeft = Y;
kernRight = Y;
lastChange = "2024-05-16 19:04:50 +0000";
layers = (
{
layerId = m01;
shapes = (
{
closed = 1;
nodes = (
(32,1404,l),
(561,533,l),
(561,0,l),
(613,0,l),
(613,533,l),
(1142,1404,l),
(1079,1404,l),
(587,580,l),
(101,1404,l)
);
}
);
userData = {
assembly = "SVTCA[0]	/* SetFreedomAndProjectionVectorToAxis */
PUSHB[ ]	/* 1 value pushed */
0
RCVT[ ]	/* ReadCVT */
IF[ ]	/* If */
PUSHB[ ]	/* 1 value pushed */
1
MDAP[1]	/* MoveDirectAbsPt */
ELSE[ ]	/* Else */
PUSHB[ ]	/* 2 values pushed */
1 31
MIAP[0]	/* MoveIndirectAbsPt */
EIF[ ]	/* EndIf */
PUSHB[ ]	/* 1 value pushed */
0
RCVT[ ]	/* ReadCVT */
IF[ ]	/* If */
PUSHB[ ]	/* 1 value pushed */
7
MDAP[1]	/* MoveDirectAbsPt */
ELSE[ ]	/* Else */
PUSHB[ ]	/* 2 values pushed */
7 31
MIAP[0]	/* MoveIndirectAbsPt */
EIF[ ]	/* EndIf */
PUSHB[ ]	/* 1 value pushed */
0
RCVT[ ]	/* ReadCVT */
IF[ ]	/* If */
PUSHB[ ]	/* 1 value pushed */
4
MDAP[1]	/* MoveDirectAbsPt */
ELSE[ ]	/* Else */
PUSHB[ ]	/* 2 values pushed */
4 15
MIAP[0]	/* MoveIndirectAbsPt */
EIF[ ]	/* EndIf */
PUSHB[ ]	/* 3 values pushed */
0 1 4
SRP1[ ]	/* SetRefPoint1 */
SRP2[ ]	/* SetRefPoint2 */
IP[ ]	/* InterpolatePts */
IUP[0]	/* InterpolateUntPts */
IUP[1]	/* InterpolateUntPts */";
};
width = 1179;
},
{
layerId = m002;
shapes = (
{
closed = 1;
nodes = (
(-3,1404,l),
(448,505,l),
(448,0,l),
(790,0,l),
(790,505,l),
(1240,1404,l),
(878,1404,l),
(618,793,l),
(360,1404,l)
);
}
);
userData = {
assembly = "SVTCA[0]	/* SetFreedomAndProjectionVectorToAxis */
PUSHB[ ]	/* 1 value pushed */
0
RCVT[ ]	/* ReadCVT */
IF[ ]	/* If */
PUSHB[ ]	/* 1 value pushed */
1
MDAP[1]	/* MoveDirectAbsPt */
ELSE[ ]	/* Else */
PUSHB[ ]	/* 2 values pushed */
1 31
MIAP[0]	/* MoveIndirectAbsPt */
EIF[ ]	/* EndIf */
PUSHB[ ]	/* 1 value pushed */
0
RCVT[ ]	/* ReadCVT */
IF[ ]	/* If */
PUSHB[ ]	/* 1 value pushed */
7
MDAP[1]	/* MoveDirectAbsPt */
ELSE[ ]	/* Else */
PUSHB[ ]	/* 2 values pushed */
7 31
MIAP[0]	/* MoveIndirectAbsPt */
EIF[ ]	/* EndIf */
PUSHB[ ]	/* 1 value pushed */
0
RCVT[ ]	/* ReadCVT */
IF[ ]	/* If */
PUSHB[ ]	/* 1 value pushed */
4
MDAP[1]	/* MoveDirectAbsPt */
ELSE[ ]	/* Else */
PUSHB[ ]	/* 2 values pushed */
4 15
MIAP[0]	/* MoveIndirectAbsPt */
EIF[ ]	/* EndIf */
PUSHB[ ]	/* 3 values pushed */
0 1 4
SRP1[ ]	/* SetRefPoint1 */
SRP2[ ]	/* SetRefPoint2 */
IP[ ]	/* InterpolatePts */
IUP[0]	/* InterpolateUntPts */
IUP[1]	/* InterpolateUntPts */";
};
width = 1236;
}
);
note = uni0059;
unicode = 89;
},
{
glyphname = Yacute;
kernLeft = Y;
kernRight = Y;
lastChange = "2024-05-16 19:04:50 +0000";
layers = (
{
layerId = m01;
shapes = (
{
closed = 1;
nodes = (
(32,1404,l),
(561,533,l),
(561,0,l),
(613,0,l),
(613,533,l),
(1142,1404,l),
(1079,1404,l),
(587,580,l),
(101,1404,l)
);
},
{
closed = 1;
nodes = (
(609,1532,l),
(796,1789,l),
(733,1789,l),
(551,1532,l)
);
}
);
width = 1179;
},
{
layerId = m002;
shapes = (
{
closed = 1;
nodes = (
(-3,1404,l),
(448,505,l),
(448,0,l),
(790,0,l),
(790,505,l),
(1240,1404,l),
(878,1404,l),
(618,793,l),
(360,1404,l)
);
},
{
closed = 1;
nodes = (
(736,1475,l),
(1003,1778,l),
(661,1778,l),
(472,1475,l)
);
}
);
width = 1236;
}
);
note = uni00DD;
unicode = 221;
},
{
glyphname = Ydieresis;
kernLeft = Y;
kernRight = Y;
lastChange = "2024-05-16 19:04:50 +0000";
layers = (
{
layerId = m01;
shapes = (
{
closed = 1;
nodes = (
(32,1404,l),
(561,533,l),
(561,0,l),
(613,0,l),
(613,533,l),
(1142,1404,l),
(1079,1404,l),
(587,580,l),
(101,1404,l)
);
},
{
closed = 1;
nodes = (
(320,1648,o),
(344,1625,o),
(373,1625,cs),
(403,1625,o),
(427,1648,o),
(427,1678,cs),
(427,1707,o),
(403,1732,o),
(373,1732,cs),
(344,1732,o),
(320,1707,o),
(320,1678,cs)
);
},
{
closed = 1;
nodes = (
(749,1648,o),
(772,1625,o),
(802,1625,cs),
(832,1625,o),
(856,1648,o),
(856,1678,cs),
(856,1707,o),
(832,1732,o),
(802,1732,cs),
(772,1732,o),
(749,1707,o),
(749,1678,cs)
);
}
);
width = 1179;
},
{
layerId = m002;
shapes = (
{
closed = 1;
nodes = (
(-3,1404,l),
(448,505,l),
(448,0,l),
(790,0,l),
(790,505,l),
(1240,1404,l),
(878,1404,l),
(618,793,l),
(360,1404,l)
);
},
{
closed = 1;
nodes = (
(222,1544,o),
(285,1485,o),
(367,1485,cs),
(450,1485,o),
(512,1543,o),
(512,1614,cs),
(512,1685,o),
(450,1739,o),
(367,1739,cs),
(285,1739,o),
(222,1685,o),
(222,1613,cs)
);
},
{
closed = 1;
nodes = (
(721,1544,o),
(784,1485,o),
(867,1485,cs),
(950,1485,o),
(1013,1543,o),
(1013,1614,cs),
(1013,1685,o),
(950,1739,o),
(867,1739,cs),
(784,1739,o),
(721,1685,o),
(721,1613,cs)
);
}
);
width = 1236;
}
);
note = uni0178;
unicode = 376;
},
{
glyphname = Z;
kernLeft = Z;
kernRight = Z;
lastChange = "2024-05-16 19:04:50 +0000";
layers = (
{
layerId = m01;
shapes = (
{
closed = 1;
nodes = (
(1059,1404,l),
(129,1404,l),
(129,1352,l),
(986,1352,l),
(91,42,l),
(91,0,l),
(1089,0,l),
(1089,52,l),
(162,52,l),
(1059,1367,l)
);
}
);
userData = {
assembly = "SVTCA[0]	/* SetFreedomAndProjectionVectorToAxis */
PUSHB[ ]	/* 1 value pushed */
0
RCVT[ ]	/* ReadCVT */
IF[ ]	/* If */
PUSHB[ ]	/* 1 value pushed */
7
MDAP[1]	/* MoveDirectAbsPt */
ELSE[ ]	/* Else */
PUSHB[ ]	/* 2 values pushed */
7 31
MIAP[0]	/* MoveIndirectAbsPt */
EIF[ ]	/* EndIf */
PUSHB[ ]	/* 1 value pushed */
0
RCVT[ ]	/* ReadCVT */
IF[ ]	/* If */
PUSHB[ ]	/* 1 value pushed */
2
MDAP[1]	/* MoveDirectAbsPt */
ELSE[ ]	/* Else */
PUSHB[ ]	/* 2 values pushed */
2 15
MIAP[0]	/* MoveIndirectAbsPt */
EIF[ ]	/* EndIf */
PUSHB[ ]	/* 2 values pushed */
0 1
PUSHB[ ]	/* 1 value pushed */
10
CALL[ ]	/* CallFunction */
IF[ ]	/* If */
POP[ ]	/* PopTopStack */
MDRP[11000]	/* MoveDirectRelPt */
ELSE[ ]	/* Else */
MIRP[10100]	/* MoveIndirectRelPt */
EIF[ ]	/* EndIf */
PUSHB[ ]	/* 3 values pushed */
4 0 2
SRP1[ ]	/* SetRefPoint1 */
SRP2[ ]	/* SetRefPoint2 */
IP[ ]	/* InterpolatePts */
PUSHB[ ]	/* 1 value pushed */
7
SRP0[ ]	/* SetRefPoint0 */
PUSHB[ ]	/* 2 values pushed */
5 1
PUSHB[ ]	/* 1 value pushed */
10
CALL[ ]	/* CallFunction */
IF[ ]	/* If */
POP[ ]	/* PopTopStack */
MDRP[11000]	/* MoveDirectRelPt */
ELSE[ ]	/* Else */
MIRP[10100]	/* MoveIndirectRelPt */
EIF[ ]	/* EndIf */
PUSHB[ ]	/* 3 values pushed */
9 5 7
SRP1[ ]	/* SetRefPoint1 */
SRP2[ ]	/* SetRefPoint2 */
IP[ ]	/* InterpolatePts */
IUP[0]	/* InterpolateUntPts */
IUP[1]	/* InterpolateUntPts */";
};
width = 1180;
},
{
layerId = m002;
shapes = (
{
closed = 1;
nodes = (
(1150,1404,l),
(60,1404,l),
(60,1140,l),
(731,1140,l),
(65,178,l),
(65,0,l),
(1155,0,l),
(1155,260,l),
(486,260,l),
(1150,1228,l)
);
}
);
userData = {
assembly = "SVTCA[0]	/* SetFreedomAndProjectionVectorToAxis */
PUSHB[ ]	/* 1 value pushed */
0
RCVT[ ]	/* ReadCVT */
IF[ ]	/* If */
PUSHB[ ]	/* 1 value pushed */
7
MDAP[1]	/* MoveDirectAbsPt */
ELSE[ ]	/* Else */
PUSHB[ ]	/* 2 values pushed */
7 31
MIAP[0]	/* MoveIndirectAbsPt */
EIF[ ]	/* EndIf */
PUSHB[ ]	/* 1 value pushed */
0
RCVT[ ]	/* ReadCVT */
IF[ ]	/* If */
PUSHB[ ]	/* 1 value pushed */
2
MDAP[1]	/* MoveDirectAbsPt */
ELSE[ ]	/* Else */
PUSHB[ ]	/* 2 values pushed */
2 15
MIAP[0]	/* MoveIndirectAbsPt */
EIF[ ]	/* EndIf */
PUSHB[ ]	/* 2 values pushed */
0 1
PUSHB[ ]	/* 1 value pushed */
10
CALL[ ]	/* CallFunction */
IF[ ]	/* If */
POP[ ]	/* PopTopStack */
MDRP[11000]	/* MoveDirectRelPt */
ELSE[ ]	/* Else */
MIRP[10100]	/* MoveIndirectRelPt */
EIF[ ]	/* EndIf */
PUSHB[ ]	/* 3 values pushed */
4 0 2
SRP1[ ]	/* SetRefPoint1 */
SRP2[ ]	/* SetRefPoint2 */
IP[ ]	/* InterpolatePts */
PUSHB[ ]	/* 1 value pushed */
7
SRP0[ ]	/* SetRefPoint0 */
PUSHB[ ]	/* 2 values pushed */
5 1
PUSHB[ ]	/* 1 value pushed */
10
CALL[ ]	/* CallFunction */
IF[ ]	/* If */
POP[ ]	/* PopTopStack */
MDRP[11000]	/* MoveDirectRelPt */
ELSE[ ]	/* Else */
MIRP[10100]	/* MoveIndirectRelPt */
EIF[ ]	/* EndIf */
PUSHB[ ]	/* 3 values pushed */
9 5 7
SRP1[ ]	/* SetRefPoint1 */
SRP2[ ]	/* SetRefPoint2 */
IP[ ]	/* InterpolatePts */
IUP[0]	/* InterpolateUntPts */
IUP[1]	/* InterpolateUntPts */";
};
width = 1202;
}
);
note = uni005A;
unicode = 90;
},
{
glyphname = Zcaron;
kernLeft = Z;
kernRight = Z;
lastChange = "2024-05-16 19:04:50 +0000";
layers = (
{
layerId = m01;
shapes = (
{
closed = 1;
nodes = (
(1059,1404,l),
(129,1404,l),
(129,1352,l),
(986,1352,l),
(91,42,l),
(91,0,l),
(1089,0,l),
(1089,52,l),
(162,52,l),
(1059,1367,l)
);
},
{
closed = 1;
nodes = (
(344,1776,l),
(344,1765,l),
(557,1522,l),
(613,1522,l),
(824,1763,l),
(824,1776,l),
(773,1776,l),
(585,1567,l),
(399,1776,l)
);
}
);
width = 1180;
},
{
layerId = m002;
shapes = (
{
closed = 1;
nodes = (
(1150,1404,l),
(60,1404,l),
(60,1140,l),
(731,1140,l),
(65,178,l),
(65,0,l),
(1155,0,l),
(1155,260,l),
(486,260,l),
(1150,1228,l)
);
},
{
closed = 1;
nodes = (
(193,1780,l),
(193,1771,l),
(508,1496,l),
(716,1496,l),
(1032,1769,l),
(1032,1780,l),
(754,1780,l),
(612,1651,l),
(473,1780,l)
);
}
);
width = 1202;
}
);
note = uni017D;
unicode = 381;
},
{
glyphname = a;
kernLeft = a;
kernRight = a;
lastChange = "2024-05-16 19:04:50 +0000";
layers = (
{
layerId = m01;
shapes = (
{
closed = 1;
nodes = (
(900,9,l),
(882,50,o),
(873,128,o),
(873,242,cs),
(873,740,ls),
(869,945,o),
(728,1062,o),
(503,1062,cs),
(287,1062,o),
(117,927,o),
(117,758,c),
(169,756,l),
(169,900,o),
(312,1010,o),
(503,1010,cs),
(707,1010,o),
(821,909,o),
(821,735,cs),
(821,582,l),
(563,582,ls),
(277,580,o),
(89,456,o),
(89,264,cs),
(89,96,o),
(217,-19,o),
(410,-19,cs),
(590,-19,o),
(739,57,o),
(821,191,c),
(821,108,o),
(827,44,o),
(840,0,c),
(900,0,l)
);
},
{
closed = 1;
nodes = (
(255,32,o),
(141,133,o),
(141,260,cs),
(141,458,o),
(375,529,o),
(580,529,cs),
(821,529,l),
(821,281,l),
(750,123,o),
(606,32,o),
(410,32,cs)
);
}
);
userData = {
assembly = "SVTCA[0]	/* SetFreedomAndProjectionVectorToAxis */
PUSHB[ ]	/* 1 value pushed */
0
RCVT[ ]	/* ReadCVT */
IF[ ]	/* If */
PUSHB[ ]	/* 1 value pushed */
19
MDAP[1]	/* MoveDirectAbsPt */
ELSE[ ]	/* Else */
PUSHB[ ]	/* 2 values pushed */
19 27
MIAP[0]	/* MoveIndirectAbsPt */
EIF[ ]	/* EndIf */
PUSHB[ ]	/* 1 value pushed */
0
RCVT[ ]	/* ReadCVT */
IF[ ]	/* If */
PUSHB[ ]	/* 1 value pushed */
4
MDAP[1]	/* MoveDirectAbsPt */
ELSE[ ]	/* Else */
PUSHB[ ]	/* 2 values pushed */
4 15
MIAP[0]	/* MoveIndirectAbsPt */
EIF[ ]	/* EndIf */
PUSHB[ ]	/* 1 value pushed */
0
RCVT[ ]	/* ReadCVT */
IF[ ]	/* If */
PUSHB[ ]	/* 1 value pushed */
0
MDAP[1]	/* MoveDirectAbsPt */
ELSE[ ]	/* Else */
PUSHB[ ]	/* 2 values pushed */
0 15
MIAP[0]	/* MoveIndirectAbsPt */
EIF[ ]	/* EndIf */
PUSHB[ ]	/* 1 value pushed */
4
SRP0[ ]	/* SetRefPoint0 */
PUSHB[ ]	/* 2 values pushed */
27 9
PUSHB[ ]	/* 1 value pushed */
10
CALL[ ]	/* CallFunction */
IF[ ]	/* If */
POP[ ]	/* PopTopStack */
MDRP[11000]	/* MoveDirectRelPt */
ELSE[ ]	/* Else */
MIRP[10100]	/* MoveIndirectRelPt */
EIF[ ]	/* EndIf */
PUSHB[ ]	/* 3 values pushed */
2 4 27
SRP1[ ]	/* SetRefPoint1 */
SRP2[ ]	/* SetRefPoint2 */
IP[ ]	/* InterpolatePts */
PUSHB[ ]	/* 3 values pushed */
10 4 19
SRP1[ ]	/* SetRefPoint1 */
SRP2[ ]	/* SetRefPoint2 */
IP[ ]	/* InterpolatePts */
PUSHB[ ]	/* 1 value pushed */
10
MDAP[1]	/* MoveDirectAbsPt */
PUSHB[ ]	/* 1 value pushed */
19
SRP0[ ]	/* SetRefPoint0 */
PUSHB[ ]	/* 2 values pushed */
14 9
PUSHB[ ]	/* 1 value pushed */
10
CALL[ ]	/* CallFunction */
IF[ ]	/* If */
POP[ ]	/* PopTopStack */
MDRP[11000]	/* MoveDirectRelPt */
ELSE[ ]	/* Else */
MIRP[10100]	/* MoveIndirectRelPt */
EIF[ ]	/* EndIf */
PUSHB[ ]	/* 3 values pushed */
16 14 10
SRP1[ ]	/* SetRefPoint1 */
SRP2[ ]	/* SetRefPoint2 */
IP[ ]	/* InterpolatePts */
PUSHB[ ]	/* 5 values pushed */
188 16 204 16 2
DELTAP1[ ]	/* DeltaExceptionP1 */
PUSHB[ ]	/* 3 values pushed */
94 16 1
DELTAP1[ ]	/* DeltaExceptionP1 */
NPUSHB[ ]	/* 9 values pushed */
12 16 28 16 44 16 60 16 4
DELTAP1[ ]	/* DeltaExceptionP1 */
PUSHB[ ]	/* 5 values pushed */
108 16 124 16 2
DELTAP1[ ]	/* DeltaExceptionP1 */
PUSHB[ ]	/* 1 value pushed */
10
SRP0[ ]	/* SetRefPoint0 */
PUSHB[ ]	/* 2 values pushed */
31 8
PUSHB[ ]	/* 1 value pushed */
10
CALL[ ]	/* CallFunction */
IF[ ]	/* If */
POP[ ]	/* PopTopStack */
MDRP[11000]	/* MoveDirectRelPt */
ELSE[ ]	/* Else */
MIRP[10100]	/* MoveIndirectRelPt */
EIF[ ]	/* EndIf */
IUP[0]	/* InterpolateUntPts */
IUP[1]	/* InterpolateUntPts */";
};
width = 1043;
},
{
layerId = m002;
shapes = (
{
closed = 1;
nodes = (
(1003,-9,l),
(974,41,o),
(960,114,o),
(958,212,cs),
(958,671,ls),
(955,900,o),
(793,1034,o),
(525,1034,cs),
(258,1034,o),
(68,898,o),
(68,696,c),
(392,696,l),
(392,771,o),
(431,809,o),
(508,809,cs),
(591,809,o),
(633,761,o),
(633,667,cs),
(633,611,l),
(532,611,ls),
(214,611,o),
(43,494,o),
(43,268,cs),
(43,88,o),
(202,-45,o),
(397,-45,cs),
(503,-45,o),
(587,-8,o),
(647,67,c),
(656,28,o),
(667,-3,o),
(678,-25,c),
(1003,-25,l)
);
},
{
closed = 1;
nodes = (
(413,185,o),
(370,226,o),
(370,286,cs),
(370,387,o),
(425,437,o),
(536,437,cs),
(633,437,l),
(633,271,l),
(610,229,o),
(554,185,o),
(476,185,cs)
);
}
);
userData = {
assembly = "SVTCA[0]	/* SetFreedomAndProjectionVectorToAxis */
PUSHB[ ]	/* 1 value pushed */
0
RCVT[ ]	/* ReadCVT */
IF[ ]	/* If */
PUSHB[ ]	/* 1 value pushed */
19
MDAP[1]	/* MoveDirectAbsPt */
ELSE[ ]	/* Else */
PUSHB[ ]	/* 2 values pushed */
19 27
MIAP[0]	/* MoveIndirectAbsPt */
EIF[ ]	/* EndIf */
PUSHB[ ]	/* 1 value pushed */
0
RCVT[ ]	/* ReadCVT */
IF[ ]	/* If */
PUSHB[ ]	/* 1 value pushed */
4
MDAP[1]	/* MoveDirectAbsPt */
ELSE[ ]	/* Else */
PUSHB[ ]	/* 2 values pushed */
4 15
MIAP[0]	/* MoveIndirectAbsPt */
EIF[ ]	/* EndIf */
PUSHB[ ]	/* 1 value pushed */
0
RCVT[ ]	/* ReadCVT */
IF[ ]	/* If */
PUSHB[ ]	/* 1 value pushed */
0
MDAP[1]	/* MoveDirectAbsPt */
ELSE[ ]	/* Else */
PUSHB[ ]	/* 2 values pushed */
0 15
MIAP[0]	/* MoveIndirectAbsPt */
EIF[ ]	/* EndIf */
PUSHB[ ]	/* 1 value pushed */
4
SRP0[ ]	/* SetRefPoint0 */
PUSHB[ ]	/* 2 values pushed */
27 9
PUSHB[ ]	/* 1 value pushed */
10
CALL[ ]	/* CallFunction */
IF[ ]	/* If */
POP[ ]	/* PopTopStack */
MDRP[11000]	/* MoveDirectRelPt */
ELSE[ ]	/* Else */
MIRP[10100]	/* MoveIndirectRelPt */
EIF[ ]	/* EndIf */
PUSHB[ ]	/* 3 values pushed */
2 4 27
SRP1[ ]	/* SetRefPoint1 */
SRP2[ ]	/* SetRefPoint2 */
IP[ ]	/* InterpolatePts */
PUSHB[ ]	/* 3 values pushed */
10 4 19
SRP1[ ]	/* SetRefPoint1 */
SRP2[ ]	/* SetRefPoint2 */
IP[ ]	/* InterpolatePts */
PUSHB[ ]	/* 1 value pushed */
10
MDAP[1]	/* MoveDirectAbsPt */
PUSHB[ ]	/* 1 value pushed */
19
SRP0[ ]	/* SetRefPoint0 */
PUSHB[ ]	/* 2 values pushed */
14 9
PUSHB[ ]	/* 1 value pushed */
10
CALL[ ]	/* CallFunction */
IF[ ]	/* If */
POP[ ]	/* PopTopStack */
MDRP[11000]	/* MoveDirectRelPt */
ELSE[ ]	/* Else */
MIRP[10100]	/* MoveIndirectRelPt */
EIF[ ]	/* EndIf */
PUSHB[ ]	/* 3 values pushed */
16 14 10
SRP1[ ]	/* SetRefPoint1 */
SRP2[ ]	/* SetRefPoint2 */
IP[ ]	/* InterpolatePts */
PUSHB[ ]	/* 5 values pushed */
188 16 204 16 2
DELTAP1[ ]	/* DeltaExceptionP1 */
PUSHB[ ]	/* 3 values pushed */
94 16 1
DELTAP1[ ]	/* DeltaExceptionP1 */
NPUSHB[ ]	/* 9 values pushed */
12 16 28 16 44 16 60 16 4
DELTAP1[ ]	/* DeltaExceptionP1 */
PUSHB[ ]	/* 5 values pushed */
108 16 124 16 2
DELTAP1[ ]	/* DeltaExceptionP1 */
PUSHB[ ]	/* 1 value pushed */
10
SRP0[ ]	/* SetRefPoint0 */
PUSHB[ ]	/* 2 values pushed */
31 8
PUSHB[ ]	/* 1 value pushed */
10
CALL[ ]	/* CallFunction */
IF[ ]	/* If */
POP[ ]	/* PopTopStack */
MDRP[11000]	/* MoveDirectRelPt */
ELSE[ ]	/* Else */
MIRP[10100]	/* MoveIndirectRelPt */
EIF[ ]	/* EndIf */
IUP[0]	/* InterpolateUntPts */
IUP[1]	/* InterpolateUntPts */";
};
width = 1047;
}
);
note = uni0061;
unicode = 97;
},
{
glyphname = aacute;
kernLeft = a;
kernRight = a;
lastChange = "2024-05-16 19:04:50 +0000";
layers = (
{
layerId = m01;
shapes = (
{
closed = 1;
nodes = (
(900,9,l),
(882,50,o),
(873,128,o),
(873,242,cs),
(873,740,ls),
(869,945,o),
(728,1062,o),
(503,1062,cs),
(287,1062,o),
(117,927,o),
(117,758,c),
(169,756,l),
(169,900,o),
(312,1010,o),
(503,1010,cs),
(707,1010,o),
(821,909,o),
(821,735,cs),
(821,582,l),
(563,582,ls),
(277,580,o),
(89,456,o),
(89,264,cs),
(89,96,o),
(217,-19,o),
(410,-19,cs),
(590,-19,o),
(739,57,o),
(821,191,c),
(821,108,o),
(827,44,o),
(840,0,c),
(900,0,l)
);
},
{
closed = 1;
nodes = (
(255,32,o),
(141,133,o),
(141,260,cs),
(141,458,o),
(375,529,o),
(580,529,cs),
(821,529,l),
(821,281,l),
(750,123,o),
(606,32,o),
(410,32,cs)
);
},
{
closed = 1;
nodes = (
(581,1224,l),
(768,1481,l),
(705,1481,l),
(523,1224,l)
);
}
);
width = 1043;
},
{
layerId = m002;
shapes = (
{
closed = 1;
nodes = (
(1003,-9,l),
(974,41,o),
(960,114,o),
(958,212,cs),
(958,671,ls),
(955,900,o),
(793,1034,o),
(525,1034,cs),
(258,1034,o),
(68,898,o),
(68,696,c),
(392,696,l),
(392,771,o),
(431,809,o),
(508,809,cs),
(591,809,o),
(633,761,o),
(633,667,cs),
(633,611,l),
(532,611,ls),
(214,611,o),
(43,494,o),
(43,268,cs),
(43,88,o),
(202,-45,o),
(397,-45,cs),
(503,-45,o),
(587,-8,o),
(647,67,c),
(656,28,o),
(667,-3,o),
(678,-25,c),
(1003,-25,l)
);
},
{
closed = 1;
nodes = (
(413,185,o),
(370,226,o),
(370,286,cs),
(370,387,o),
(425,437,o),
(536,437,cs),
(633,437,l),
(633,271,l),
(610,229,o),
(554,185,o),
(476,185,cs)
);
},
{
closed = 1;
nodes = (
(631,1152,l),
(899,1453,l),
(555,1453,l),
(366,1152,l)
);
}
);
width = 1047;
}
);
note = uni00E1;
unicode = 225;
},
{
glyphname = acircumflex;
kernLeft = a;
kernRight = a;
lastChange = "2024-05-16 19:04:50 +0000";
layers = (
{
layerId = m01;
shapes = (
{
closed = 1;
nodes = (
(900,9,l),
(882,50,o),
(873,128,o),
(873,242,cs),
(873,740,ls),
(869,945,o),
(728,1062,o),
(503,1062,cs),
(287,1062,o),
(117,927,o),
(117,758,c),
(169,756,l),
(169,900,o),
(312,1010,o),
(503,1010,cs),
(707,1010,o),
(821,909,o),
(821,735,cs),
(821,582,l),
(563,582,ls),
(277,580,o),
(89,456,o),
(89,264,cs),
(89,96,o),
(217,-19,o),
(410,-19,cs),
(590,-19,o),
(739,57,o),
(821,191,c),
(821,108,o),
(827,44,o),
(840,0,c),
(900,0,l)
);
},
{
closed = 1;
nodes = (
(255,32,o),
(141,133,o),
(141,260,cs),
(141,458,o),
(375,529,o),
(580,529,cs),
(821,529,l),
(821,281,l),
(750,123,o),
(606,32,o),
(410,32,cs)
);
},
{
closed = 1;
nodes = (
(539,1462,l),
(317,1232,l),
(317,1218,l),
(379,1218,l),
(557,1407,l),
(737,1218,l),
(803,1218,l),
(803,1228,l),
(577,1462,l)
);
}
);
width = 1043;
},
{
layerId = m002;
shapes = (
{
closed = 1;
nodes = (
(1003,-9,l),
(974,41,o),
(960,114,o),
(958,212,cs),
(958,671,ls),
(955,900,o),
(793,1034,o),
(525,1034,cs),
(258,1034,o),
(68,898,o),
(68,696,c),
(392,696,l),
(392,771,o),
(431,809,o),
(508,809,cs),
(591,809,o),
(633,761,o),
(633,667,cs),
(633,611,l),
(532,611,ls),
(214,611,o),
(43,494,o),
(43,268,cs),
(43,88,o),
(202,-45,o),
(397,-45,cs),
(503,-45,o),
(587,-8,o),
(647,67,c),
(656,28,o),
(667,-3,o),
(678,-25,c),
(1003,-25,l)
);
},
{
closed = 1;
nodes = (
(413,185,o),
(370,226,o),
(370,286,cs),
(370,387,o),
(425,437,o),
(536,437,cs),
(633,437,l),
(633,271,l),
(610,229,o),
(554,185,o),
(476,185,cs)
);
},
{
closed = 1;
nodes = (
(422,1453,l),
(111,1187,l),
(111,1169,l),
(361,1169,l),
(514,1300,l),
(667,1169,l),
(925,1169,l),
(925,1183,l),
(609,1453,l)
);
}
);
width = 1047;
}
);
note = uni00E2;
unicode = 226;
},
{
glyphname = adieresis;
kernLeft = a;
kernRight = a;
lastChange = "2024-05-16 19:04:50 +0000";
layers = (
{
layerId = m01;
shapes = (
{
closed = 1;
nodes = (
(900,9,l),
(882,50,o),
(873,128,o),
(873,242,cs),
(873,740,ls),
(869,945,o),
(728,1062,o),
(503,1062,cs),
(287,1062,o),
(117,927,o),
(117,758,c),
(169,756,l),
(169,900,o),
(312,1010,o),
(503,1010,cs),
(707,1010,o),
(821,909,o),
(821,735,cs),
(821,582,l),
(563,582,ls),
(277,580,o),
(89,456,o),
(89,264,cs),
(89,96,o),
(217,-19,o),
(410,-19,cs),
(590,-19,o),
(739,57,o),
(821,191,c),
(821,108,o),
(827,44,o),
(840,0,c),
(900,0,l)
);
},
{
closed = 1;
nodes = (
(255,32,o),
(141,133,o),
(141,260,cs),
(141,458,o),
(375,529,o),
(580,529,cs),
(821,529,l),
(821,281,l),
(750,123,o),
(606,32,o),
(410,32,cs)
);
},
{
closed = 1;
nodes = (
(292,1340,o),
(316,1317,o),
(345,1317,cs),
(375,1317,o),
(399,1340,o),
(399,1370,cs),
(399,1399,o),
(375,1424,o),
(345,1424,cs),
(316,1424,o),
(292,1399,o),
(292,1370,cs)
);
},
{
closed = 1;
nodes = (
(721,1340,o),
(744,1317,o),
(774,1317,cs),
(804,1317,o),
(828,1340,o),
(828,1370,cs),
(828,1399,o),
(804,1424,o),
(774,1424,cs),
(744,1424,o),
(721,1399,o),
(721,1370,cs)
);
}
);
width = 1043;
},
{
layerId = m002;
shapes = (
{
closed = 1;
nodes = (
(1003,-9,l),
(974,41,o),
(960,114,o),
(958,212,cs),
(958,671,ls),
(955,900,o),
(793,1034,o),
(525,1034,cs),
(258,1034,o),
(68,898,o),
(68,696,c),
(392,696,l),
(392,771,o),
(431,809,o),
(508,809,cs),
(591,809,o),
(633,761,o),
(633,667,cs),
(633,611,l),
(532,611,ls),
(214,611,o),
(43,494,o),
(43,268,cs),
(43,88,o),
(202,-45,o),
(397,-45,cs),
(503,-45,o),
(587,-8,o),
(647,67,c),
(656,28,o),
(667,-3,o),
(678,-25,c),
(1003,-25,l)
);
},
{
closed = 1;
nodes = (
(413,185,o),
(370,226,o),
(370,286,cs),
(370,387,o),
(425,437,o),
(536,437,cs),
(633,437,l),
(633,271,l),
(610,229,o),
(554,185,o),
(476,185,cs)
);
},
{
closed = 1;
nodes = (
(118,1220,o),
(181,1161,o),
(263,1161,cs),
(346,1161,o),
(409,1219,o),
(409,1289,cs),
(409,1361,o),
(346,1417,o),
(263,1417,cs),
(181,1417,o),
(118,1361,o),
(118,1288,cs)
);
},
{
closed = 1;
nodes = (
(618,1220,o),
(680,1161,o),
(763,1161,cs),
(845,1161,o),
(908,1219,o),
(908,1289,cs),
(908,1361,o),
(845,1417,o),
(763,1417,cs),
(680,1417,o),
(618,1361,o),
(618,1288,cs)
);
}
);
width = 1047;
}
);
note = uni00E4;
unicode = 228;
},
{
glyphname = agrave;
kernLeft = a;
kernRight = a;
lastChange = "2024-05-16 19:04:50 +0000";
layers = (
{
layerId = m01;
shapes = (
{
closed = 1;
nodes = (
(900,9,l),
(882,50,o),
(873,128,o),
(873,242,cs),
(873,740,ls),
(869,945,o),
(728,1062,o),
(503,1062,cs),
(287,1062,o),
(117,927,o),
(117,758,c),
(169,756,l),
(169,900,o),
(312,1010,o),
(503,1010,cs),
(707,1010,o),
(821,909,o),
(821,735,cs),
(821,582,l),
(563,582,ls),
(277,580,o),
(89,456,o),
(89,264,cs),
(89,96,o),
(217,-19,o),
(410,-19,cs),
(590,-19,o),
(739,57,o),
(821,191,c),
(821,108,o),
(827,44,o),
(840,0,c),
(900,0,l)
);
},
{
closed = 1;
nodes = (
(255,32,o),
(141,133,o),
(141,260,cs),
(141,458,o),
(375,529,o),
(580,529,cs),
(821,529,l),
(821,281,l),
(750,123,o),
(606,32,o),
(410,32,cs)
);
},
{
closed = 1;
nodes = (
(351,1481,l),
(539,1224,l),
(596,1224,l),
(415,1481,l)
);
}
);
width = 1043;
},
{
layerId = m002;
shapes = (
{
closed = 1;
nodes = (
(1003,-9,l),
(974,41,o),
(960,114,o),
(958,212,cs),
(958,671,ls),
(955,900,o),
(793,1034,o),
(525,1034,cs),
(258,1034,o),
(68,898,o),
(68,696,c),
(392,696,l),
(392,771,o),
(431,809,o),
(508,809,cs),
(591,809,o),
(633,761,o),
(633,667,cs),
(633,611,l),
(532,611,ls),
(214,611,o),
(43,494,o),
(43,268,cs),
(43,88,o),
(202,-45,o),
(397,-45,cs),
(503,-45,o),
(587,-8,o),
(647,67,c),
(656,28,o),
(667,-3,o),
(678,-25,c),
(1003,-25,l)
);
},
{
closed = 1;
nodes = (
(413,185,o),
(370,226,o),
(370,286,cs),
(370,387,o),
(425,437,o),
(536,437,cs),
(633,437,l),
(633,271,l),
(610,229,o),
(554,185,o),
(476,185,cs)
);
},
{
closed = 1;
nodes = (
(134,1453,l),
(404,1152,l),
(667,1152,l),
(476,1453,l)
);
}
);
width = 1047;
}
);
note = uni00E0;
unicode = 224;
},
{
glyphname = aring;
kernLeft = a;
kernRight = a;
lastChange = "2024-05-16 19:04:50 +0000";
layers = (
{
layerId = m01;
shapes = (
{
closed = 1;
nodes = (
(900,9,l),
(882,50,o),
(873,128,o),
(873,242,cs),
(873,740,ls),
(869,945,o),
(728,1062,o),
(503,1062,cs),
(287,1062,o),
(117,927,o),
(117,758,c),
(169,756,l),
(169,900,o),
(312,1010,o),
(503,1010,cs),
(707,1010,o),
(821,909,o),
(821,735,cs),
(821,582,l),
(563,582,ls),
(277,580,o),
(89,456,o),
(89,264,cs),
(89,96,o),
(217,-19,o),
(410,-19,cs),
(590,-19,o),
(739,57,o),
(821,191,c),
(821,108,o),
(827,44,o),
(840,0,c),
(900,0,l)
);
},
{
closed = 1;
nodes = (
(255,32,o),
(141,133,o),
(141,260,cs),
(141,458,o),
(375,529,o),
(580,529,cs),
(821,529,l),
(821,281,l),
(750,123,o),
(606,32,o),
(410,32,cs)
);
},
{
closed = 1;
nodes = (
(470,1500,o),
(395,1429,o),
(395,1332,cs),
(395,1236,o),
(472,1168,o),
(560,1168,cs),
(653,1168,o),
(725,1240,o),
(725,1332,cs),
(725,1425,o),
(653,1500,o),
(560,1500,cs)
);
},
{
closed = 1;
nodes = (
(408,1220,o),
(411,1448,o),
(560,1448,cs),
(710,1448,o),
(712,1220,o),
(560,1220,cs)
);
}
);
width = 1043;
},
{
layerId = m002;
shapes = (
{
closed = 1;
nodes = (
(1003,-9,l),
(974,41,o),
(960,114,o),
(958,212,cs),
(958,671,ls),
(955,900,o),
(793,1034,o),
(525,1034,cs),
(258,1034,o),
(68,898,o),
(68,696,c),
(392,696,l),
(392,771,o),
(431,809,o),
(508,809,cs),
(591,809,o),
(633,761,o),
(633,667,cs),
(633,611,l),
(532,611,ls),
(214,611,o),
(43,494,o),
(43,268,cs),
(43,88,o),
(202,-45,o),
(397,-45,cs),
(503,-45,o),
(587,-8,o),
(647,67,c),
(656,28,o),
(667,-3,o),
(678,-25,c),
(1003,-25,l)
);
},
{
closed = 1;
nodes = (
(413,185,o),
(370,226,o),
(370,286,cs),
(370,387,o),
(425,437,o),
(536,437,cs),
(633,437,l),
(633,271,l),
(610,229,o),
(554,185,o),
(476,185,cs)
);
},
{
closed = 1;
nodes = (
(300,1232,o),
(392,1148,o),
(519,1148,cs),
(639,1148,o),
(733,1232,o),
(733,1341,cs),
(733,1452,o),
(636,1537,o),
(519,1537,cs),
(395,1537,o),
(300,1452,o),
(300,1341,cs)
);
},
{
closed = 1;
nodes = (
(382,1239,o),
(382,1444,o),
(519,1444,cs),
(647,1444,o),
(650,1239,o),
(519,1239,cs)
);
}
);
width = 1047;
}
);
note = uni00E5;
unicode = 229;
},
{
glyphname = atilde;
kernLeft = a;
kernRight = a;
lastChange = "2024-05-16 19:04:50 +0000";
layers = (
{
layerId = m01;
shapes = (
{
closed = 1;
nodes = (
(900,9,l),
(882,50,o),
(873,128,o),
(873,242,cs),
(873,740,ls),
(869,945,o),
(728,1062,o),
(503,1062,cs),
(287,1062,o),
(117,927,o),
(117,758,c),
(169,756,l),
(169,900,o),
(312,1010,o),
(503,1010,cs),
(707,1010,o),
(821,909,o),
(821,735,cs),
(821,582,l),
(563,582,ls),
(277,580,o),
(89,456,o),
(89,264,cs),
(89,96,o),
(217,-19,o),
(410,-19,cs),
(590,-19,o),
(739,57,o),
(821,191,c),
(821,108,o),
(827,44,o),
(840,0,c),
(900,0,l)
);
},
{
closed = 1;
nodes = (
(255,32,o),
(141,133,o),
(141,260,cs),
(141,458,o),
(375,529,o),
(580,529,cs),
(821,529,l),
(821,281,l),
(750,123,o),
(606,32,o),
(410,32,cs)
);
},
{
closed = 1;
nodes = (
(821,1357,o),
(774,1307,o),
(705,1307,c),
(613,1307,o),
(520,1426,o),
(428,1426,cs),
(330,1426,o),
(258,1357,o),
(258,1254,c),
(311,1254,l),
(311,1327,o),
(356,1374,o),
(428,1374,cs),
(468,1374,o),
(511,1354,o),
(557,1314,cs),
(604,1274,o),
(653,1254,o),
(705,1254,cs),
(801,1254,o),
(874,1328,o),
(874,1433,c),
(821,1433,l)
);
}
);
width = 1043;
},
{
layerId = m002;
shapes = (
{
closed = 1;
nodes = (
(1003,-9,l),
(974,41,o),
(960,114,o),
(958,212,cs),
(958,671,ls),
(955,900,o),
(793,1034,o),
(525,1034,cs),
(258,1034,o),
(68,898,o),
(68,696,c),
(392,696,l),
(392,771,o),
(431,809,o),
(508,809,cs),
(591,809,o),
(633,761,o),
(633,667,cs),
(633,611,l),
(532,611,ls),
(214,611,o),
(43,494,o),
(43,268,cs),
(43,88,o),
(202,-45,o),
(397,-45,cs),
(503,-45,o),
(587,-8,o),
(647,67,c),
(656,28,o),
(667,-3,o),
(678,-25,c),
(1003,-25,l)
);
},
{
closed = 1;
nodes = (
(413,185,o),
(370,226,o),
(370,286,cs),
(370,387,o),
(425,437,o),
(536,437,cs),
(633,437,l),
(633,271,l),
(610,229,o),
(554,185,o),
(476,185,cs)
);
},
{
closed = 1;
nodes = (
(708,1397,o),
(674,1370,o),
(631,1370,cs),
(531,1370,o),
(466,1449,o),
(364,1449,cs),
(240,1449,o),
(140,1329,o),
(140,1187,c),
(321,1178,l),
(321,1235,o),
(356,1264,o),
(394,1264,cs),
(427,1264,o),
(470,1251,o),
(522,1223,cs),
(574,1196,o),
(621,1183,o),
(663,1183,cs),
(789,1183,o),
(886,1299,o),
(886,1447,c),
(708,1458,l)
);
}
);
width = 1047;
}
);
note = uni00E3;
unicode = 227;
},
{
glyphname = ae;
lastChange = "2024-05-16 19:04:50 +0000";
layers = (
{
layerId = m01;
shapes = (
{
closed = 1;
nodes = (
(1364,-19,o),
(1470,16,o),
(1572,118,c),
(1543,158,l),
(1460,75,o),
(1354,33,o),
(1223,33,cs),
(1027,33,o),
(839,105,o),
(839,556,c),
(1598,556,l),
(1598,632,ls),
(1598,906,o),
(1447,1062,o),
(1208,1062,cs),
(1041,1062,o),
(901,961,o),
(829,785,c),
(800,965,o),
(684,1062,o),
(502,1062,cs),
(275,1062,o),
(117,936,o),
(117,750,c),
(168,743,l),
(168,904,o),
(299,1010,o),
(502,1010,cs),
(693,1010,o),
(784,895,o),
(784,694,cs),
(784,607,l),
(498,607,ls),
(238,605,o),
(90,477,o),
(90,274,cs),
(90,94,o),
(216,-19,o),
(432,-19,cs),
(610,-19,o),
(756,24,o),
(837,222,c),
(904,74,o),
(1034,-19,o),
(1223,-19,cs)
);
},
{
closed = 1;
nodes = (
(243,31,o),
(143,121,o),
(143,270,cs),
(143,440,o),
(279,550,o),
(494,554,cs),
(784,554,l),
(784,217,l),
(748,109,o),
(556,31,o),
(431,31,cs)
);
},
{
closed = 1;
nodes = (
(1418,1010,o),
(1546,864,o),
(1546,640,cs),
(1546,609,l),
(842,609,l),
(866,852,o),
(1011,1010,o),
(1208,1010,cs)
);
}
);
userData = {
assembly = "SVTCA[0]	/* SetFreedomAndProjectionVectorToAxis */
PUSHB[ ]	/* 1 value pushed */
0
RCVT[ ]	/* ReadCVT */
IF[ ]	/* If */
PUSHB[ ]	/* 1 value pushed */
23
MDAP[1]	/* MoveDirectAbsPt */
ELSE[ ]	/* Else */
PUSHB[ ]	/* 2 values pushed */
23 27
MIAP[0]	/* MoveIndirectAbsPt */
EIF[ ]	/* EndIf */
PUSHB[ ]	/* 1 value pushed */
0
RCVT[ ]	/* ReadCVT */
IF[ ]	/* If */
PUSHB[ ]	/* 1 value pushed */
27
MDAP[1]	/* MoveDirectAbsPt */
ELSE[ ]	/* Else */
PUSHB[ ]	/* 2 values pushed */
27 27
MIAP[0]	/* MoveIndirectAbsPt */
EIF[ ]	/* EndIf */
PUSHB[ ]	/* 1 value pushed */
0
RCVT[ ]	/* ReadCVT */
IF[ ]	/* If */
PUSHB[ ]	/* 1 value pushed */
5
MDAP[1]	/* MoveDirectAbsPt */
ELSE[ ]	/* Else */
PUSHB[ ]	/* 2 values pushed */
5 15
MIAP[0]	/* MoveIndirectAbsPt */
EIF[ ]	/* EndIf */
PUSHB[ ]	/* 1 value pushed */
0
MDRP[10000]	/* MoveDirectRelPt */
PUSHB[ ]	/* 1 value pushed */
0
MDAP[1]	/* MoveDirectAbsPt */
PUSHB[ ]	/* 3 values pushed */
2 5 23
SRP1[ ]	/* SetRefPoint1 */
SRP2[ ]	/* SetRefPoint2 */
IP[ ]	/* InterpolatePts */
PUSHB[ ]	/* 3 values pushed */
11 23 5
SRP1[ ]	/* SetRefPoint1 */
SRP2[ ]	/* SetRefPoint2 */
IP[ ]	/* InterpolatePts */
PUSHB[ ]	/* 1 value pushed */
11
MDAP[1]	/* MoveDirectAbsPt */
PUSHB[ ]	/* 1 value pushed */
23
SRP0[ ]	/* SetRefPoint0 */
PUSHB[ ]	/* 2 values pushed */
16 9
PUSHB[ ]	/* 1 value pushed */
10
CALL[ ]	/* CallFunction */
IF[ ]	/* If */
POP[ ]	/* PopTopStack */
MDRP[11000]	/* MoveDirectRelPt */
ELSE[ ]	/* Else */
MIRP[10100]	/* MoveIndirectRelPt */
EIF[ ]	/* EndIf */
PUSHB[ ]	/* 3 values pushed */
19 11 16
SRP1[ ]	/* SetRefPoint1 */
SRP2[ ]	/* SetRefPoint2 */
IP[ ]	/* InterpolatePts */
NPUSHB[ ]	/* 9 values pushed */
12 19 28 19 44 19 60 19 4
DELTAP1[ ]	/* DeltaExceptionP1 */
PUSHB[ ]	/* 5 values pushed */
186 19 202 19 2
DELTAP1[ ]	/* DeltaExceptionP1 */
PUSHB[ ]	/* 3 values pushed */
25 23 5
SRP1[ ]	/* SetRefPoint1 */
SRP2[ ]	/* SetRefPoint2 */
IP[ ]	/* InterpolatePts */
PUSHB[ ]	/* 3 values pushed */
54 0 27
SRP1[ ]	/* SetRefPoint1 */
SRP2[ ]	/* SetRefPoint2 */
IP[ ]	/* InterpolatePts */
PUSHB[ ]	/* 1 value pushed */
54
MDAP[1]	/* MoveDirectAbsPt */
PUSHB[ ]	/* 3 values pushed */
191 54 1
DELTAP2[ ]	/* DeltaExceptionP2 */
PUSHB[ ]	/* 3 values pushed */
143 54 1
DELTAP3[ ]	/* DeltaExceptionP3 */
PUSHB[ ]	/* 5 values pushed */
31 54 47 54 2
DELTAP2[ ]	/* DeltaExceptionP2 */
PUSHB[ ]	/* 3 values pushed */
143 54 1
DELTAP1[ ]	/* DeltaExceptionP1 */
PUSHB[ ]	/* 2 values pushed */
31 8
PUSHB[ ]	/* 1 value pushed */
10
CALL[ ]	/* CallFunction */
IF[ ]	/* If */
POP[ ]	/* PopTopStack */
MDRP[11000]	/* MoveDirectRelPt */
ELSE[ ]	/* Else */
MIRP[10100]	/* MoveIndirectRelPt */
EIF[ ]	/* EndIf */
PUSHB[ ]	/* 1 value pushed */
0
SRP0[ ]	/* SetRefPoint0 */
PUSHB[ ]	/* 2 values pushed */
35 1
PUSHB[ ]	/* 1 value pushed */
10
CALL[ ]	/* CallFunction */
IF[ ]	/* If */
POP[ ]	/* PopTopStack */
MDRP[11000]	/* MoveDirectRelPt */
ELSE[ ]	/* Else */
MIRP[10100]	/* MoveIndirectRelPt */
EIF[ ]	/* EndIf */
PUSHB[ ]	/* 3 values pushed */
38 35 31
SRP1[ ]	/* SetRefPoint1 */
SRP2[ ]	/* SetRefPoint2 */
IP[ ]	/* InterpolatePts */
PUSHB[ ]	/* 1 value pushed */
5
SRP0[ ]	/* SetRefPoint0 */
PUSHB[ ]	/* 2 values pushed */
42 9
PUSHB[ ]	/* 1 value pushed */
10
CALL[ ]	/* CallFunction */
IF[ ]	/* If */
POP[ ]	/* PopTopStack */
MDRP[11000]	/* MoveDirectRelPt */
ELSE[ ]	/* Else */
MIRP[10100]	/* MoveIndirectRelPt */
EIF[ ]	/* EndIf */
PUSHB[ ]	/* 1 value pushed */
11
SRP0[ ]	/* SetRefPoint0 */
PUSHB[ ]	/* 2 values pushed */
46 8
PUSHB[ ]	/* 1 value pushed */
10
CALL[ ]	/* CallFunction */
IF[ ]	/* If */
POP[ ]	/* PopTopStack */
MDRP[11000]	/* MoveDirectRelPt */
ELSE[ ]	/* Else */
MIRP[10100]	/* MoveIndirectRelPt */
EIF[ ]	/* EndIf */
PUSHB[ ]	/* 1 value pushed */
27
SRP0[ ]	/* SetRefPoint0 */
PUSHB[ ]	/* 2 values pushed */
51 1
PUSHB[ ]	/* 1 value pushed */
10
CALL[ ]	/* CallFunction */
IF[ ]	/* If */
POP[ ]	/* PopTopStack */
MDRP[11000]	/* MoveDirectRelPt */
ELSE[ ]	/* Else */
MIRP[10100]	/* MoveIndirectRelPt */
EIF[ ]	/* EndIf */
IUP[0]	/* InterpolateUntPts */
IUP[1]	/* InterpolateUntPts */";
};
width = 1673;
},
{
layerId = m002;
shapes = (
{
closed = 1;
nodes = (
(1339,-45,o),
(1501,3,o),
(1589,73,c),
(1510,271,l),
(1388,217,o),
(1369,205,o),
(1237,205,cs),
(1105,205,o),
(1026,268,o),
(1007,392,c),
(1622,392,l),
(1622,561,ls),
(1622,853,o),
(1454,1034,o),
(1183,1034,cs),
(1057,1035,o),
(954,1007,o),
(874,946,c),
(798,1004,o),
(695,1034,o),
(566,1034,cs),
(283,1034,o),
(95,898,o),
(95,705,c),
(420,688,l),
(420,741,o),
(467,784,o),
(564,784,cs),
(644,784,o),
(689,733,o),
(689,649,cs),
(689,606,l),
(552,606,ls),
(228,603,o),
(59,487,o),
(59,286,cs),
(59,79,o),
(209,-45,o),
(467,-45,cs),
(611,-45,o),
(740,-1,o),
(827,84,c),
(917,-2,o),
(1039,-45,o),
(1192,-45,cs)
);
},
{
closed = 1;
nodes = (
(432,178,o),
(383,213,o),
(383,284,cs),
(383,356,o),
(455,408,o),
(557,408,cs),
(689,408,l),
(689,239,l),
(639,198,o),
(585,178,o),
(528,178,cs)
);
},
{
closed = 1;
nodes = (
(1261,784,o),
(1304,724,o),
(1304,622,cs),
(1304,595,l),
(1007,595,l),
(1026,724,o),
(1075,784,o),
(1183,784,cs)
);
}
);
userData = {
assembly = "SVTCA[0]	/* SetFreedomAndProjectionVectorToAxis */
PUSHB[ ]	/* 1 value pushed */
0
RCVT[ ]	/* ReadCVT */
IF[ ]	/* If */
PUSHB[ ]	/* 1 value pushed */
23
MDAP[1]	/* MoveDirectAbsPt */
ELSE[ ]	/* Else */
PUSHB[ ]	/* 2 values pushed */
23 27
MIAP[0]	/* MoveIndirectAbsPt */
EIF[ ]	/* EndIf */
PUSHB[ ]	/* 1 value pushed */
0
RCVT[ ]	/* ReadCVT */
IF[ ]	/* If */
PUSHB[ ]	/* 1 value pushed */
27
MDAP[1]	/* MoveDirectAbsPt */
ELSE[ ]	/* Else */
PUSHB[ ]	/* 2 values pushed */
27 27
MIAP[0]	/* MoveIndirectAbsPt */
EIF[ ]	/* EndIf */
PUSHB[ ]	/* 1 value pushed */
0
RCVT[ ]	/* ReadCVT */
IF[ ]	/* If */
PUSHB[ ]	/* 1 value pushed */
5
MDAP[1]	/* MoveDirectAbsPt */
ELSE[ ]	/* Else */
PUSHB[ ]	/* 2 values pushed */
5 15
MIAP[0]	/* MoveIndirectAbsPt */
EIF[ ]	/* EndIf */
PUSHB[ ]	/* 1 value pushed */
0
MDRP[10000]	/* MoveDirectRelPt */
PUSHB[ ]	/* 1 value pushed */
0
MDAP[1]	/* MoveDirectAbsPt */
PUSHB[ ]	/* 3 values pushed */
2 5 23
SRP1[ ]	/* SetRefPoint1 */
SRP2[ ]	/* SetRefPoint2 */
IP[ ]	/* InterpolatePts */
PUSHB[ ]	/* 3 values pushed */
11 23 5
SRP1[ ]	/* SetRefPoint1 */
SRP2[ ]	/* SetRefPoint2 */
IP[ ]	/* InterpolatePts */
PUSHB[ ]	/* 1 value pushed */
11
MDAP[1]	/* MoveDirectAbsPt */
PUSHB[ ]	/* 1 value pushed */
23
SRP0[ ]	/* SetRefPoint0 */
PUSHB[ ]	/* 2 values pushed */
16 9
PUSHB[ ]	/* 1 value pushed */
10
CALL[ ]	/* CallFunction */
IF[ ]	/* If */
POP[ ]	/* PopTopStack */
MDRP[11000]	/* MoveDirectRelPt */
ELSE[ ]	/* Else */
MIRP[10100]	/* MoveIndirectRelPt */
EIF[ ]	/* EndIf */
PUSHB[ ]	/* 3 values pushed */
19 11 16
SRP1[ ]	/* SetRefPoint1 */
SRP2[ ]	/* SetRefPoint2 */
IP[ ]	/* InterpolatePts */
NPUSHB[ ]	/* 9 values pushed */
12 19 28 19 44 19 60 19 4
DELTAP1[ ]	/* DeltaExceptionP1 */
PUSHB[ ]	/* 5 values pushed */
186 19 202 19 2
DELTAP1[ ]	/* DeltaExceptionP1 */
PUSHB[ ]	/* 3 values pushed */
25 23 5
SRP1[ ]	/* SetRefPoint1 */
SRP2[ ]	/* SetRefPoint2 */
IP[ ]	/* InterpolatePts */
PUSHB[ ]	/* 3 values pushed */
54 0 27
SRP1[ ]	/* SetRefPoint1 */
SRP2[ ]	/* SetRefPoint2 */
IP[ ]	/* InterpolatePts */
PUSHB[ ]	/* 1 value pushed */
54
MDAP[1]	/* MoveDirectAbsPt */
PUSHB[ ]	/* 3 values pushed */
191 54 1
DELTAP2[ ]	/* DeltaExceptionP2 */
PUSHB[ ]	/* 3 values pushed */
143 54 1
DELTAP3[ ]	/* DeltaExceptionP3 */
PUSHB[ ]	/* 5 values pushed */
31 54 47 54 2
DELTAP2[ ]	/* DeltaExceptionP2 */
PUSHB[ ]	/* 3 values pushed */
143 54 1
DELTAP1[ ]	/* DeltaExceptionP1 */
PUSHB[ ]	/* 2 values pushed */
31 8
PUSHB[ ]	/* 1 value pushed */
10
CALL[ ]	/* CallFunction */
IF[ ]	/* If */
POP[ ]	/* PopTopStack */
MDRP[11000]	/* MoveDirectRelPt */
ELSE[ ]	/* Else */
MIRP[10100]	/* MoveIndirectRelPt */
EIF[ ]	/* EndIf */
PUSHB[ ]	/* 1 value pushed */
0
SRP0[ ]	/* SetRefPoint0 */
PUSHB[ ]	/* 2 values pushed */
35 1
PUSHB[ ]	/* 1 value pushed */
10
CALL[ ]	/* CallFunction */
IF[ ]	/* If */
POP[ ]	/* PopTopStack */
MDRP[11000]	/* MoveDirectRelPt */
ELSE[ ]	/* Else */
MIRP[10100]	/* MoveIndirectRelPt */
EIF[ ]	/* EndIf */
PUSHB[ ]	/* 3 values pushed */
38 35 31
SRP1[ ]	/* SetRefPoint1 */
SRP2[ ]	/* SetRefPoint2 */
IP[ ]	/* InterpolatePts */
PUSHB[ ]	/* 1 value pushed */
5
SRP0[ ]	/* SetRefPoint0 */
PUSHB[ ]	/* 2 values pushed */
42 9
PUSHB[ ]	/* 1 value pushed */
10
CALL[ ]	/* CallFunction */
IF[ ]	/* If */
POP[ ]	/* PopTopStack */
MDRP[11000]	/* MoveDirectRelPt */
ELSE[ ]	/* Else */
MIRP[10100]	/* MoveIndirectRelPt */
EIF[ ]	/* EndIf */
PUSHB[ ]	/* 1 value pushed */
11
SRP0[ ]	/* SetRefPoint0 */
PUSHB[ ]	/* 2 values pushed */
46 8
PUSHB[ ]	/* 1 value pushed */
10
CALL[ ]	/* CallFunction */
IF[ ]	/* If */
POP[ ]	/* PopTopStack */
MDRP[11000]	/* MoveDirectRelPt */
ELSE[ ]	/* Else */
MIRP[10100]	/* MoveIndirectRelPt */
EIF[ ]	/* EndIf */
PUSHB[ ]	/* 1 value pushed */
27
SRP0[ ]	/* SetRefPoint0 */
PUSHB[ ]	/* 2 values pushed */
51 1
PUSHB[ ]	/* 1 value pushed */
10
CALL[ ]	/* CallFunction */
IF[ ]	/* If */
POP[ ]	/* PopTopStack */
MDRP[11000]	/* MoveDirectRelPt */
ELSE[ ]	/* Else */
MIRP[10100]	/* MoveIndirectRelPt */
EIF[ ]	/* EndIf */
IUP[0]	/* InterpolateUntPts */
IUP[1]	/* InterpolateUntPts */";
};
width = 1665;
}
);
note = uni00E6;
unicode = 230;
},
{
glyphname = b;
kernRight = b;
lastChange = "2024-05-16 19:04:50 +0000";
layers = (
{
layerId = m01;
shapes = (
{
closed = 1;
nodes = (
(963,866,o),
(814,1062,o),
(570,1062,cs),
(412,1062,o),
(289,991,o),
(216,853,c),
(216,1481,l),
(164,1481,l),
(164,0,l),
(216,0,l),
(216,165,l),
(287,49,o),
(415,-19,o),
(572,-19,cs),
(813,-19,o),
(963,187,o),
(963,512,cs),
(963,528,ls)
);
},
{
closed = 1;
nodes = (
(909,208,o),
(787,33,o),
(573,33,cs),
(395,33,o),
(271,116,o),
(216,264,c),
(216,742,l),
(271,920,o),
(396,1010,o),
(571,1010,cs),
(784,1010,o),
(909,832,o),
(909,532,cs)
);
}
);
userData = {
assembly = "PUSHB[ ]	/* 3 values pushed */
19 28 29
SRP1[ ]	/* SetRefPoint1 */
SRP2[ ]	/* SetRefPoint2 */
IP[ ]	/* InterpolatePts */
PUSHB[ ]	/* 1 value pushed */
19
SRP0[ ]	/* SetRefPoint0 */
PUSHB[ ]	/* 1 value pushed */
11
MDRP[10000]	/* MoveDirectRelPt */
SVTCA[0]	/* SetFreedomAndProjectionVectorToAxis */
PUSHB[ ]	/* 1 value pushed */
9
MDAP[1]	/* MoveDirectAbsPt */
PUSHB[ ]	/* 1 value pushed */
0
RCVT[ ]	/* ReadCVT */
IF[ ]	/* If */
PUSHB[ ]	/* 1 value pushed */
12
MDAP[1]	/* MoveDirectAbsPt */
ELSE[ ]	/* Else */
PUSHB[ ]	/* 2 values pushed */
12 27
MIAP[0]	/* MoveIndirectAbsPt */
EIF[ ]	/* EndIf */
PUSHB[ ]	/* 1 value pushed */
0
RCVT[ ]	/* ReadCVT */
IF[ ]	/* If */
PUSHB[ ]	/* 1 value pushed */
3
MDAP[1]	/* MoveDirectAbsPt */
ELSE[ ]	/* Else */
PUSHB[ ]	/* 2 values pushed */
3 15
MIAP[0]	/* MoveIndirectAbsPt */
EIF[ ]	/* EndIf */
PUSHB[ ]	/* 1 value pushed */
0
RCVT[ ]	/* ReadCVT */
IF[ ]	/* If */
PUSHB[ ]	/* 1 value pushed */
6
MDAP[1]	/* MoveDirectAbsPt */
ELSE[ ]	/* Else */
PUSHB[ ]	/* 2 values pushed */
6 15
MIAP[0]	/* MoveIndirectAbsPt */
EIF[ ]	/* EndIf */
PUSHB[ ]	/* 3 values pushed */
5 12 6
SRP1[ ]	/* SetRefPoint1 */
SRP2[ ]	/* SetRefPoint2 */
IP[ ]	/* InterpolatePts */
PUSHB[ ]	/* 3 values pushed */
10 12 6
SRP1[ ]	/* SetRefPoint1 */
SRP2[ ]	/* SetRefPoint2 */
IP[ ]	/* InterpolatePts */
PUSHB[ ]	/* 1 value pushed */
12
SRP0[ ]	/* SetRefPoint0 */
PUSHB[ ]	/* 2 values pushed */
19 1
PUSHB[ ]	/* 1 value pushed */
10
CALL[ ]	/* CallFunction */
IF[ ]	/* If */
POP[ ]	/* PopTopStack */
MDRP[11000]	/* MoveDirectRelPt */
ELSE[ ]	/* Else */
MIRP[10100]	/* MoveIndirectRelPt */
EIF[ ]	/* EndIf */
PUSHB[ ]	/* 1 value pushed */
3
SRP0[ ]	/* SetRefPoint0 */
PUSHB[ ]	/* 2 values pushed */
24 1
PUSHB[ ]	/* 1 value pushed */
10
CALL[ ]	/* CallFunction */
IF[ ]	/* If */
POP[ ]	/* PopTopStack */
MDRP[11000]	/* MoveDirectRelPt */
ELSE[ ]	/* Else */
MIRP[10100]	/* MoveIndirectRelPt */
EIF[ ]	/* EndIf */
IUP[0]	/* InterpolateUntPts */
IUP[1]	/* InterpolateUntPts */";
};
width = 1081;
},
{
layerId = m002;
shapes = (
{
closed = 1;
nodes = (
(1058,838,o),
(914,1034,o),
(653,1034,cs),
(556,1034,o),
(478,1000,o),
(419,931,c),
(419,1453,l),
(94,1453,l),
(94,-25,l),
(385,-25,l),
(398,81,l),
(464,-3,o),
(550,-45,o),
(655,-45,cs),
(914,-45,o),
(1058,144,o),
(1058,486,cs),
(1058,505,l)
);
},
{
closed = 1;
nodes = (
(734,355,o),
(730,205,o),
(572,205,cs),
(497,205,o),
(445,232,o),
(419,286,c),
(419,701,l),
(447,756,o),
(498,784,o),
(572,784,cs),
(679,784,o),
(734,706,o),
(734,505,cs)
);
}
);
userData = {
assembly = "PUSHB[ ]	/* 3 values pushed */
19 28 29
SRP1[ ]	/* SetRefPoint1 */
SRP2[ ]	/* SetRefPoint2 */
IP[ ]	/* InterpolatePts */
PUSHB[ ]	/* 1 value pushed */
19
SRP0[ ]	/* SetRefPoint0 */
PUSHB[ ]	/* 1 value pushed */
11
MDRP[10000]	/* MoveDirectRelPt */
SVTCA[0]	/* SetFreedomAndProjectionVectorToAxis */
PUSHB[ ]	/* 1 value pushed */
9
MDAP[1]	/* MoveDirectAbsPt */
PUSHB[ ]	/* 1 value pushed */
0
RCVT[ ]	/* ReadCVT */
IF[ ]	/* If */
PUSHB[ ]	/* 1 value pushed */
12
MDAP[1]	/* MoveDirectAbsPt */
ELSE[ ]	/* Else */
PUSHB[ ]	/* 2 values pushed */
12 27
MIAP[0]	/* MoveIndirectAbsPt */
EIF[ ]	/* EndIf */
PUSHB[ ]	/* 1 value pushed */
0
RCVT[ ]	/* ReadCVT */
IF[ ]	/* If */
PUSHB[ ]	/* 1 value pushed */
3
MDAP[1]	/* MoveDirectAbsPt */
ELSE[ ]	/* Else */
PUSHB[ ]	/* 2 values pushed */
3 15
MIAP[0]	/* MoveIndirectAbsPt */
EIF[ ]	/* EndIf */
PUSHB[ ]	/* 1 value pushed */
0
RCVT[ ]	/* ReadCVT */
IF[ ]	/* If */
PUSHB[ ]	/* 1 value pushed */
6
MDAP[1]	/* MoveDirectAbsPt */
ELSE[ ]	/* Else */
PUSHB[ ]	/* 2 values pushed */
6 15
MIAP[0]	/* MoveIndirectAbsPt */
EIF[ ]	/* EndIf */
PUSHB[ ]	/* 3 values pushed */
5 12 6
SRP1[ ]	/* SetRefPoint1 */
SRP2[ ]	/* SetRefPoint2 */
IP[ ]	/* InterpolatePts */
PUSHB[ ]	/* 3 values pushed */
10 12 6
SRP1[ ]	/* SetRefPoint1 */
SRP2[ ]	/* SetRefPoint2 */
IP[ ]	/* InterpolatePts */
PUSHB[ ]	/* 1 value pushed */
12
SRP0[ ]	/* SetRefPoint0 */
PUSHB[ ]	/* 2 values pushed */
19 1
PUSHB[ ]	/* 1 value pushed */
10
CALL[ ]	/* CallFunction */
IF[ ]	/* If */
POP[ ]	/* PopTopStack */
MDRP[11000]	/* MoveDirectRelPt */
ELSE[ ]	/* Else */
MIRP[10100]	/* MoveIndirectRelPt */
EIF[ ]	/* EndIf */
PUSHB[ ]	/* 1 value pushed */
3
SRP0[ ]	/* SetRefPoint0 */
PUSHB[ ]	/* 2 values pushed */
24 1
PUSHB[ ]	/* 1 value pushed */
10
CALL[ ]	/* CallFunction */
IF[ ]	/* If */
POP[ ]	/* PopTopStack */
MDRP[11000]	/* MoveDirectRelPt */
ELSE[ ]	/* Else */
MIRP[10100]	/* MoveIndirectRelPt */
EIF[ ]	/* EndIf */
IUP[0]	/* InterpolateUntPts */
IUP[1]	/* InterpolateUntPts */";
};
width = 1110;
}
);
note = uni0062;
unicode = 98;
},
